<?xml version="1.0" encoding="UTF-8" standalone="no"?>
<!-- Created with Inkscape (http://www.inkscape.org/) -->

<svg
   width="115.97112mm"
   height="114.82945mm"
   viewBox="0 0 115.97111 114.82945"
   version="1.1"
   id="svg17828"
   xml:space="preserve"
   inkscape:version="1.2.2 (1:1.2.2+202212051550+b0a8486541)"
   sodipodi:docname="CaCp_vs_Lambda.svg"
   xmlns:inkscape="http://www.inkscape.org/namespaces/inkscape"
   xmlns:sodipodi="http://sodipodi.sourceforge.net/DTD/sodipodi-0.dtd"
   xmlns="http://www.w3.org/2000/svg"
   xmlns:svg="http://www.w3.org/2000/svg"><sodipodi:namedview
     id="namedview17830"
     pagecolor="#ffffff"
     bordercolor="#666666"
     borderopacity="1.0"
     inkscape:showpageshadow="2"
     inkscape:pageopacity="0.0"
     inkscape:pagecheckerboard="0"
     inkscape:deskcolor="#d1d1d1"
     inkscape:document-units="mm"
     showgrid="false"
     inkscape:zoom="0.75722503"
     inkscape:cx="380.99639"
     inkscape:cy="205.35507"
     inkscape:window-width="1872"
     inkscape:window-height="1016"
     inkscape:window-x="48"
     inkscape:window-y="27"
     inkscape:window-maximized="1"
     inkscape:current-layer="g19233" /><defs
     id="defs17825"><clipPath
       clipPathUnits="userSpaceOnUse"
       id="clipPath18795"><path
         d="M 0,7207.5 H 7020 V 0 H 0 Z"
         id="path18793" /></clipPath></defs><g
     inkscape:label="Layer 1"
     inkscape:groupmode="layer"
     id="layer1"
     transform="translate(284.21245,-232.98091)"><g
       id="g17957"
       transform="matrix(0.03527778,0,0,-0.03527778,43.319015,184.49544)"><g
         id="g18165"
         transform="translate(-960.74473,534.84745)"><g
           id="g18787"
           transform="translate(-1853.8025,-1379.8223)"><g
             id="g19233"
             transform="translate(-7515.3286,-3879.1663)"><path
               d="M 1665,690 H 4222.5 V 3247.5 H 1665 Z"
               style="fill:#ffffff;fill-opacity:1;fill-rule:nonzero;stroke:none"
               id="path19239" /><path
               d="M 1665,690 H 4222.5"
               style="fill:none;stroke:#262626;stroke-width:12.5025;stroke-linecap:square;stroke-linejoin:round;stroke-miterlimit:10;stroke-dasharray:none;stroke-opacity:1"
               id="path19241" /><path
               d="M 1665,3247.5 H 4222.5"
               style="fill:none;stroke:#262626;stroke-width:12.5025;stroke-linecap:square;stroke-linejoin:round;stroke-miterlimit:10;stroke-dasharray:none;stroke-opacity:1"
               id="path19243" /><path
               d="m 1665,690 v 25.574"
               style="fill:none;stroke:#262626;stroke-width:12.5025;stroke-linecap:square;stroke-linejoin:round;stroke-miterlimit:10;stroke-dasharray:none;stroke-opacity:1"
               id="path19245" /><path
               d="m 2943.75,690 v 25.574"
               style="fill:none;stroke:#262626;stroke-width:12.5025;stroke-linecap:square;stroke-linejoin:round;stroke-miterlimit:10;stroke-dasharray:none;stroke-opacity:1"
               id="path19247" /><path
               d="m 4222.5,690 v 25.574"
               style="fill:none;stroke:#262626;stroke-width:12.5025;stroke-linecap:square;stroke-linejoin:round;stroke-miterlimit:10;stroke-dasharray:none;stroke-opacity:1"
               id="path19249" /><path
               d="m 1665,3247.5 v -25.57"
               style="fill:none;stroke:#262626;stroke-width:12.5025;stroke-linecap:square;stroke-linejoin:round;stroke-miterlimit:10;stroke-dasharray:none;stroke-opacity:1"
               id="path19251" /><path
               d="m 2943.75,3247.5 v -25.57"
               style="fill:none;stroke:#262626;stroke-width:12.5025;stroke-linecap:square;stroke-linejoin:round;stroke-miterlimit:10;stroke-dasharray:none;stroke-opacity:1"
               id="path19253" /><path
               d="m 4222.5,3247.5 v -25.57"
               style="fill:none;stroke:#262626;stroke-width:12.5025;stroke-linecap:square;stroke-linejoin:round;stroke-miterlimit:10;stroke-dasharray:none;stroke-opacity:1"
               id="path19255" /><path
               d="m 1567.27,420.398 v 8.438 c 20,0 30,2.543 30,7.621 v 125.977 c -8.29,-3.985 -18.76,-5.977 -31.41,-5.977 v 8.438 c 19.61,0 34.41,5.117 44.41,15.351 h 3.4 c 0.55,0 1.08,-0.215 1.58,-0.644 0.51,-0.43 0.77,-0.918 0.77,-1.469 V 436.457 c 0,-5.078 10,-7.621 30,-7.621 v -8.438 h -78.75"
               style="fill:#262626;fill-opacity:1;fill-rule:nonzero;stroke:none"
               id="path19257" /><path
               d="m 1725,415.129 c -19.61,0 -32.95,8.066 -40.02,24.199 -7.07,16.133 -10.6,35.328 -10.6,57.594 0,13.906 1.26,26.992 3.8,39.262 2.55,12.265 7.58,22.675 15.12,31.23 7.54,8.555 18.11,12.832 31.7,12.832 10.55,0 19.18,-2.578 25.9,-7.738 6.72,-5.156 11.83,-11.817 15.35,-19.981 3.52,-8.164 5.92,-16.914 7.21,-26.25 1.29,-9.336 1.93,-19.121 1.93,-29.355 0,-13.75 -1.27,-26.621 -3.81,-38.609 -2.54,-11.997 -7.52,-22.192 -14.94,-30.586 -7.42,-8.399 -17.97,-12.598 -31.64,-12.598 z m 0,6.207 c 8.91,0 15.55,4.57 19.92,13.711 4.38,9.141 7.07,19.258 8.08,30.351 1.02,11.098 1.54,22.895 1.54,35.395 0,12.031 -0.52,23.121 -1.54,33.277 -1.01,10.16 -3.68,19.36 -8.02,27.598 -4.34,8.242 -11,12.363 -19.98,12.363 -9.06,0 -15.78,-4.14 -20.15,-12.422 -4.38,-8.281 -7.08,-17.476 -8.1,-27.593 -1.01,-10.118 -1.52,-21.192 -1.52,-33.223 0,-8.906 0.22,-17.305 0.65,-25.199 0.43,-7.891 1.58,-16.035 3.46,-24.43 1.87,-8.398 4.9,-15.469 9.08,-21.211 4.18,-5.742 9.71,-8.617 16.58,-8.617"
               style="fill:#262626;fill-opacity:1;fill-rule:nonzero;stroke:none"
               id="path19259" /><path
               d="m 2846.02,420.398 v 8.438 c 20,0 30,2.543 30,7.621 v 125.977 c -8.29,-3.985 -18.76,-5.977 -31.41,-5.977 v 8.438 c 19.61,0 34.41,5.117 44.41,15.351 h 3.4 c 0.55,0 1.08,-0.215 1.58,-0.644 0.51,-0.43 0.77,-0.918 0.77,-1.469 V 436.457 c 0,-5.078 10,-7.621 30,-7.621 v -8.438 h -78.75"
               style="fill:#262626;fill-opacity:1;fill-rule:nonzero;stroke:none"
               id="path19261" /><path
               d="m 2964.61,447.707 c 1.64,-4.691 4.16,-8.945 7.56,-12.773 3.4,-3.829 7.42,-6.821 12.06,-8.969 4.66,-2.145 9.48,-3.219 14.48,-3.219 11.56,0 19.54,4.492 23.91,13.473 4.38,8.984 6.56,19.883 6.56,32.699 0,5.543 -0.09,10.211 -0.29,14 -0.19,3.793 -0.72,7.445 -1.58,10.961 -1.49,5.625 -4.08,10.547 -7.79,14.766 -3.72,4.214 -8.27,6.324 -13.66,6.324 -5.39,0 -10.02,-0.821 -13.88,-2.461 -3.87,-1.641 -7.02,-3.555 -9.44,-5.738 -2.42,-2.192 -4.57,-4.497 -6.44,-6.915 -1.88,-2.425 -3.05,-3.714 -3.52,-3.871 h -2.7 c -0.39,0 -0.88,0.254 -1.46,0.766 -0.59,0.504 -0.88,0.992 -0.88,1.461 v 80.16 c 0,0.391 0.25,0.801 0.76,1.231 0.51,0.429 1.04,0.644 1.58,0.644 h 0.71 c 10.77,-5.16 22.22,-7.738 34.33,-7.738 11.88,0 23.32,2.578 34.33,7.738 h 0.71 c 0.55,0 1.06,-0.195 1.52,-0.59 0.47,-0.39 0.71,-0.82 0.71,-1.285 v -2.226 c 0,-0.786 -0.16,-1.176 -0.47,-1.176 -5.47,-7.266 -12.33,-12.93 -20.57,-16.989 -8.24,-4.066 -16.77,-6.097 -25.6,-6.097 -6.41,0 -12.97,0.898 -19.69,2.699 V 509.23 c 5.31,4.293 10.06,7.36 14.24,9.196 4.18,1.84 9.51,2.758 16,2.758 8.82,0 16.73,-2.539 23.73,-7.618 6.99,-5.082 12.36,-11.703 16.11,-19.863 3.75,-8.164 5.62,-16.504 5.62,-25.019 0,-9.61 -2.36,-18.516 -7.08,-26.723 -4.73,-8.203 -11.16,-14.727 -19.29,-19.566 -8.12,-4.844 -16.95,-7.266 -26.48,-7.266 -7.89,0 -15.14,2.027 -21.73,6.09 -6.61,4.062 -11.8,9.535 -15.59,16.41 -3.79,6.875 -5.68,14.18 -5.68,21.914 0,3.594 1.17,6.523 3.51,8.789 2.34,2.266 5.27,3.398 8.78,3.398 3.52,0 6.48,-1.152 8.86,-3.457 2.38,-2.304 3.57,-5.214 3.57,-8.73 0,-3.441 -1.19,-6.352 -3.57,-8.73 -2.38,-2.387 -5.34,-3.579 -8.86,-3.579 -0.54,0 -1.16,0.059 -1.87,0.18 -0.7,0.117 -1.21,0.215 -1.52,0.293"
               style="fill:#262626;fill-opacity:1;fill-rule:nonzero;stroke:none"
               id="path19263" /><path
               d="m 4114.46,420.398 v 6.446 c 0,0.394 0.15,0.824 0.46,1.289 l 37.27,41.25 c 5.62,6.094 10.19,11.211 13.71,15.351 3.51,4.141 6.99,8.907 10.43,14.297 3.44,5.395 6.15,10.883 8.15,16.469 1.98,5.586 2.98,11.504 2.98,17.754 0,6.559 -1.21,12.828 -3.63,18.809 -2.42,5.976 -6.04,10.761 -10.85,14.355 -4.8,3.594 -10.6,5.391 -17.39,5.391 -6.96,0 -13.21,-2.09 -18.75,-6.27 -5.55,-4.18 -9.45,-9.59 -11.72,-16.23 0.63,0.156 1.48,0.234 2.57,0.234 3.6,0 6.67,-1.215 9.2,-3.637 2.54,-2.422 3.82,-5.547 3.82,-9.375 0,-3.672 -1.28,-6.777 -3.82,-9.316 -2.53,-2.539 -5.6,-3.809 -9.2,-3.809 -3.75,0 -6.89,1.309 -9.42,3.93 -2.54,2.613 -3.81,5.68 -3.81,9.195 0,6.02 1.13,11.664 3.39,16.934 2.27,5.273 5.53,9.961 9.79,14.062 4.25,4.106 9.06,7.25 14.41,9.434 5.35,2.191 11.04,3.285 17.05,3.285 9.14,0 17.66,-1.933 25.55,-5.805 7.89,-3.863 14.14,-9.332 18.75,-16.402 4.61,-7.07 6.91,-15.332 6.91,-24.785 0,-6.957 -1.52,-13.559 -4.56,-19.809 -3.05,-6.25 -6.96,-11.933 -11.73,-17.047 -4.76,-5.121 -10.86,-10.921 -18.27,-17.402 -7.43,-6.484 -12.32,-10.82 -14.66,-13.012 l -27.19,-26.129 h 23.1 c 11.32,0 20.79,0.098 28.41,0.293 7.62,0.196 11.66,0.489 12.13,0.875 1.87,2.032 3.79,9.415 5.74,22.149 h 7.03 l -6.79,-42.774 h -89.06"
               style="fill:#262626;fill-opacity:1;fill-rule:nonzero;stroke:none"
               id="path19265" /><path
               d="m 4282.5,415.129 c -19.61,0 -32.95,8.066 -40.02,24.199 -7.07,16.133 -10.6,35.328 -10.6,57.594 0,13.906 1.26,26.992 3.8,39.262 2.55,12.265 7.58,22.675 15.12,31.23 7.54,8.555 18.11,12.832 31.7,12.832 10.55,0 19.18,-2.578 25.9,-7.738 6.72,-5.156 11.83,-11.817 15.35,-19.981 3.52,-8.164 5.92,-16.914 7.21,-26.25 1.29,-9.336 1.93,-19.121 1.93,-29.355 0,-13.75 -1.27,-26.621 -3.81,-38.609 -2.54,-11.997 -7.52,-22.192 -14.94,-30.586 -7.42,-8.399 -17.97,-12.598 -31.64,-12.598 z m 0,6.207 c 8.91,0 15.55,4.57 19.92,13.711 4.38,9.141 7.07,19.258 8.08,30.351 1.02,11.098 1.54,22.895 1.54,35.395 0,12.031 -0.52,23.121 -1.54,33.277 -1.01,10.16 -3.68,19.36 -8.02,27.598 -4.34,8.242 -11,12.363 -19.98,12.363 -9.06,0 -15.78,-4.14 -20.15,-12.422 -4.38,-8.281 -7.08,-17.476 -8.1,-27.593 -1.01,-10.118 -1.52,-21.192 -1.52,-33.223 0,-8.906 0.22,-17.305 0.65,-25.199 0.43,-7.891 1.58,-16.035 3.46,-24.43 1.87,-8.398 4.9,-15.469 9.08,-21.211 4.18,-5.742 9.71,-8.617 16.58,-8.617"
               style="fill:#262626;fill-opacity:1;fill-rule:nonzero;stroke:none"
               id="path19267" /><path
               d="m 2860.52,94.7422 v 9.2618 c 13.68,0 22.23,5.152 25.67,15.465 l 51.21,160.312 c 0.62,1.875 1.91,2.813 3.86,2.813 h 3.52 c 0.94,0 1.76,-0.258 2.46,-0.766 0.71,-0.504 1.21,-1.187 1.52,-2.047 L 3002.2,112.32 c 1.48,-3.75 4.2,-6.074 8.14,-6.976 3.95,-0.895 9.05,-1.34 15.3,-1.34 v -9.2618 h -71.13 v 9.2618 c 14.84,0 22.26,2.34 22.26,7.027 0,0.469 -0.07,0.899 -0.23,1.289 l -41.49,130.192 -39.13,-123.043 c -0.32,-1.172 -0.47,-2.071 -0.47,-2.696 0,-4.375 2.14,-7.593 6.44,-9.664 4.3,-2.07 8.91,-3.105 13.82,-3.105 v -9.2618 h -55.19"
               style="fill:#262626;fill-opacity:1;fill-rule:nonzero;stroke:none"
               id="path19269" /><path
               d="M 1665,690 V 3247.5"
               style="fill:none;stroke:#262626;stroke-width:12.5025;stroke-linecap:square;stroke-linejoin:round;stroke-miterlimit:10;stroke-dasharray:none;stroke-opacity:1"
               id="path19271" /><path
               d="M 4222.5,690 V 3247.5"
               style="fill:none;stroke:#262626;stroke-width:12.5025;stroke-linecap:square;stroke-linejoin:round;stroke-miterlimit:10;stroke-dasharray:none;stroke-opacity:1"
               id="path19273" /><path
               d="m 1665,727.793 h 25.57"
               style="fill:none;stroke:#262626;stroke-width:12.5025;stroke-linecap:square;stroke-linejoin:round;stroke-miterlimit:10;stroke-dasharray:none;stroke-opacity:1"
               id="path19275" /><path
               d="m 1665,1987.65 h 25.57"
               style="fill:none;stroke:#262626;stroke-width:12.5025;stroke-linecap:square;stroke-linejoin:round;stroke-miterlimit:10;stroke-dasharray:none;stroke-opacity:1"
               id="path19277" /><path
               d="m 1665,3247.5 h 25.57"
               style="fill:none;stroke:#262626;stroke-width:12.5025;stroke-linecap:square;stroke-linejoin:round;stroke-miterlimit:10;stroke-dasharray:none;stroke-opacity:1"
               id="path19279" /><path
               d="m 4222.5,727.793 h -25.57"
               style="fill:none;stroke:#262626;stroke-width:12.5025;stroke-linecap:square;stroke-linejoin:round;stroke-miterlimit:10;stroke-dasharray:none;stroke-opacity:1"
               id="path19281" /><path
               d="m 4222.5,1987.65 h -25.57"
               style="fill:none;stroke:#262626;stroke-width:12.5025;stroke-linecap:square;stroke-linejoin:round;stroke-miterlimit:10;stroke-dasharray:none;stroke-opacity:1"
               id="path19283" /><path
               d="m 4222.5,3247.5 h -25.57"
               style="fill:none;stroke:#262626;stroke-width:12.5025;stroke-linecap:square;stroke-linejoin:round;stroke-miterlimit:10;stroke-dasharray:none;stroke-opacity:1"
               id="path19285" /><path
               d="m 1499.27,670.195 v 8.438 c 20,0 30,2.539 30,7.621 V 812.23 c -8.29,-3.984 -18.76,-5.976 -31.41,-5.976 v 8.437 c 19.61,0 34.41,5.118 44.41,15.352 h 3.4 c 0.55,0 1.08,-0.215 1.58,-0.645 0.51,-0.429 0.77,-0.921 0.77,-1.468 V 686.254 c 0,-5.082 10,-7.621 30,-7.621 v -8.438 h -78.75"
               style="fill:#262626;fill-opacity:1;fill-rule:nonzero;stroke:none"
               id="path19287" /><path
               d="m 1312.6,1930.05 v 8.43 c 20,0 30,2.54 30,7.63 v 125.97 c -8.28,-3.98 -18.76,-5.97 -31.41,-5.97 v 8.43 c 19.61,0 34.42,5.12 44.42,15.35 h 3.39 c 0.55,0 1.08,-0.21 1.59,-0.64 0.5,-0.43 0.76,-0.92 0.76,-1.47 v -141.67 c 0,-5.09 10,-7.63 30,-7.63 v -8.43 h -78.75"
               style="fill:#262626;fill-opacity:1;fill-rule:nonzero;stroke:none"
               id="path19289" /><path
               d="m 1430.49,1943.29 c 0,3.59 1.33,6.68 3.99,9.26 2.65,2.58 5.73,3.87 9.25,3.87 2.19,0 4.34,-0.59 6.45,-1.76 2.11,-1.18 3.75,-2.82 4.92,-4.93 1.17,-2.1 1.76,-4.25 1.76,-6.44 0,-3.51 -1.29,-6.6 -3.87,-9.26 -2.58,-2.65 -5.67,-3.98 -9.26,-3.98 -3.52,0 -6.6,1.33 -9.25,3.98 -2.66,2.66 -3.99,5.75 -3.99,9.26"
               style="fill:#262626;fill-opacity:1;fill-rule:nonzero;stroke:none"
               id="path19291" /><path
               d="m 1497.86,1957.36 c 1.64,-4.7 4.16,-8.95 7.56,-12.78 3.4,-3.83 7.42,-6.82 12.06,-8.97 4.66,-2.14 9.48,-3.22 14.48,-3.22 11.56,0 19.54,4.5 23.91,13.48 4.38,8.98 6.56,19.88 6.56,32.7 0,5.54 -0.09,10.21 -0.29,14 -0.2,3.79 -0.73,7.44 -1.58,10.95 -1.49,5.63 -4.08,10.55 -7.79,14.77 -3.72,4.22 -8.27,6.33 -13.66,6.33 -5.39,0 -10.02,-0.82 -13.88,-2.46 -3.87,-1.64 -7.02,-3.56 -9.44,-5.74 -2.43,-2.19 -4.58,-4.5 -6.45,-6.92 -1.88,-2.42 -3.04,-3.71 -3.51,-3.87 h -2.7 c -0.39,0 -0.88,0.26 -1.46,0.77 -0.59,0.5 -0.88,0.99 -0.88,1.46 v 80.16 c 0,0.39 0.25,0.8 0.76,1.23 0.51,0.43 1.04,0.64 1.58,0.64 h 0.71 c 10.77,-5.16 22.22,-7.73 34.33,-7.73 11.88,0 23.32,2.57 34.33,7.73 h 0.71 c 0.54,0 1.05,-0.19 1.52,-0.59 0.47,-0.39 0.71,-0.82 0.71,-1.28 v -2.23 c 0,-0.78 -0.16,-1.17 -0.48,-1.17 -5.46,-7.27 -12.32,-12.93 -20.56,-16.99 -8.24,-4.07 -16.77,-6.1 -25.6,-6.1 -6.41,0 -12.97,0.9 -19.69,2.7 v -45.35 c 5.31,4.29 10.06,7.36 14.24,9.19 4.18,1.84 9.51,2.76 15.99,2.76 8.83,0 16.74,-2.54 23.74,-7.62 6.99,-5.08 12.36,-11.7 16.11,-19.86 3.75,-8.16 5.62,-16.5 5.62,-25.02 0,-9.61 -2.36,-18.51 -7.08,-26.72 -4.73,-8.2 -11.16,-14.73 -19.29,-19.57 -8.12,-4.84 -16.95,-7.27 -26.48,-7.27 -7.89,0 -15.14,2.03 -21.73,6.1 -6.61,4.06 -11.8,9.53 -15.59,16.4 -3.79,6.88 -5.68,14.19 -5.68,21.92 0,3.6 1.17,6.52 3.5,8.79 2.35,2.27 5.28,3.4 8.79,3.4 3.52,0 6.47,-1.15 8.86,-3.46 2.38,-2.3 3.57,-5.21 3.57,-8.73 0,-3.44 -1.19,-6.35 -3.57,-8.73 -2.39,-2.39 -5.34,-3.58 -8.86,-3.58 -0.54,0 -1.16,0.06 -1.87,0.18 -0.7,0.12 -1.21,0.21 -1.52,0.3"
               style="fill:#262626;fill-opacity:1;fill-rule:nonzero;stroke:none"
               id="path19293" /><path
               d="m 1488.96,3189.9 v 6.44 c 0,0.4 0.15,0.83 0.46,1.29 l 37.27,41.25 c 5.62,6.1 10.19,11.21 13.71,15.35 3.51,4.15 6.99,8.91 10.43,14.3 3.44,5.4 6.15,10.88 8.15,16.47 1.98,5.59 2.98,11.5 2.98,17.75 0,6.56 -1.21,12.83 -3.63,18.81 -2.42,5.98 -6.04,10.76 -10.85,14.36 -4.8,3.59 -10.6,5.39 -17.39,5.39 -6.96,0 -13.21,-2.09 -18.75,-6.27 -5.55,-4.18 -9.45,-9.59 -11.72,-16.23 0.63,0.15 1.48,0.23 2.57,0.23 3.6,0 6.67,-1.21 9.2,-3.63 2.54,-2.43 3.82,-5.55 3.82,-9.38 0,-3.67 -1.28,-6.78 -3.82,-9.32 -2.53,-2.53 -5.6,-3.8 -9.2,-3.8 -3.75,0 -6.89,1.3 -9.42,3.93 -2.54,2.61 -3.81,5.68 -3.81,9.19 0,6.02 1.13,11.67 3.39,16.93 2.27,5.28 5.53,9.97 9.79,14.07 4.25,4.1 9.06,7.25 14.41,9.43 5.35,2.19 11.04,3.29 17.05,3.29 9.14,0 17.66,-1.94 25.55,-5.81 7.89,-3.86 14.14,-9.33 18.75,-16.4 4.61,-7.07 6.91,-15.33 6.91,-24.79 0,-6.95 -1.52,-13.55 -4.56,-19.8 -3.05,-6.25 -6.96,-11.94 -11.73,-17.05 -4.76,-5.12 -10.86,-10.92 -18.27,-17.4 -7.43,-6.49 -12.32,-10.82 -14.66,-13.02 l -27.19,-26.12 h 23.1 c 11.32,0 20.79,0.09 28.41,0.29 7.62,0.19 11.66,0.49 12.13,0.87 1.87,2.03 3.79,9.42 5.74,22.15 h 7.03 l -6.79,-42.77 h -89.06"
               style="fill:#262626;fill-opacity:1;fill-rule:nonzero;stroke:none"
               id="path19295" /><path
               d="m 1212.4,1897.41 c 0,-0.86 -0.35,-1.68 -1.06,-2.46 -0.7,-0.78 -1.44,-1.18 -2.22,-1.18 -1.25,0 -2.15,0.36 -2.7,1.06 l -71.36,64.22 c -10.63,-2.89 -21.68,-6.16 -33.17,-9.78 -11.48,-3.64 -22.61,-7.99 -33.39,-13.07 -10.79,-5.08 -16.18,-9.57 -16.18,-13.48 0,-3.43 0.94,-6.13 2.81,-8.08 1.88,-1.96 4.2,-3.69 6.98,-5.22 2.77,-1.52 4.28,-2.52 4.51,-2.99 v -3.28 c 0,-0.47 -0.31,-0.91 -0.94,-1.35 -0.62,-0.42 -1.21,-0.64 -1.76,-0.64 -2.89,0 -5.76,1.21 -8.61,3.63 -2.85,2.42 -5.2,5.42 -7.03,8.97 -1.84,3.55 -2.76,6.85 -2.76,9.9 0,6.95 1.25,13.24 3.75,18.86 2.5,5.63 6.53,9.89 12.07,12.78 5.24,2.42 10.92,4.79 17.06,7.09 6.13,2.31 12.65,4.51 19.56,6.63 6.92,2.11 13.5,4.06 19.75,5.85 l -67.73,60.82 c -1.09,0.86 -1.64,1.95 -1.64,3.28 0,1.02 0.33,1.88 1,2.58 0.66,0.7 1.5,1.06 2.52,1.06 1.09,0 1.95,-0.36 2.57,-1.06 l 71.37,-64.22 c 7.73,2.03 18.09,5.1 31.06,9.21 12.96,4.09 24.82,8.64 35.56,13.64 10.74,5 16.11,9.5 16.11,13.48 0,3.28 -0.96,5.94 -2.87,7.97 -1.91,2.03 -4.23,3.83 -6.97,5.39 -2.74,1.56 -4.18,2.54 -4.33,2.93 v 3.28 c 0,1.33 0.85,1.99 2.57,1.99 4.38,0 8.54,-2.58 12.48,-7.73 3.95,-5.16 5.92,-10.08 5.92,-14.77 0,-6.87 -1.23,-13.12 -3.69,-18.75 -2.46,-5.62 -6.47,-9.8 -12.01,-12.54 -13.83,-6.48 -32.62,-13.12 -56.37,-19.91 l 67.62,-60.83 c 1.01,-0.86 1.52,-1.95 1.52,-3.28"
               style="fill:#262626;fill-opacity:1;fill-rule:nonzero;stroke:none"
               id="path19297" /><path
               d="m 1665,690 63.94,62.047 63.94,62.047 63.93,62.051 63.94,62.046 63.94,62.049 63.94,62.05 63.93,62.04 63.94,62.05 63.94,62.05 63.94,62.05 63.93,62.04 63.94,62.05 63.94,62.05 63.94,62.04 63.93,62.05 63.94,62.05 63.94,62.06 63.94,62.04 63.93,62.05 63.94,62.05 63.94,62.04 63.94,62.05 63.93,62.05 63.94,62.05 63.94,62.05 63.94,62.04 63.93,62.05 63.94,62.05 63.94,62.05 63.94,62.04 63.93,62.05 63.94,62.05 63.94,62.04 63.94,62.05 63.93,62.05 63.94,62.05 63.94,62.05 63.94,62.04 63.93,62.05 63.94,62.05"
               style="fill:none;stroke:#0072bd;stroke-width:15;stroke-linecap:butt;stroke-linejoin:round;stroke-miterlimit:10;stroke-dasharray:none;stroke-opacity:1"
               id="path19299" /></g></g></g></g></g></svg>
