<?xml version="1.0" encoding="UTF-8" standalone="no"?>
<!-- Created with Inkscape (http://www.inkscape.org/) -->

<svg
   width="210.48416mm"
   height="202.98146mm"
   viewBox="0 0 210.48416 202.98146"
   version="1.1"
   id="svg5"
   xml:space="preserve"
   inkscape:version="1.2.2 (1:1.2.2+202212051550+b0a8486541)"
   sodipodi:docname="Lambda17_delta0p003_maxWt_PP.svg"
   xmlns:inkscape="http://www.inkscape.org/namespaces/inkscape"
   xmlns:sodipodi="http://sodipodi.sourceforge.net/DTD/sodipodi-0.dtd"
   xmlns="http://www.w3.org/2000/svg"
   xmlns:svg="http://www.w3.org/2000/svg"><sodipodi:namedview
     id="namedview7"
     pagecolor="#ffffff"
     bordercolor="#666666"
     borderopacity="1.0"
     inkscape:showpageshadow="2"
     inkscape:pageopacity="0.0"
     inkscape:pagecheckerboard="0"
     inkscape:deskcolor="#d1d1d1"
     inkscape:document-units="mm"
     showgrid="false"
     inkscape:zoom="0.53543895"
     inkscape:cx="335.23897"
     inkscape:cy="514.53112"
     inkscape:window-width="1872"
     inkscape:window-height="1016"
     inkscape:window-x="48"
     inkscape:window-y="27"
     inkscape:window-maximized="1"
     inkscape:current-layer="g22746" /><defs
     id="defs2"><clipPath
       clipPathUnits="userSpaceOnUse"
       id="clipPath198"><path
         d="M 0,7207.5 H 7020 V 0 H 0 Z"
         id="path196" /></clipPath><clipPath
       clipPathUnits="userSpaceOnUse"
       id="clipPath500"><path
         d="M 2812.5,4635 H 2970 v 1605 h -157.5 z"
         id="path498" /></clipPath><clipPath
       clipPathUnits="userSpaceOnUse"
       id="clipPath766"><path
         d="M 5902.5,4635 H 6060 v 1605 h -157.5 z"
         id="path764" /></clipPath><clipPath
       clipPathUnits="userSpaceOnUse"
       id="clipPath3036"><path
         d="M 0,7207.5 H 7020 V 0 H 0 Z"
         id="path3034" /></clipPath><clipPath
       clipPathUnits="userSpaceOnUse"
       id="clipPath3400"><path
         d="M 2812.5,4635 H 2970 v 1605 h -157.5 z"
         id="path3398" /></clipPath><clipPath
       clipPathUnits="userSpaceOnUse"
       id="clipPath3554"><path
         d="M 5902.5,4635 H 6060 v 1605 h -157.5 z"
         id="path3552" /></clipPath><clipPath
       clipPathUnits="userSpaceOnUse"
       id="clipPath3750"><path
         d="M 2812.5,1222.5 H 2970 v 1605 h -157.5 z"
         id="path3748" /></clipPath><clipPath
       clipPathUnits="userSpaceOnUse"
       id="clipPath3914"><path
         d="M 5902.5,1222.5 H 6060 v 1605 h -157.5 z"
         id="path3912" /></clipPath><clipPath
       clipPathUnits="userSpaceOnUse"
       id="clipPath4902"><path
         d="M 0,7207.5 H 7020 V 0 H 0 Z"
         id="path4900" /></clipPath><clipPath
       clipPathUnits="userSpaceOnUse"
       id="clipPath5266"><path
         d="M 2812.5,4635 H 2970 v 1605 h -157.5 z"
         id="path5264" /></clipPath><clipPath
       clipPathUnits="userSpaceOnUse"
       id="clipPath5420"><path
         d="M 5902.5,4635 H 6060 v 1605 h -157.5 z"
         id="path5418" /></clipPath><clipPath
       clipPathUnits="userSpaceOnUse"
       id="clipPath5616"><path
         d="M 2812.5,1222.5 H 2970 v 1605 h -157.5 z"
         id="path5614" /></clipPath><clipPath
       clipPathUnits="userSpaceOnUse"
       id="clipPath5780"><path
         d="M 5902.5,1222.5 H 6060 v 1605 h -157.5 z"
         id="path5778" /></clipPath><clipPath
       clipPathUnits="userSpaceOnUse"
       id="clipPath15256"><path
         d="M 0,7207.5 H 7020 V 0 H 0 Z"
         id="path15254" /></clipPath><clipPath
       clipPathUnits="userSpaceOnUse"
       id="clipPath15830"><path
         d="M 0,7207.5 H 7020 V 0 H 0 Z"
         id="path15828" /></clipPath><clipPath
       clipPathUnits="userSpaceOnUse"
       id="clipPath19810"><path
         d="M 0,7207.5 H 7020 V 0 H 0 Z"
         id="path19808" /></clipPath><clipPath
       clipPathUnits="userSpaceOnUse"
       id="clipPath22754"><path
         d="M 0,7207.5 H 7020 V 0 H 0 Z"
         id="path22752" /></clipPath></defs><g
     inkscape:label="Layer 1"
     inkscape:groupmode="layer"
     id="layer1"
     transform="translate(47.365097,39.270156)"><g
       id="g190"
       transform="matrix(0.0352778,0,0,-0.0352778,-37.8697,271.09)"><g
         id="g4894"
         transform="translate(174.49,1478.68)"><g
           id="g15248"
           transform="translate(-245.839,715.2)"><g
             id="g15822"
             transform="translate(856.202,-810.029)"><g
               id="g19802"
               transform="translate(-250.121,644.555)"><g
                 id="g22746"
                 transform="translate(-910.3067,44.449189)"><path
                   d="M 915,4275 H 3262.5 V 6622.5 H 915 Z"
                   style="fill:#ffffff;fill-opacity:1;fill-rule:nonzero;stroke:none"
                   id="path22760" /><path
                   d="M 915,4275 H 3262.5"
                   style="fill:none;stroke:#262626;stroke-width:12.5025;stroke-linecap:square;stroke-linejoin:round;stroke-miterlimit:10;stroke-dasharray:none;stroke-opacity:1"
                   id="path22762" /><path
                   d="M 915,6622.5 H 3262.5"
                   style="fill:none;stroke:#262626;stroke-width:12.5025;stroke-linecap:square;stroke-linejoin:round;stroke-miterlimit:10;stroke-dasharray:none;stroke-opacity:1"
                   id="path22764" /><path
                   d="m 915,4275 v 23.48"
                   style="fill:none;stroke:#262626;stroke-width:12.5025;stroke-linecap:square;stroke-linejoin:round;stroke-miterlimit:10;stroke-dasharray:none;stroke-opacity:1"
                   id="path22766" /><path
                   d="m 2458.17,4275 v 23.48"
                   style="fill:none;stroke:#262626;stroke-width:12.5025;stroke-linecap:square;stroke-linejoin:round;stroke-miterlimit:10;stroke-dasharray:none;stroke-opacity:1"
                   id="path22768" /><path
                   d="m 915,6622.5 v -23.48"
                   style="fill:none;stroke:#262626;stroke-width:12.5025;stroke-linecap:square;stroke-linejoin:round;stroke-miterlimit:10;stroke-dasharray:none;stroke-opacity:1"
                   id="path22770" /><path
                   d="m 2458.17,6622.5 v -23.48"
                   style="fill:none;stroke:#262626;stroke-width:12.5025;stroke-linecap:square;stroke-linejoin:round;stroke-miterlimit:10;stroke-dasharray:none;stroke-opacity:1"
                   id="path22772" /><path
                   d="M 915,4275 V 6622.5"
                   style="fill:none;stroke:#262626;stroke-width:12.5025;stroke-linecap:square;stroke-linejoin:round;stroke-miterlimit:10;stroke-dasharray:none;stroke-opacity:1"
                   id="path22774" /><path
                   d="M 3262.5,4275 V 6622.5"
                   style="fill:none;stroke:#262626;stroke-width:12.5025;stroke-linecap:square;stroke-linejoin:round;stroke-miterlimit:10;stroke-dasharray:none;stroke-opacity:1"
                   id="path22776" /><path
                   d="m 915,4275 h 23.477"
                   style="fill:none;stroke:#262626;stroke-width:12.5025;stroke-linecap:square;stroke-linejoin:round;stroke-miterlimit:10;stroke-dasharray:none;stroke-opacity:1"
                   id="path22778" /><path
                   d="m 915,5448.75 h 23.477"
                   style="fill:none;stroke:#262626;stroke-width:12.5025;stroke-linecap:square;stroke-linejoin:round;stroke-miterlimit:10;stroke-dasharray:none;stroke-opacity:1"
                   id="path22780" /><path
                   d="m 915,6622.5 h 23.477"
                   style="fill:none;stroke:#262626;stroke-width:12.5025;stroke-linecap:square;stroke-linejoin:round;stroke-miterlimit:10;stroke-dasharray:none;stroke-opacity:1"
                   id="path22782" /><path
                   d="m 3262.5,4275 h -23.48"
                   style="fill:none;stroke:#262626;stroke-width:12.5025;stroke-linecap:square;stroke-linejoin:round;stroke-miterlimit:10;stroke-dasharray:none;stroke-opacity:1"
                   id="path22784" /><path
                   d="m 3262.5,5448.75 h -23.48"
                   style="fill:none;stroke:#262626;stroke-width:12.5025;stroke-linecap:square;stroke-linejoin:round;stroke-miterlimit:10;stroke-dasharray:none;stroke-opacity:1"
                   id="path22786" /><path
                   d="m 3262.5,6622.5 h -23.48"
                   style="fill:none;stroke:#262626;stroke-width:12.5025;stroke-linecap:square;stroke-linejoin:round;stroke-miterlimit:10;stroke-dasharray:none;stroke-opacity:1"
                   id="path22788" /><path
                   d="m 787,4212.13 c -19.609,0 -32.949,8.07 -40.02,24.2 -7.07,16.13 -10.605,35.33 -10.605,57.59 0,13.91 1.27,26.99 3.809,39.26 2.543,12.27 7.578,22.68 15.113,31.23 7.539,8.56 18.109,12.84 31.703,12.84 10.547,0 19.176,-2.58 25.898,-7.74 6.719,-5.16 11.836,-11.82 15.352,-19.98 3.516,-8.17 5.918,-16.92 7.207,-26.25 1.289,-9.34 1.934,-19.12 1.934,-29.36 0,-13.75 -1.27,-26.62 -3.809,-38.61 -2.539,-11.99 -7.519,-22.19 -14.941,-30.58 -7.422,-8.4 -17.969,-12.6 -31.641,-12.6 z m 0,6.21 c 8.906,0 15.547,4.57 19.922,13.71 4.375,9.14 7.066,19.25 8.082,30.35 1.016,11.1 1.523,22.89 1.523,35.39 0,12.03 -0.507,23.12 -1.523,33.28 -1.016,10.16 -3.688,19.36 -8.024,27.6 -4.335,8.24 -10.996,12.36 -19.98,12.36 -9.066,0 -15.785,-4.14 -20.16,-12.42 -4.375,-8.28 -7.07,-17.48 -8.086,-27.59 -1.016,-10.12 -1.52,-21.2 -1.52,-33.23 0,-8.9 0.215,-17.3 0.645,-25.2 0.43,-7.89 1.582,-16.03 3.457,-24.43 1.875,-8.39 4.902,-15.46 9.082,-21.2 4.18,-5.75 9.707,-8.62 16.582,-8.62"
                   style="fill:#262626;fill-opacity:1;fill-rule:nonzero;stroke:none"
                   id="path22790" /><path
                   d="m 600.332,5385.88 c -19.609,0 -32.949,8.07 -40.019,24.2 -7.071,16.13 -10.606,35.33 -10.606,57.59 0,13.91 1.27,26.99 3.809,39.26 2.543,12.27 7.578,22.68 15.113,31.23 7.543,8.56 18.109,12.84 31.703,12.84 10.547,0 19.18,-2.58 25.898,-7.74 6.719,-5.16 11.836,-11.82 15.352,-19.98 3.516,-8.17 5.918,-16.92 7.207,-26.25 1.289,-9.34 1.938,-19.12 1.938,-29.36 0,-13.75 -1.274,-26.62 -3.813,-38.61 -2.539,-11.99 -7.519,-22.19 -14.937,-30.58 -7.426,-8.4 -17.973,-12.6 -31.645,-12.6 z m 0,6.21 c 8.906,0 15.547,4.57 19.922,13.71 4.375,9.14 7.07,19.25 8.082,30.35 1.016,11.1 1.523,22.89 1.523,35.39 0,12.03 -0.507,23.12 -1.523,33.28 -1.012,10.16 -3.688,19.36 -8.023,27.6 -4.336,8.24 -10.997,12.36 -19.981,12.36 -9.066,0 -15.785,-4.14 -20.16,-12.42 -4.375,-8.28 -7.07,-17.48 -8.086,-27.59 -1.012,-10.12 -1.52,-21.2 -1.52,-33.23 0,-8.9 0.215,-17.3 0.645,-25.2 0.43,-7.89 1.582,-16.03 3.457,-24.43 1.875,-8.39 4.902,-15.46 9.082,-21.2 4.18,-5.75 9.707,-8.62 16.582,-8.62"
                   style="fill:#262626;fill-opacity:1;fill-rule:nonzero;stroke:none"
                   id="path22792" /><path
                   d="m 680.492,5404.39 c 0,3.59 1.328,6.68 3.985,9.26 2.652,2.58 5.738,3.87 9.253,3.87 2.192,0 4.34,-0.59 6.45,-1.76 2.105,-1.17 3.746,-2.81 4.922,-4.92 1.168,-2.11 1.753,-4.26 1.753,-6.45 0,-3.51 -1.289,-6.6 -3.863,-9.26 -2.578,-2.65 -5.668,-3.98 -9.262,-3.98 -3.515,0 -6.601,1.33 -9.253,3.98 -2.657,2.66 -3.985,5.75 -3.985,9.26"
                   style="fill:#262626;fill-opacity:1;fill-rule:nonzero;stroke:none"
                   id="path22794" /><path
                   d="m 747.859,5418.46 c 1.637,-4.69 4.157,-8.95 7.559,-12.78 3.398,-3.82 7.422,-6.81 12.066,-8.97 4.653,-2.14 9.477,-3.21 14.477,-3.21 11.562,0 19.535,4.49 23.91,13.47 4.375,8.98 6.563,19.88 6.563,32.7 0,5.54 -0.098,10.21 -0.293,14 -0.2,3.79 -0.727,7.44 -1.582,10.96 -1.485,5.62 -4.082,10.55 -7.793,14.76 -3.715,4.22 -8.27,6.33 -13.657,6.33 -5.39,0 -10.019,-0.82 -13.882,-2.46 -3.872,-1.64 -7.016,-3.55 -9.438,-5.74 -2.426,-2.19 -4.574,-4.5 -6.449,-6.91 -1.875,-2.43 -3.043,-3.72 -3.512,-3.88 h -2.699 c -0.391,0 -0.875,0.26 -1.461,0.77 -0.586,0.5 -0.879,0.99 -0.879,1.46 v 80.16 c 0,0.39 0.254,0.8 0.758,1.23 0.512,0.43 1.039,0.65 1.582,0.65 h 0.707 c 10.777,-5.16 22.223,-7.74 34.336,-7.74 11.875,0 23.316,2.58 34.332,7.74 h 0.707 c 0.543,0 1.051,-0.2 1.523,-0.59 0.469,-0.39 0.704,-0.82 0.704,-1.29 v -2.23 c 0,-0.78 -0.157,-1.17 -0.473,-1.17 -5.465,-7.27 -12.32,-12.93 -20.567,-16.99 -8.238,-4.07 -16.773,-6.1 -25.601,-6.1 -6.406,0 -12.969,0.9 -19.688,2.7 v -45.35 c 5.313,4.29 10.063,7.36 14.243,9.2 4.179,1.84 9.507,2.75 15.988,2.75 8.832,0 16.742,-2.54 23.738,-7.61 6.988,-5.09 12.36,-11.7 16.11,-19.86 3.75,-8.17 5.625,-16.51 5.625,-25.03 0,-9.61 -2.364,-18.51 -7.086,-26.72 -4.731,-8.2 -11.161,-14.73 -19.286,-19.57 -8.125,-4.84 -16.953,-7.26 -26.48,-7.26 -7.891,0 -15.137,2.03 -21.734,6.09 -6.606,4.06 -11.801,9.53 -15.586,16.41 -3.789,6.87 -5.688,14.18 -5.688,21.91 0,3.6 1.172,6.53 3.512,8.79 2.344,2.27 5.273,3.4 8.789,3.4 3.516,0 6.465,-1.15 8.851,-3.46 2.383,-2.3 3.579,-5.21 3.579,-8.73 0,-3.44 -1.196,-6.35 -3.579,-8.73 -2.386,-2.38 -5.335,-3.58 -8.851,-3.58 -0.543,0 -1.168,0.07 -1.875,0.18 -0.699,0.12 -1.207,0.22 -1.52,0.3"
                   style="fill:#262626;fill-opacity:1;fill-rule:nonzero;stroke:none"
                   id="path22796" /><path
                   d="m 749.266,6564.9 v 8.44 c 20,0 30,2.54 30,7.62 v 125.97 c -8.282,-3.98 -18.754,-5.97 -31.407,-5.97 v 8.43 c 19.61,0 34.414,5.12 44.414,15.36 h 3.399 c 0.547,0 1.074,-0.22 1.582,-0.65 0.508,-0.43 0.762,-0.92 0.762,-1.47 v -141.67 c 0,-5.08 10,-7.62 30,-7.62 v -8.44 h -78.75"
                   style="fill:#262626;fill-opacity:1;fill-rule:nonzero;stroke:none"
                   id="path22798" /><path
                   d="m 418.219,5406.6 c 0,-2.19 -0.684,-4.05 -2.047,-5.57 -1.367,-1.52 -3.145,-2.28 -5.336,-2.28 -1.012,0 -1.793,0.07 -2.34,0.23 l -78.285,19.57 c -4.918,1.33 -9.215,1.99 -12.891,1.99 -7.5,0 -11.25,-2.58 -11.25,-7.73 0,-5.47 3.262,-9.53 9.789,-12.18 6.524,-2.66 14.786,-5.2 24.786,-7.63 0.546,0 0.976,-0.27 1.289,-0.81 0.312,-0.55 0.464,-1.03 0.464,-1.41 v -3.05 c 0,-0.62 -0.332,-1.15 -0.996,-1.58 -0.664,-0.43 -1.23,-0.65 -1.695,-0.65 -7.66,1.88 -14.125,3.7 -19.394,5.46 -5.274,1.75 -10.102,4.49 -14.477,8.19 -4.375,3.72 -6.563,8.35 -6.563,13.89 0,6.49 2.051,12.29 6.153,17.41 4.105,5.11 9.398,7.68 15.883,7.68 -6.797,5.07 -12.172,11.07 -16.118,17.98 -3.945,6.91 -5.918,14.43 -5.918,22.56 0,9.14 2.461,16.46 7.383,21.97 4.922,5.51 11.918,8.26 20.977,8.26 5.234,0 10.039,-0.58 14.414,-1.76 l 121.523,-30.47 c 2.5,-0.54 4.512,-1.83 6.039,-3.86 1.524,-2.03 2.286,-4.33 2.286,-6.92 0,-2.1 -0.645,-3.94 -1.934,-5.5 -1.289,-1.57 -3.07,-2.35 -5.332,-2.35 -1.016,0 -1.68,0.08 -1.996,0.24 l -121.051,30.11 c -7.191,1.8 -13.168,2.7 -17.934,2.7 -4.843,0 -8.984,-1.02 -12.418,-3.05 -3.441,-2.03 -5.16,-5.31 -5.16,-9.84 0,-17.19 10.586,-31.45 31.762,-42.78 l 71.715,-17.81 c 2.344,-0.63 4.379,-1.99 6.098,-4.09 1.714,-2.11 2.574,-4.42 2.574,-6.92"
                   style="fill:#262626;fill-opacity:1;fill-rule:nonzero;stroke:none"
                   id="path22800" /><path
                   d="m 915,6622.5 0.523,-0.6 2.329,-2.63 7.25,-7.99 20.882,-22.37 56.626,-57.66 138.2,-126.71 238.93,-183.03 78.87,-54.04 -208.25,142.78 -139.9,112.05 26.85,-24.48 194.37,-151.85 178.13,-118.79 -158.83,100.84 -164.81,121.11 40.9,-33.92 221.3,-156.99 61.82,-40.54 -208.71,135.46 -62.55,44.5 171.71,-122.97 147.31,-92.87 -180.5,110.27 -97.01,66.18 154.68,-107.42 141.41,-87.33 -177.23,105.92 -72.5,47.29 176.97,-116.44 71.45,-43.92 -186.48,111.65 6.64,-6.32 196.73,-120.89 -63.86,34.19 -140.32,84.77 126.09,-80.48 110.4,-64.63 -171.12,96.69 6.76,-6.19 179.94,-105.12 -100.5,53.29 -87.81,50.12 166.41,-98.08 -8.03,2.02 -137.79,76.59 125.49,-74.16 57.96,-33.25 -152.79,82.23 88.99,-52.53 91.38,-50.48 -151.3,79.23 68.7,-40.33 100.27,-54.44 -146.27,74.97 66.94,-38.58 90.94,-48.84 -141.39,71.3 81.84,-45.72 64.05,-34.53 -131.79,65.53 107.77,-58.14 18.14,-11.33 -107.21,52.39 132.71,-69.26 -43.04,18.6 -57.5,26.74 135.43,-68.69 -100.55,46.18 17.55,-11 91.38,-45.95 -119.85,55.33 95.28,-48.49 -1.72,-1.58 -71.11,31.8 124.52,-60.87 -92.78,40.64 32.01,-17.46 58.94,-29.36 -98.53,43.3 113.01,-54.36 -61.35,25.26 2.48,-3.47 73.55,-35.27 -97.61,41.56 104.54,-49.23 -57.45,22.87 9.27,-6.49 58.06,-27.71 -84.22,34.6 104.39,-47.83 -76.14,30.35 45.16,-21.97 12.88,-7.9 -46.42,17.55 87.54,-39.4 -87.62,34.55 87.64,-39.29 -53.18,19.66 27.26,-13.79 19.68,-10.53 -42.21,15.07 76.3,-33.57 -77.93,29.36 87.21,-37.8 -66.94,24.48 56.81,-25.28 -23.83,7.03 7.72,-5.48 26.09,-12.73 -37.02,12.2 62.81,-26.99 -63.5,22.35 78.06,-32.68 -68.71,24.05 73.64,-30.72 -57.05,19.31 56.25,-23.85 -36.09,11.17 33.38,-15.02 -12.7,2.28 10.77,-6.45 8.49,-5.61 -8.3,0.64 25.2,-11.72 -22.58,5.83 37.05,-15.94 -32.2,9.23 44.53,-18.52 -37.91,11.17 48.56,-19.82 -40.65,12.01 50.06,-20.18 -41.2,12.05 49.62,-19.86 -40,11.49 47.57,-18.99 -37.19,10.39 43.85,-17.56 -32.62,8.7 38.24,-15.52 -25.96,6.34 30.33,-12.73 -16.84,3.2 19.89,-9.15 -5.14,-0.75 6.98,-4.8 8.77,-5.36 -7.6,0.01 23.6,-10.16 -22.06,4.69 36.95,-14.42 -33.5,8.31 45.47,-17.05 -38.34,9.75 45.62,-16.98 -33.45,8.09 35.17,-13.58 -17.84,3.11 15.07,-7.21 5.39,-4.14 -9.17,0.33 28.35,-11.18 -28.07,6.09 40.55,-14.82 -31.67,7.11 34.18,-12.83 -15.93,2.29 10.73,-5.72 11.87,-6.01 -16.63,2.43 33.93,-12.49 -28.83,5.97 33.05,-12.17 -14.82,1.82 8.31,-4.92 15.26,-6.88 -19.61,3.12 33.75,-12.13 -23.4,4.15 20.97,-8.45 2.41,-3.18 -10.18,0.35 29.11,-10.61 -23.18,3.92 23.28,-8.95 -0.5,-2.35 -8.02,-0.32 27.35,-9.95 -20.85,3.15 19.26,-7.73 4.71,-3.76 -12.37,0.8 27.66,-9.87 -15.32,1.55 8.66,-4.81 15.84,-6.65 -17.84,2.15 22.89,-8.49 -1.42,-2.13 -7.52,-0.58 24.56,-8.81 -12.73,0.73 5.42,-3.9 18.02,-7.06 -15.86,1.48 14.79,-6.24 9.42,-4.85 -13.74,0.89 19.44,-7.33 2.48,-3.12 -9.94,-0.08 20.73,-7.58 -1.73,-2.09 -6.72,-0.9 20.42,-7.43 -3.5,-1.68 -4.99,-1.34 19.64,-7.18 -3.35,-1.72 -4.9,-1.37 18.75,-6.91 -1.57,-2.16 -6.14,-1.1 17.41,-6.54 1.79,-2.93 -8.02,-0.7 14.88,-5.91 6.51,-3.99 -9.23,-0.45 10.25,-4.83 11.71,-5.13 -8.06,-0.74 3.45,-3.29 15.18,-5.87 -2.92,-1.88 -3.74,-1.72 14,-5.57 5.53,-3.71 -7.27,-0.98 6.83,-4 12.82,-5.25 -3.18,-1.86 -2.65,-1.97 12.37,-5.13 6.89,-3.96 -5.8,-1.33 2.98,-3.15 12.82,-5.17 2.27,-3 -5.03,-1.51 6.21,-3.8 11.55,-4.86 0.29,-2.6 -3.84,-1.77 7.02,-3.93 10.68,-4.64 0.34,-2.62 -3.37,-1.87 6.12,-3.74 10.48,-4.56 2,-2.93 -3.32,-1.9 3.7,-3.25 10.14,-4.47 5.03,-3.5 -2.37,-2.09 0.3,-2.59 8.04,-4.05 8.28,-4.07 1.05,-2.74 -2.05,-2.17 3.32,-3.16 8.69,-4.12 6.35,-3.69 0.1,-2.56 -1.14,-2.35 3.92,-3.25 8.14,-3.98 6.14,-3.64 0.88,-2.7 -0.89,-2.38 2.68,-3.02 6.97,-3.75 7.02,-3.76 3.1,-3.07 -0.21,-2.52 0.56,-2.64 4.23,-3.27 6.91,-3.71 6.05,-3.56 2.79,-3.01 0.32,-2.61 0.79,-2.68 3.48,-3.12 5.94,-3.52 6.22,-3.56 4.3,-3.25 1.84,-2.84 0.72,-2.67 1.53,-2.8 3.57,-3.12 5.32,-3.39 5.75,-3.45 4.74,-3.3 3.05,-3.02 1.68,-2.81 1.32,-2.76 2.02,-2.87 3.31,-3.05 4.51,-3.24 5.1,-3.32 4.93,-3.29 4.18,-3.17 3.2,-3.04 2.37,-2.91 1.97,-2.84 2.02,-2.86 2.46,-2.91 3.08,-3 3.68,-3.09 4.14,-3.15 4.37,-3.17 4.34,-3.18 4.15,-3.13 3.84,-3.1 3.51,-3.05 3.18,-3 2.96,-2.96 2.79,-2.94 2.71,-2.93 2.73,-2.92 2.77,-2.95 2.85,-2.93 2.95,-2.96 3.04,-2.97 3.13,-2.98 3.19,-2.98 3.25,-2.98 3.29,-2.99 3.3,-2.99 3.32,-2.99 3.32,-2.99 3.31,-2.98 3.3,-2.99 3.29,-2.97 3.28,-2.98 3.28,-2.97 3.28,-2.97 3.29,-2.97 3.31,-2.97 3.35,-2.97 3.39,-2.97 3.44,-2.98 3.52,-2.99 3.57,-2.99 3.64,-2.99 3.68,-3 3.67,-2.99 3.64,-2.99 3.53,-2.96 3.36,-2.96 3.14,-2.92 2.9,-2.9 2.69,-2.87 2.57,-2.86 2.59,-2.86 2.78,-2.88 3.12,-2.91 3.52,-2.95 3.87,-2.99 4.02,-3 3.83,-2.98 3.39,-2.93 2.8,-2.86 2.37,-2.83 2.35,-2.82 2.81,-2.86 3.53,-2.94 4.1,-2.99 4.07,-2.98 3.4,-2.91 2.54,-2.84 2.14,-2.79 2.63,-2.83 3.62,-2.94 4.27,-2.98 3.82,-2.95 2.7,-2.83 2.03,-2.78 2.66,-2.83 3.93,-2.94 4.28,-2.98 3.17,-2.88 2,-2.76 2.46,-2.81 3.97,-2.94 4.26,-2.95 2.78,-2.83 1.88,-2.75 3.17,-2.87 4.43,-2.96 3.34,-2.87 1.84,-2.75 2.9,-2.83 4.47,-2.96 3.23,-2.86 1.77,-2.72 3.36,-2.87 4.41,-2.95 2.43,-2.78 2.14,-2.76 4.34,-2.93 3.39,-2.86 1.74,-2.72 3.83,-2.89 3.92,-2.89 1.72,-2.73 3.58,-2.85 4.03,-2.9 1.69,-2.71 3.76,-2.88 3.72,-2.85 1.71,-2.73 4.3,-2.9 2.84,-2.79 2.3,-2.76 4.48,-2.91 1.78,-2.71 3.8,-2.86 3.2,-2.82 2.24,-2.74 4.39,-2.9 1.65,-2.7 4.36,-2.88 2.13,-2.74 3.64,-2.83 2.91,-2.78 2.9,-2.78 3.5,-2.82 2.45,-2.76 3.81,-2.83 2.28,-2.74 3.85,-2.82 2.33,-2.75 3.67,-2.81 2.65,-2.76 3.19,-2.79 3.27,-2.78 2.45,-2.75 4.04,-2.83 1.8,-2.7 4.35,-2.84 2.03,-2.71 3.45,-2.8 3.44,-2.78 1.98,-2.71 4.25,-2.83 2.39,-2.73 2.68,-2.74 4.15,-2.81 2.14,-2.72 0.2,-0.06"
                   style="fill:none;stroke:#0072bd;stroke-width:15;stroke-linecap:butt;stroke-linejoin:round;stroke-miterlimit:10;stroke-dasharray:none;stroke-opacity:1"
                   id="path22802" /><path
                   d="m 1472.06,6116.61 7.93,-7.21 7.82,-7.1 7.72,-7.01 7.61,-6.92 7.53,-6.84 7.44,-6.76 7.34,-6.67 7.27,-6.61 7.19,-6.53 7.12,-6.46 7.04,-6.39 6.97,-6.34 6.91,-6.27 6.83,-6.21 6.78,-6.16 6.72,-6.11 6.65,-6.04 6.61,-6 6.54,-5.95 6.5,-5.89 6.44,-5.86 6.39,-5.8 6.34,-5.77 6.3,-5.72 6.25,-5.67 6.2,-5.64 6.17,-5.6 6.12,-5.56 6.07,-5.52 6.04,-5.49 6,-5.45 5.96,-5.42 5.93,-5.37 5.89,-5.36 5.86,-5.32 5.81,-5.27 5.78,-5.26 5.75,-5.22 5.73,-5.2 5.68,-5.17 5.66,-5.13 5.62,-5.11 5.59,-5.09 5.57,-5.05 5.54,-5.04 5.51,-5 5.48,-4.98 5.45,-4.95 5.43,-4.93 5.4,-4.92 5.38,-4.88 5.35,-4.86 5.33,-4.84 5.3,-4.82 5.28,-4.79 5.26,-4.78 5.23,-4.75 5.21,-4.73 5.19,-4.71 5.17,-4.7 5.14,-4.67 5.12,-4.66 5.11,-4.63 5.08,-4.63 5.06,-4.59 5.04,-4.59 5.03,-4.55 5,-4.55 4.99,-4.53 4.96,-4.51 4.94,-4.5 4.94,-4.48 4.9,-4.46 4.9,-4.44 4.88,-4.43 4.86,-4.42 4.84,-4.39 4.83,-4.39 4.8,-4.36 4.79,-4.36 4.78,-4.34 4.77,-4.32 4.74,-4.32 4.73,-4.29 4.71,-4.29 4.7,-4.26 4.69,-4.27 4.67,-4.23 4.65,-4.23 4.64,-4.22 4.63,-4.2 4.61,-4.2 4.6,-4.17 4.59,-4.17 4.57,-4.15 4.56,-4.14 4.54,-4.13 4.53,-4.11 4.52,-4.11 4.51,-4.1 4.49,-4.08 4.49,-4.07 4.47,-4.06 4.45,-4.05 4.45,-4.03 4.43,-4.03 4.42,-4.02 4.41,-4.01 4.4,-3.99 4.39,-3.99 4.37,-3.97 4.36,-3.96 4.35,-3.96 4.35,-3.94 4.33,-3.94 4.32,-3.92 4.31,-3.91 4.29,-3.91 4.29,-3.89 4.28,-3.89 4.27,-3.88 4.25,-3.87 4.25,-3.85 4.24,-3.85 4.22,-3.84 4.22,-3.83 4.21,-3.83 4.19,-3.81 4.2,-3.81 4.17,-3.79 4.17,-3.79 4.16,-3.78 4.15,-3.76 4.14,-3.77 4.14,-3.76 4.12,-3.74 4.11,-3.73 4.11,-3.74 4.09,-3.72 4.09,-3.71 4.08,-3.71 4.08,-3.69 4.06,-3.69 4.05,-3.69 4.05,-3.68 4.04,-3.67 4.02,-3.66 4.02,-3.65 4.01,-3.64 4.01,-3.64 4,-3.63 3.99,-3.62 3.98,-3.62 3.98,-3.61 3.95,-3.61 3.97,-3.59 3.95,-3.59 3.94,-3.59 3.93,-3.57 3.93,-3.57 3.92,-3.56 6.56,-3.55 3.91,-3.55 3.91,-3.55 3.89,-3.53 3.9,-3.53 3.88,-3.52 3.88,-3.52 3.88,-3.51 3.86,-3.5 3.86,-3.5 3.86,-3.49 3.85,-3.49 3.84,-3.48 3.83,-3.47 3.82,-3.46 3.83,-3.46 3.82,-3.46 3.8,-3.45 3.81,-3.44 3.79,-3.44 3.79,-3.43 3.79,-3.43 3.78,-3.42 3.77,-3.41 3.77,-3.41 3.75,-3.4 3.76,-3.4 3.75,-3.4 3.74,-3.38 3.74,-3.38 3.73,-3.38 3.72,-3.37 3.72,-3.36 3.72,-3.36 3.7,-3.35 3.71,-3.36 3.69,-3.34 3.69,-3.34 3.69,-3.34 3.68,-3.32 3.66,-3.33 3.68,-3.31 3.66,-3.32 3.65,-3.31 3.65,-3.3 3.66,-3.3 3.63,-3.29 3.64,-3.29 3.63,-3.29 3.62,-3.27 3.62,-3.27 3.61,-3.27 3.61,-3.27 3.61,-3.26 3.6,-3.25 3.59,-3.26 3.59,-3.25 3.58,-3.24 3.58,-3.23 3.57,-3.23 3.57,-3.24 3.56,-3.21 3.56,-3.22 3.55,-3.22 3.54,-3.21 3.54,-3.2 3.54,-3.2 3.54,-3.2 3.52,-3.19 3.53,-3.19 3.51,-3.19 3.51,-3.18 3.51,-3.17 3.51,-3.17 3.49,-3.17 3.49,-3.16 3.49,-3.16 3.48,-3.15 3.48,-3.15 3.48,-3.15 3.47,-3.14 3.46,-3.14 3.46,-3.13 3.46,-3.13 3.45,-3.13 3.44,-3.12 3.44,-3.12 3.44,-3.11 3.43,-3.11 3.43,-3.11 3.42,-3.1 3.42,-3.1 3.41,-3.09 3.41,-3.09 3.41,-3.09 3.41,-3.08 3.39,-3.08 3.39,-3.08 3.38,-3.07 3.39,-3.07 3.38,-3.06 3.38,-3.06 3.36,-3.06 3.37,-3.06 3.36,-3.05 3.36,-3.04 3.35,-3.05 3.36,-3.04 3.33,-3.03 3.35,-3.03 3.33,-3.03 3.34,-3.02 3.32,-3.03 3.33,-3.01 3.32,-3.02 3.32,-3.01 3.3,-3.01 3.31,-3 3.31,-3.01 3.3,-2.99 3.29,-2.99 3.29,-3 3.29,-2.99 3.28,-2.97 3.28,-2.99 3.28,-2.98 3.27,-2.98 3.27,-2.96 3.26,-2.97 3.25,-2.97 3.27,-2.96 3.25,-2.96 3.24,-2.95 3.25,-2.96 3.24,-2.94 3.23,-2.94 3.24,-2.95 3.23,-2.94 3.22,-2.93 3.23,-2.93 3.21,-2.94 3.21,-2.92 3.22,-2.93 3.21,-2.92 3.2,-2.91 3.19,-2.92 3.2,-2.91 3.19,-2.91 3.19,-2.9 3.18,-2.9 3.19,-2.91 3.17,-2.89 3.17,-2.9 3.18,-2.89 3.16,-2.89 3.16,-2.88 3.16,-2.89 3.16,-2.87 3.15,-2.88 3.15,-2.87 3.15,-2.88 3.14,-2.86 3.14,-2.87 3.13,-2.86 3.13,-2.86 3.13,-2.85 3.13,-2.86 3.11,-2.85 3.12,-2.85 3.12,-2.85 3.11,-2.84 3.11,-2.84 3.1,-2.84 3.1,-2.83 3.09,-2.83 3.1,-2.83 3.09,-2.83 3.09,-2.82 3.09,-2.82 3.08,-2.82 3.07,-2.82 3.08,-2.81 3.06,-2.81 3.08,-2.81 3.06,-2.81 3.06,-2.8 3.06,-2.8 3.05,-2.79 3.06,-2.8 3.05,-2.79 3.04,-2.79 3.04,-2.79 3.05,-2.78 3.02,-2.79 3.04,-2.78 3.03,-2.77 3.02,-2.78 3.03,-2.77 3.02,-2.77 3.02,-2.77 3.01,-2.77 3.01,-2.76 3.01,-2.76 3,-2.76 3,-2.76 3,-2.75 3,-2.74 2.99,-2.76 2.99,-2.74 2.99,-2.75 2.98,-2.73 2.99,-2.74 2.97,-2.74 2.97,-2.74 2.98,-2.73 2.97,-2.73 2.96,-2.73 2.97,-2.72 2.96,-2.72 2.95,-2.72 2.96,-2.72 2.95,-2.71 2.95,-2.72 2.94,-2.71 2.95,-2.7 2.94,-2.71 2.93,-2.71 2.93,-2.7 2.93,-2.7 2.94,-2.7 2.92,-2.69 2.93,-2.7 2.92,-2.69 2.91,-2.69 2.91,-2.69 2.92,-2.68 2.91,-2.68 2.9,-2.68 2.9,-2.68 2.91,-2.67 2.89,-2.68 2.9,-2.67 2.89,-2.67 2.89,-2.67 2.89,-2.66 2.88,-2.66 2.89,-2.67 2.88,-2.65 2.87,-2.66 2.87,-2.66 2.87,-2.64 2.87,-2.66 2.87,-2.65 2.86,-2.65 2.86,-2.63 2.86,-2.64 2.86,-2.64 2.85,-2.65 2.85,-2.64 2.85,-2.63 2.84,-2.63 2.84,-2.63 2.84,-2.63 2.84,-2.62 2.83,-2.63 2.83,-2.62 2.83,-2.62 2.83,-2.62 2.82,-2.62 2.82,-2.61 2.82,-2.61 2.82,-2.61 2.82,-2.61 2.81,-2.61 2.8,-2.6 2.81,-2.6 2.8,-2.6 2.81,-2.6 2.8,-2.6 2.8,-2.59 2.78,-2.6 2.8,-2.59 2.79,-2.58 2.79,-2.59 2.78,-2.59 2.78,-2.58 2.78,-2.59 2.78,-2.58 2.77,-2.57 2.78,-2.58 2.76,-2.57 2.77,-2.58 2.77,-2.57 2.76,-2.56 2.77,-2.57 2.75,-2.57 2.76,-2.56 2.75,-2.56 2.76,-2.56 2.74,-2.56 0.06,-0.06"
                   style="fill:none;stroke:#ff0000;stroke-width:15;stroke-linecap:butt;stroke-linejoin:bevel;stroke-miterlimit:10;stroke-dasharray:60, 60;stroke-dashoffset:0;stroke-opacity:1"
                   id="path22804" /><path
                   d="M 2292.94,4488.11 V 6622.5"
                   style="fill:none;stroke:#000000;stroke-width:15;stroke-linecap:butt;stroke-linejoin:bevel;stroke-miterlimit:10;stroke-dasharray:60, 60;stroke-dashoffset:0;stroke-opacity:1"
                   id="path22806" /><path
                   d="m 3555.0003,4275 h 2347.5 v 2347.5 h -2347.5 z"
                   style="fill:#ffffff;fill-opacity:1;fill-rule:nonzero;stroke:none"
                   id="path22808" /><path
                   d="m 3555.0003,4275 h 2347.5"
                   style="fill:none;stroke:#262626;stroke-width:12.5025;stroke-linecap:square;stroke-linejoin:round;stroke-miterlimit:10;stroke-dasharray:none;stroke-opacity:1"
                   id="path22810" /><path
                   d="m 3555.0003,6622.5 h 2347.5"
                   style="fill:none;stroke:#262626;stroke-width:12.5025;stroke-linecap:square;stroke-linejoin:round;stroke-miterlimit:10;stroke-dasharray:none;stroke-opacity:1"
                   id="path22812" /><path
                   d="m 3555.0003,4275 v 23.48"
                   style="fill:none;stroke:#262626;stroke-width:12.5025;stroke-linecap:square;stroke-linejoin:round;stroke-miterlimit:10;stroke-dasharray:none;stroke-opacity:1"
                   id="path22814" /><path
                   d="m 4728.7503,4275 v 23.48"
                   style="fill:none;stroke:#262626;stroke-width:12.5025;stroke-linecap:square;stroke-linejoin:round;stroke-miterlimit:10;stroke-dasharray:none;stroke-opacity:1"
                   id="path22816" /><path
                   d="m 5902.5003,4275 v 23.48"
                   style="fill:none;stroke:#262626;stroke-width:12.5025;stroke-linecap:square;stroke-linejoin:round;stroke-miterlimit:10;stroke-dasharray:none;stroke-opacity:1"
                   id="path22818" /><path
                   d="m 3555.0003,6622.5 v -23.48"
                   style="fill:none;stroke:#262626;stroke-width:12.5025;stroke-linecap:square;stroke-linejoin:round;stroke-miterlimit:10;stroke-dasharray:none;stroke-opacity:1"
                   id="path22820" /><path
                   d="m 4728.7503,6622.5 v -23.48"
                   style="fill:none;stroke:#262626;stroke-width:12.5025;stroke-linecap:square;stroke-linejoin:round;stroke-miterlimit:10;stroke-dasharray:none;stroke-opacity:1"
                   id="path22822" /><path
                   d="m 5902.5003,6622.5 v -23.48"
                   style="fill:none;stroke:#262626;stroke-width:12.5025;stroke-linecap:square;stroke-linejoin:round;stroke-miterlimit:10;stroke-dasharray:none;stroke-opacity:1"
                   id="path22824" /><path
                   d="m 3337.7003,4049.82 v 14.88 h 63.51 v -14.88 h -63.51"
                   style="fill:#262626;fill-opacity:1;fill-rule:nonzero;stroke:none"
                   id="path22826" /><path
                   d="m 3437.2703,4005.4 v 8.44 c 20,0 30,2.54 30,7.62 v 125.97 c -8.29,-3.98 -18.75,-5.97 -31.41,-5.97 v 8.43 c 19.61,0 34.41,5.12 44.41,15.36 h 3.41 c 0.54,0 1.07,-0.22 1.57,-0.65 0.51,-0.43 0.77,-0.92 0.77,-1.47 v -141.67 c 0,-5.08 10,-7.62 30,-7.62 v -8.44 h -78.75"
                   style="fill:#262626;fill-opacity:1;fill-rule:nonzero;stroke:none"
                   id="path22828" /><path
                   d="m 3595.0003,4000.13 c -19.61,0 -32.95,8.07 -40.02,24.2 -7.07,16.13 -10.61,35.33 -10.61,57.59 0,13.91 1.27,26.99 3.81,39.26 2.54,12.27 7.58,22.68 15.12,31.23 7.54,8.56 18.11,12.84 31.7,12.84 10.55,0 19.18,-2.58 25.89,-7.74 6.72,-5.16 11.84,-11.82 15.36,-19.98 3.51,-8.17 5.91,-16.92 7.21,-26.25 1.29,-9.34 1.93,-19.12 1.93,-29.36 0,-13.75 -1.27,-26.62 -3.81,-38.61 -2.54,-11.99 -7.52,-22.19 -14.94,-30.58 -7.42,-8.4 -17.97,-12.6 -31.64,-12.6 z m 0,6.21 c 8.91,0 15.55,4.57 19.93,13.71 4.37,9.14 7.07,19.25 8.08,30.35 1.01,11.1 1.52,22.89 1.52,35.39 0,12.03 -0.51,23.12 -1.52,33.28 -1.01,10.16 -3.69,19.36 -8.03,27.6 -4.34,8.24 -11,12.36 -19.98,12.36 -9.06,0 -15.78,-4.14 -20.16,-12.42 -4.37,-8.28 -7.07,-17.48 -8.08,-27.59 -1.01,-10.12 -1.52,-21.2 -1.52,-33.23 0,-8.9 0.21,-17.3 0.64,-25.2 0.42,-7.89 1.58,-16.03 3.45,-24.43 1.88,-8.39 4.9,-15.46 9.08,-21.2 4.18,-5.75 9.71,-8.62 16.59,-8.62"
                   style="fill:#262626;fill-opacity:1;fill-rule:nonzero;stroke:none"
                   id="path22830" /><path
                   d="m 3715.0003,4000.13 c -19.61,0 -32.95,8.07 -40.02,24.2 -7.07,16.13 -10.61,35.33 -10.61,57.59 0,13.91 1.27,26.99 3.81,39.26 2.54,12.27 7.58,22.68 15.12,31.23 7.54,8.56 18.11,12.84 31.7,12.84 10.55,0 19.18,-2.58 25.89,-7.74 6.73,-5.16 11.84,-11.82 15.36,-19.98 3.51,-8.17 5.91,-16.92 7.21,-26.25 1.29,-9.34 1.93,-19.12 1.93,-29.36 0,-13.75 -1.27,-26.62 -3.81,-38.61 -2.54,-11.99 -7.52,-22.19 -14.94,-30.58 -7.42,-8.4 -17.97,-12.6 -31.64,-12.6 z m 0,6.21 c 8.91,0 15.55,4.57 19.93,13.71 4.37,9.14 7.07,19.25 8.08,30.35 1.01,11.1 1.52,22.89 1.52,35.39 0,12.03 -0.51,23.12 -1.52,33.28 -1.01,10.16 -3.69,19.36 -8.03,27.6 -4.34,8.24 -11,12.36 -19.98,12.36 -9.06,0 -15.78,-4.14 -20.16,-12.42 -4.37,-8.28 -7.07,-17.48 -8.08,-27.59 -1.01,-10.12 -1.52,-21.2 -1.52,-33.23 0,-8.9 0.21,-17.3 0.64,-25.2 0.43,-7.89 1.58,-16.03 3.45,-24.43 1.88,-8.39 4.9,-15.46 9.08,-21.2 4.18,-5.75 9.71,-8.62 16.59,-8.62"
                   style="fill:#262626;fill-opacity:1;fill-rule:nonzero;stroke:none"
                   id="path22832" /><path
                   d="m 4728.7503,4000.13 c -19.61,0 -32.95,8.07 -40.02,24.2 -7.07,16.13 -10.6,35.33 -10.6,57.59 0,13.91 1.26,26.99 3.8,39.26 2.55,12.27 7.58,22.68 15.12,31.23 7.54,8.56 18.11,12.84 31.7,12.84 10.55,0 19.18,-2.58 25.9,-7.74 6.72,-5.16 11.83,-11.82 15.35,-19.98 3.52,-8.17 5.92,-16.92 7.21,-26.25 1.29,-9.34 1.93,-19.12 1.93,-29.36 0,-13.75 -1.27,-26.62 -3.81,-38.61 -2.54,-11.99 -7.52,-22.19 -14.94,-30.58 -7.42,-8.4 -17.97,-12.6 -31.64,-12.6 z m 0,6.21 c 8.91,0 15.55,4.57 19.92,13.71 4.38,9.14 7.07,19.25 8.08,30.35 1.02,11.1 1.53,22.89 1.53,35.39 0,12.03 -0.51,23.12 -1.53,33.28 -1.01,10.16 -3.68,19.36 -8.02,27.6 -4.34,8.24 -11,12.36 -19.98,12.36 -9.07,0 -15.79,-4.14 -20.16,-12.42 -4.38,-8.28 -7.07,-17.48 -8.09,-27.59 -1.01,-10.12 -1.52,-21.2 -1.52,-33.23 0,-8.9 0.22,-17.3 0.65,-25.2 0.43,-7.89 1.58,-16.03 3.46,-24.43 1.87,-8.39 4.9,-15.46 9.08,-21.2 4.18,-5.75 9.71,-8.62 16.58,-8.62"
                   style="fill:#262626;fill-opacity:1;fill-rule:nonzero;stroke:none"
                   id="path22834" /><path
                   d="m 5744.7703,4005.4 v 8.44 c 20,0 30,2.54 30,7.62 v 125.97 c -8.29,-3.98 -18.76,-5.97 -31.41,-5.97 v 8.43 c 19.61,0 34.41,5.12 44.41,15.36 h 3.4 c 0.55,0 1.08,-0.22 1.58,-0.65 0.51,-0.43 0.77,-0.92 0.77,-1.47 v -141.67 c 0,-5.08 10,-7.62 30,-7.62 v -8.44 h -78.75"
                   style="fill:#262626;fill-opacity:1;fill-rule:nonzero;stroke:none"
                   id="path22836" /><path
                   d="m 5902.5003,4000.13 c -19.61,0 -32.95,8.07 -40.02,24.2 -7.07,16.13 -10.6,35.33 -10.6,57.59 0,13.91 1.26,26.99 3.8,39.26 2.55,12.27 7.58,22.68 15.12,31.23 7.54,8.56 18.11,12.84 31.7,12.84 10.55,0 19.18,-2.58 25.9,-7.74 6.72,-5.16 11.83,-11.82 15.35,-19.98 3.52,-8.17 5.92,-16.92 7.21,-26.25 1.29,-9.34 1.93,-19.12 1.93,-29.36 0,-13.75 -1.27,-26.62 -3.81,-38.61 -2.54,-11.99 -7.52,-22.19 -14.94,-30.58 -7.42,-8.4 -17.97,-12.6 -31.64,-12.6 z m 0,6.21 c 8.91,0 15.55,4.57 19.92,13.71 4.38,9.14 7.07,19.25 8.08,30.35 1.02,11.1 1.53,22.89 1.53,35.39 0,12.03 -0.51,23.12 -1.53,33.28 -1.01,10.16 -3.68,19.36 -8.02,27.6 -4.34,8.24 -11,12.36 -19.98,12.36 -9.07,0 -15.79,-4.14 -20.16,-12.42 -4.38,-8.28 -7.07,-17.48 -8.09,-27.59 -1.01,-10.12 -1.52,-21.2 -1.52,-33.23 0,-8.9 0.22,-17.3 0.65,-25.2 0.43,-7.89 1.58,-16.03 3.46,-24.43 1.87,-8.39 4.9,-15.46 9.08,-21.2 4.18,-5.75 9.71,-8.62 16.58,-8.62"
                   style="fill:#262626;fill-opacity:1;fill-rule:nonzero;stroke:none"
                   id="path22838" /><path
                   d="m 6022.5003,4000.13 c -19.61,0 -32.95,8.07 -40.02,24.2 -7.07,16.13 -10.6,35.33 -10.6,57.59 0,13.91 1.26,26.99 3.8,39.26 2.55,12.27 7.58,22.68 15.12,31.23 7.54,8.56 18.11,12.84 31.7,12.84 10.55,0 19.18,-2.58 25.9,-7.74 6.72,-5.16 11.83,-11.82 15.35,-19.98 3.52,-8.17 5.92,-16.92 7.21,-26.25 1.29,-9.34 1.93,-19.12 1.93,-29.36 0,-13.75 -1.27,-26.62 -3.81,-38.61 -2.54,-11.99 -7.52,-22.19 -14.94,-30.58 -7.42,-8.4 -17.97,-12.6 -31.64,-12.6 z m 0,6.21 c 8.91,0 15.55,4.57 19.92,13.71 4.38,9.14 7.07,19.25 8.08,30.35 1.02,11.1 1.54,22.89 1.54,35.39 0,12.03 -0.52,23.12 -1.54,33.28 -1.01,10.16 -3.68,19.36 -8.02,27.6 -4.34,8.24 -11,12.36 -19.98,12.36 -9.06,0 -15.78,-4.14 -20.15,-12.42 -4.38,-8.28 -7.08,-17.48 -8.1,-27.59 -1.01,-10.12 -1.52,-21.2 -1.52,-33.23 0,-8.9 0.22,-17.3 0.65,-25.2 0.43,-7.89 1.58,-16.03 3.46,-24.43 1.87,-8.39 4.9,-15.46 9.08,-21.2 4.18,-5.75 9.71,-8.62 16.58,-8.62"
                   style="fill:#262626;fill-opacity:1;fill-rule:nonzero;stroke:none"
                   id="path22840" /><path
                   d="m 4728.7803,3848.38 c 0,3.82 1.47,7.18 4.4,10.07 2.93,2.89 6.3,4.34 10.14,4.34 2.34,0 4.66,-0.63 6.97,-1.88 2.3,-1.25 4.1,-3.03 5.39,-5.33 1.28,-2.3 1.93,-4.7 1.93,-7.2 0,-3.75 -1.41,-7.09 -4.22,-10.02 -2.81,-2.93 -6.17,-4.4 -10.07,-4.4 -3.84,0 -7.21,1.47 -10.14,4.4 -2.93,2.93 -4.4,6.27 -4.4,10.02"
                   style="fill:#262626;fill-opacity:1;fill-rule:nonzero;stroke:none"
                   id="path22842" /><path
                   d="m 4686.6003,3684.32 c -2.19,0 -4.05,0.68 -5.57,2.04 -1.52,1.37 -2.28,3.14 -2.28,5.34 0,1.01 0.07,1.79 0.23,2.34 l 19.57,78.28 c 1.33,4.92 1.99,9.22 1.99,12.89 0,7.5 -2.58,11.25 -7.73,11.25 -5.47,0 -9.53,-3.26 -12.18,-9.78 -2.66,-6.53 -5.2,-14.79 -7.63,-24.79 0,-0.55 -0.27,-0.98 -0.81,-1.29 -0.55,-0.31 -1.03,-0.47 -1.41,-0.47 h -3.05 c -0.62,0 -1.15,0.33 -1.58,1 -0.43,0.67 -0.65,1.23 -0.65,1.69 1.88,7.66 3.7,14.13 5.46,19.4 1.75,5.28 4.48,10.1 8.19,14.48 3.72,4.37 8.35,6.56 13.89,6.56 6.49,0 12.29,-2.05 17.4,-6.15 5.12,-4.11 7.69,-9.4 7.69,-15.89 5.07,6.8 11.06,12.17 17.98,16.12 6.91,3.95 14.43,5.92 22.56,5.92 9.14,0 16.46,-2.46 21.97,-7.38 5.51,-4.93 8.26,-11.92 8.26,-20.98 0,-5.24 -0.58,-10.04 -1.76,-14.42 l -30.47,-121.52 c -0.54,-2.5 -1.83,-4.51 -3.86,-6.03 -2.03,-1.53 -4.33,-2.29 -6.92,-2.29 -2.1,0 -3.94,0.64 -5.5,1.93 -1.57,1.29 -2.35,3.07 -2.35,5.34 0,1.01 0.08,1.68 0.24,1.99 l 30.11,121.05 c 1.8,7.19 2.7,13.17 2.7,17.93 0,4.85 -1.02,8.99 -3.05,12.42 -2.03,3.44 -5.31,5.16 -9.84,5.16 -17.19,0 -31.45,-10.58 -42.78,-31.76 l -17.81,-71.72 c -0.63,-2.34 -1.99,-4.37 -4.09,-6.09 -2.11,-1.72 -4.42,-2.57 -6.92,-2.57"
                   style="fill:#262626;fill-opacity:1;fill-rule:nonzero;stroke:none"
                   id="path22844" /><path
                   d="M 3555.0003,4275 V 6622.5"
                   style="fill:none;stroke:#262626;stroke-width:12.5025;stroke-linecap:square;stroke-linejoin:round;stroke-miterlimit:10;stroke-dasharray:none;stroke-opacity:1"
                   id="path22846" /><path
                   d="M 5902.5003,4275 V 6622.5"
                   style="fill:none;stroke:#262626;stroke-width:12.5025;stroke-linecap:square;stroke-linejoin:round;stroke-miterlimit:10;stroke-dasharray:none;stroke-opacity:1"
                   id="path22848" /><path
                   d="m 3555.0003,4275 h 23.48"
                   style="fill:none;stroke:#262626;stroke-width:12.5025;stroke-linecap:square;stroke-linejoin:round;stroke-miterlimit:10;stroke-dasharray:none;stroke-opacity:1"
                   id="path22850" /><path
                   d="m 3555.0003,5448.75 h 23.48"
                   style="fill:none;stroke:#262626;stroke-width:12.5025;stroke-linecap:square;stroke-linejoin:round;stroke-miterlimit:10;stroke-dasharray:none;stroke-opacity:1"
                   id="path22852" /><path
                   d="m 3555.0003,6622.5 h 23.48"
                   style="fill:none;stroke:#262626;stroke-width:12.5025;stroke-linecap:square;stroke-linejoin:round;stroke-miterlimit:10;stroke-dasharray:none;stroke-opacity:1"
                   id="path22854" /><path
                   d="m 5902.5003,4275 h -23.48"
                   style="fill:none;stroke:#262626;stroke-width:12.5025;stroke-linecap:square;stroke-linejoin:round;stroke-miterlimit:10;stroke-dasharray:none;stroke-opacity:1"
                   id="path22856" /><path
                   d="m 5902.5003,5448.75 h -23.48"
                   style="fill:none;stroke:#262626;stroke-width:12.5025;stroke-linecap:square;stroke-linejoin:round;stroke-miterlimit:10;stroke-dasharray:none;stroke-opacity:1"
                   id="path22858" /><path
                   d="m 5902.5003,6622.5 h -23.48"
                   style="fill:none;stroke:#262626;stroke-width:12.5025;stroke-linecap:square;stroke-linejoin:round;stroke-miterlimit:10;stroke-dasharray:none;stroke-opacity:1"
                   id="path22860" /><path
                   d="m 4728.7503,6622.5 -6.79,-0.6 -15.91,-2.63 -43.5,-7.99 -113.75,-22.37 -262.55,-57.66 -419.62,-126.71 32.98,-183.03 1202.44,-54.04 453.79,142.78 -579.8,112.05 -743.03,-24.48 -433.67,-151.85 886.65,-118.79 863.39,100.84 -547.4,121.11 -874.66,-33.92 -165.73,-156.99 1205.54,-40.54 208.41,135.46 -896.82,44.5 -582.51,-122.97 948.05,-92.87 588.7,110.27 -841.09,66.18 -647.97,-107.42 910.65,-87.33 516.25,105.92 -893.21,47.29 -448.13,-116.44 1067.44,-43.92 83.42,111.65 -964.22,-6.32 111.56,-120.89 1006.6,34.19 -571.74,84.77 -704.69,-80.48 885.25,-64.63 226.3,96.69 -939.76,-6.19 253.29,-105.12 810.02,53.29 -772.31,50.12 -291.17,-98.08 982.85,2.02 -449.52,76.59 -605.39,-74.16 913.22,-33.25 -159.9,82.23 -743.03,-52.53 794.03,-50.48 13.02,79.23 -779.57,-40.33 723.16,-54.44 55.91,74.97 -759.43,-38.58 724.87,-48.84 -19.93,71.3 -687.15,-45.72 776.1,-34.53 -197.55,65.53 -533.35,-58.14 812.85,-11.33 -440.22,52.39 -257.24,-69.26 734.2,18.6 -663.69,26.74 144.19,-68.69 443.67,46.18 -726.52,-11 556.12,-45.95 -50.47,55.33 -479.37,-48.49 715.71,-1.58 -536.05,31.8 80.08,-60.87 387.84,40.64 -649.18,-17.46 601.1,-29.36 -269.12,43.3 -178.03,-54.36 520.95,25.26 -630.75,-3.47 497.79,-35.27 -177.37,41.56 -204.04,-49.23 489.46,22.87 -593.82,-6.49 512.5,-27.71 -271.35,34.6 -44.71,-47.83 325.01,30.35 -507.24,-21.97 556.75,-7.9 -459.47,17.55 263.29,-39.4 -22.18,34.55 -218.57,-39.29 399.49,19.66 -494.38,-13.79 502.57,-10.53 -420.26,15.07 278.58,-33.57 -105.3,29.36 -77.41,-37.8 235.23,24.48 -357.15,-25.28 432.6,7.03 -454.49,-5.48 434.93,-12.73 -374.13,12.2 287.79,-26.99 -185.8,22.35 76.18,-32.68 28.14,24.05 -125.41,-30.72 207,19.31 -273.14,-23.85 322.67,11.17 -354.98,-15.02 374.24,2.28 -379.4,-6.45 376.17,-5.61 -363.85,0.64 347.48,-11.72 -326.83,5.83 305.42,-15.94 -283.37,9.23 262.64,-18.52 -243.52,11.17 226.98,-19.82 -213.19,12.01 202.56,-20.18 -195.05,12.05 190.77,-19.86 -189.55,11.49 191.31,-18.99 -195.64,10.39 202.47,-17.56 -211.04,8.7 221.14,-15.52 -231.88,6.34 242.54,-12.73 -252.44,3.2 260.2,-9.15 -265.15,-0.75 265.54,-4.8 -260.89,-5.36 249.16,0.01 -230.2,-10.16 202.79,4.69 -166.89,-14.42 123.18,8.31 -71.93,-17.05 16.59,9.75 41.64,-16.98 -97.27,8.09 147.43,-13.58 -186.53,3.11 210.04,-7.21 -215.03,-4.14 198.21,0.33 -160.55,-11.18 104.42,6.09 -34.8,-14.82 -38.61,7.11 107.34,-12.83 -159.52,2.29 186.12,-5.72 -181.81,-6.01 144.71,2.43 -80.57,-12.49 1.33,5.97 78.4,-12.17 -139.66,1.82 167.91,-4.92 -155.45,-6.88 103.16,3.12 -23.59,-12.13 -61.04,4.15 127.25,-8.45 -153.76,-3.18 130.51,0.35 -64.26,-10.61 -22.84,3.92 100.89,-8.95 -139.85,-2.35 123.53,-0.32 -57.68,-9.95 -30.85,3.15 104.8,-7.73 -130.26,-3.76 94.4,0.8 -13.6,-9.87 -72.06,1.55 119.06,-4.81 -101.83,-6.65 29.05,2.15 58.93,-8.49 -110.39,-2.13 94.16,-0.58 -19.82,-8.81 -65.25,0.73 105.58,-3.9 -73.58,-7.06 -8.75,1.48 83,-6.24 -94.39,-4.85 34.28,0.89 51.03,-7.33 -93.42,-3.12 58.5,-0.08 24.55,-7.58 -84.17,-2.09 68.22,-0.9 8.8,-7.43 -75.45,-1.68 69.02,-1.34 4.03,-7.18 -70.89,-1.72 64.14,-1.37 8.84,-6.91 -70.23,-2.16 53.94,-1.1 21.49,-6.54 -70.29,-2.93 36.69,-0.7 39.02,-5.91 -65.39,-3.99 10.91,-0.45 55.42,-4.83 -48.83,-5.13 -20.96,-0.74 60.64,-3.29 -16.93,-5.87 -48.55,-1.88 43.81,-1.72 23.32,-5.57 -54.15,-3.71 3.9,-0.98 50.35,-4 -25.33,-5.25 -38.25,-1.86 38.83,-1.97 23.32,-5.13 -44.82,-3.96 -9.17,-1.33 45.51,-3.15 -1.92,-5.17 -43.29,-3 9.85,-1.51 39.98,-3.8 -14.41,-4.86 -36.9,-2.6 16.45,-1.77 34.64,-3.93 -16.08,-4.64 -33.4,-2.62 13.96,-1.87 32.92,-3.74 -9.86,-4.56 -32.71,-2.93 4.18,-1.9 31.99,-3.25 3.11,-4.47 -29.71,-3.5 -11.12,-2.09 24.83,-2.59 18.97,-4.05 -16.63,-4.07 -24.56,-2.74 5.44,-2.17 25.72,-3.16 7.33,-4.12 -20.62,-3.69 -18.04,-2.56 9.24,-2.35 22.6,-3.25 5.49,-3.98 -17.7,-3.64 -17.29,-2.7 4.38,-2.38 19.52,-3.02 10.95,-3.75 -9.58,-3.76 -18.18,-3.07 -6.54,-2.52 11.28,-2.64 16.41,-3.27 4.85,-3.71 -10.6,-3.56 -15.07,-3.01 -5.43,-2.61 8.34,-2.68 14.01,-3.12 7.67,-3.52 -4.34,-3.56 -12.12,-3.25 -10.21,-2.84 -1.05,-2.67 8.14,-2.8 11.13,-3.12 6.72,-3.39 -1.48,-3.45 -8.1,-3.3 -9.53,-3.02 -5.61,-2.81 0.89,-2.76 6.35,-2.87 8.29,-3.05 6.31,-3.24 1.82,-3.32 -2.97,-3.29 -6.09,-3.17 -6.69,-3.04 -4.87,-2.91 -1.69,-2.84 1.65,-2.86 4.14,-2.91 5.19,-3 4.83,-3.09 3.4,-3.15 1.43,-3.17 -0.55,-3.18 -2.12,-3.13 -3.11,-3.1 -3.46,-3.05 -3.26,-3 -2.65,-2.96 -1.86,-2.94 -1.01,-2.93 -0.25,-2.92 0.42,-2.95 0.85,-2.93 1.14,-2.96 1.28,-2.97 1.29,-2.98 1.22,-2.98 1.08,-2.98 0.91,-2.99 0.74,-2.99 0.55,-2.99 0.39,-2.99 0.21,-2.98 0.06,-2.99 -0.09,-2.97 -0.24,-2.98 -0.38,-2.97 -0.52,-2.97 -0.65,-2.97 -0.77,-2.97 -0.86,-2.97 -0.91,-2.97 -0.89,-2.98 -0.82,-2.99 -0.62,-2.99 -0.33,-2.99 0.08,-3 0.6,-2.99 1.14,-2.99 1.67,-2.96 2.05,-2.96 2.16,-2.92 1.93,-2.9 1.26,-2.87 0.24,-2.86 -0.97,-2.86 -2.07,-2.88 -2.69,-2.91 -2.54,-2.95 -1.5,-2.99 0.2,-3 1.98,-2.98 3.05,-2.93 2.82,-2.86 1.18,-2.83 -1.22,-2.82 -3.07,-2.86 -3.19,-2.94 -1.25,-2.99 1.65,-2.98 3.55,-2.91 2.81,-2.84 -0.21,-2.79 -3.2,-2.83 -3.43,-2.94 -0.41,-2.98 3.15,-2.95 3.56,-2.83 0.09,-2.78 -3.61,-2.83 -3.07,-2.94 1.39,-2.98 4.18,-2.88 1.31,-2.76 -3.51,-2.81 -3.18,-2.94 2.05,-2.95 4.12,-2.83 -0.61,-2.75 -4.34,-2.87 -0.34,-2.96 4.34,-2.87 0.78,-2.75 -4.33,-2.83 -0.61,-2.96 4.44,-2.86 -0.13,-2.72 -4.39,-2.87 1.49,-2.95 3.85,-2.78 -3.17,-2.76 -2.18,-2.93 4.42,-2.86 -0.67,-2.72 -3.86,-2.89 3.68,-2.89 0.71,-2.73 -4.23,-2.85 3.45,-2.9 0.57,-2.71 -3.94,-2.88 4.04,-2.85 -1.09,-2.73 -2.46,-2.9 4.36,-2.79 -3.66,-2.76 1.14,-2.91 1.78,-2.71 -3.78,-2.86 4.34,-2.82 -3.48,-2.74 1.8,-2.9 0.16,-2.7 -1.87,-2.88 3.13,-2.74 -3.84,-2.83 4.14,-2.78 -4.09,-2.78 3.91,-2.82 -3.65,-2.76 3.45,-2.83 -3.29,-2.74 3.27,-2.82 -3.34,-2.75 3.52,-2.81 -3.67,-2.76 3.79,-2.79 -3.72,-2.78 3.35,-2.75 -2.49,-2.83 1.19,-2.7 0.5,-2.84 -2.16,-2.71 3.3,-2.8 -3.25,-2.78 1.8,-2.71 0.63,-2.83 -2.71,-2.73 3.01,-2.74 -0.97,-2.81 -1.88,-2.72 -0.1,-0.06"
                   style="fill:none;stroke:#0072bd;stroke-width:15;stroke-linecap:butt;stroke-linejoin:round;stroke-miterlimit:10;stroke-dasharray:none;stroke-opacity:1"
                   id="path22862" /><path
                   d="m 4691.8903,6116.61 0.25,-7.21 0.49,-7.1 0.47,-7.01 0.45,-6.92 0.42,-6.84 0.41,-6.76 0.39,-6.67 0.37,-6.61 0.36,-6.53 0.35,-6.46 0.33,-6.39 0.31,-6.34 0.31,-6.27 0.3,-6.21 0.29,-6.16 0.27,-6.11 0.27,-6.04 0.26,-6 0.25,-5.95 0.24,-5.89 0.23,-5.86 0.24,-5.8 0.22,-5.77 0.21,-5.72 0.21,-5.67 0.21,-5.64 0.2,-5.6 0.19,-5.56 0.19,-5.52 0.19,-5.49 0.18,-5.45 0.17,-5.42 0.17,-5.37 0.17,-5.36 0.16,-5.32 0.16,-5.27 0.16,-5.26 0.15,-5.22 0.15,-5.2 0.15,-5.17 0.14,-5.13 0.13,-5.11 0.15,-5.09 0.13,-5.05 0.13,-5.04 0.13,-5 0.12,-4.98 0.13,-4.95 0.12,-4.93 0.12,-4.92 0.12,-4.88 0.12,-4.86 0.11,-4.84 0.11,-4.82 0.11,-4.79 0.11,-4.78 0.1,-4.75 0.11,-4.73 0.1,-4.71 0.1,-4.7 0.1,-4.67 0.1,-4.66 0.09,-4.63 0.1,-4.63 0.09,-4.59 0.09,-4.59 0.09,-4.55 0.09,-4.55 0.09,-4.53 0.08,-4.51 0.09,-4.5 0.09,-4.48 0.08,-4.46 0.08,-4.44 0.08,-4.43 0.08,-4.42 0.08,-4.39 0.08,-4.39 0.07,-4.36 0.07,-4.36 0.08,-4.34 0.08,-4.32 0.06,-4.32 0.08,-4.29 0.06,-4.29 0.08,-4.26 0.07,-4.27 0.06,-4.23 0.07,-4.23 0.07,-4.22 0.06,-4.2 0.07,-4.2 0.06,-4.17 0.06,-4.17 0.06,-4.15 0.07,-4.14 0.06,-4.13 0.06,-4.11 0.06,-4.11 0.05,-4.1 0.07,-4.08 0.06,-4.07 0.05,-4.06 0.06,-4.05 0.06,-4.03 0.05,-4.03 0.05,-4.02 0.06,-4.01 0.06,-3.99 0.05,-3.99 0.05,-3.97 0.05,-3.96 0.05,-3.96 0.05,-3.94 0.05,-3.94 0.06,-3.92 0.04,-3.91 0.05,-3.91 0.05,-3.89 0.05,-3.89 0.04,-3.88 0.05,-3.87 0.05,-3.85 0.05,-3.85 0.04,-3.84 0.05,-3.83 0.04,-3.83 0.05,-3.81 0.04,-3.81 0.05,-3.79 0.04,-3.79 0.04,-3.78 0.05,-3.76 0.04,-3.77 0.04,-3.76 0.04,-3.74 0.04,-3.73 0.04,-3.74 0.04,-3.72 0.05,-3.71 0.03,-3.71 0.04,-3.69 0.04,-3.69 0.05,-3.69 0.03,-3.68 0.04,-3.67 0.04,-3.66 0.03,-3.65 0.04,-3.64 0.04,-3.64 0.04,-3.63 0.04,-3.62 0.02,-3.62 0.04,-3.61 0.04,-3.61 0.04,-3.59 0.04,-3.59 0.02,-3.59 0.04,-3.57 0.03,-3.57 0.04,-3.56 0.03,-3.55 0.04,-3.55 0.03,-3.55 0.04,-3.53 0.03,-3.53 0.03,-3.52 0.03,-3.52 0.03,-3.51 0.03,-3.5 0.04,-3.5 0.03,-3.49 0.03,-3.49 0.03,-3.48 0.03,-3.47 0.03,-3.46 0.04,-3.46 0.03,-3.46 0.03,-3.45 0.03,-3.44 0.02,-3.44 0.03,-3.43 0.03,-3.43 0.03,-3.42 0.03,-3.41 0.03,-3.41 0.03,-3.4 0.02,-3.4 0.03,-3.4 0.03,-3.38 0.03,-3.38 0.02,-3.38 0.04,-3.37 0.03,-3.36 0.02,-3.36 0.03,-3.35 0.02,-3.36 0.03,-3.34 0.03,-3.34 0.02,-3.34 0.03,-3.32 0.02,-3.33 0.03,-3.31 0.03,-3.32 0.02,-3.31 0.03,-3.3 0.02,-3.3 0.03,-3.29 0.02,-3.29 0.03,-3.29 0.02,-3.27 0.03,-3.27 0.02,-3.27 0.02,-3.27 0.03,-3.26 0.02,-3.25 0.03,-3.26 0.02,-3.25 0.03,-3.24 0.02,-3.23 0.02,-3.23 0.02,-3.24 0.03,-3.21 0.02,-3.22 0.02,-3.22 0.02,-3.21 0.03,-3.2 0.02,-3.2 0.02,-3.2 0.02,-3.19 0.03,-3.19 0.02,-3.19 0.02,-3.18 0.02,-3.17 0.03,-3.17 0.02,-3.17 0.02,-3.16 0.01,-3.16 0.03,-3.15 0.02,-3.15 0.02,-3.15 0.02,-3.14 0.02,-3.14 0.02,-3.13 0.03,-3.13 0.01,-3.13 0.02,-3.12 0.02,-3.12 0.03,-3.11 0.01,-3.11 0.03,-3.11 0.02,-3.1 0.01,-3.1 0.03,-3.09 0.01,-3.09 0.02,-3.09 0.02,-3.08 0.02,-3.08 0.02,-3.08 0.02,-3.07 0.02,-3.07 0.01,-3.06 0.03,-3.06 0.01,-3.06 0.03,-3.06 0.01,-3.05 0.02,-3.04 0.02,-3.05 0.01,-3.04 0.03,-3.03 0.01,-3.03 0.02,-3.03 0.02,-3.02 0.01,-3.03 0.03,-3.01 0.01,-3.02 0.02,-3.01 0.02,-3.01 0.01,-3 0.02,-3.01 0.02,-2.99 0.01,-2.99 0.02,-3 0.02,-2.99 0.02,-2.97 0.01,-2.99 0.02,-2.98 0.02,-2.98 0.01,-2.96 0.02,-2.97 0.02,-2.97 0.01,-2.96 0.02,-2.96 0.02,-2.95 0.01,-2.96 0.02,-2.94 0.01,-2.94 0.02,-2.95 0.02,-2.94 0.01,-2.93 0.02,-2.93 0.02,-2.94 0.01,-2.92 0.02,-2.93 0.01,-2.92 0.01,-2.91 0.02,-2.92 0.02,-2.91 0.01,-2.91 0.02,-2.9 0.01,-2.9 0.01,-2.91 0.02,-2.89 0.02,-2.9 0.01,-2.89 0.02,-2.89 0.01,-2.88 0.01,-2.89 0.02,-2.87 0.02,-2.88 0.01,-2.87 0.02,-2.88 0.01,-2.86 0.01,-2.87 0.02,-2.86 0.02,-2.86 0.01,-2.85 0.02,-2.86 0.01,-2.85 0.01,-2.85 0.01,-2.85 0.02,-2.84 0.01,-2.84 0.02,-2.84 0.01,-2.83 0.02,-2.83 v -2.83 l 0.02,-2.83 0.01,-2.82 0.02,-2.82 0.02,-2.82 v -2.82 l 0.02,-2.81 0.01,-2.81 0.02,-2.81 0.01,-2.81 0.01,-2.8 0.02,-2.8 0.01,-2.79 0.02,-2.8 v -2.79 l 0.02,-2.79 0.01,-2.79 0.02,-2.78 0.01,-2.79 0.01,-2.78 0.02,-2.77 v -2.78 l 0.02,-2.77 0.01,-2.77 0.01,-2.77 0.02,-2.77 0.01,-2.76 0.01,-2.76 0.01,-2.76 0.02,-2.76 v -2.75 l 0.02,-2.74 0.02,-2.76 V 4729 l 0.02,-2.75 0.01,-2.73 0.01,-2.74 0.01,-2.74 0.01,-2.74 0.02,-2.73 0.01,-2.73 0.01,-2.73 0.02,-2.72 v -2.72 l 0.02,-2.72 v -2.72 l 0.02,-2.71 0.01,-2.72 0.01,-2.71 0.01,-2.7 0.02,-2.71 0.01,-2.71 0.01,-2.7 0.01,-2.7 0.01,-2.7 0.01,-2.69 0.01,-2.7 0.02,-2.69 0.01,-2.69 0.01,-2.69 0.01,-2.68 0.01,-2.68 0.01,-2.68 0.01,-2.68 0.01,-2.67 0.01,-2.68 0.02,-2.67 V 4637 l 0.02,-2.67 0.01,-2.66 0.01,-2.66 0.01,-2.67 0.01,-2.65 0.01,-2.66 0.01,-2.66 0.01,-2.64 0.01,-2.66 0.01,-2.65 0.01,-2.65 0.01,-2.63 0.01,-2.64 0.01,-2.64 0.02,-2.65 0.01,-2.64 v -2.63 l 0.02,-2.63 0.01,-2.63 v -2.63 l 0.02,-2.62 v -2.63 l 0.02,-2.62 0.01,-2.62 0.01,-2.62 0.01,-2.62 0.01,-2.61 0.01,-2.61 0.01,-2.61 0.01,-2.61 v -2.61 l 0.02,-2.6 0.01,-2.6 0.01,-2.6 v -2.6 l 0.02,-2.6 0.01,-2.59 v -2.6 l 0.02,-2.59 v -2.58 l 0.01,-2.59 0.02,-2.59 0.01,-2.58 v -2.59 l 0.01,-2.58 0.02,-2.57 v -2.58 l 0.01,-2.57 0.01,-2.58 0.01,-2.57 0.01,-2.56 0.01,-2.57 0.01,-2.57 0.01,-2.56 0.01,-2.56 0.01,-2.56 v -2.56 -0.06"
                   style="fill:none;stroke:#ff0000;stroke-width:15;stroke-linecap:butt;stroke-linejoin:bevel;stroke-miterlimit:10;stroke-dasharray:60, 60;stroke-dashoffset:0;stroke-opacity:1"
                   id="path22864" /><path
                   d="m 915,1612.4995 h 2347.5 v 2347.5 H 915 Z"
                   style="fill:#ffffff;fill-opacity:1;fill-rule:nonzero;stroke:none"
                   id="path22866" /><path
                   d="M 915,1612.4995 H 3262.5"
                   style="fill:none;stroke:#262626;stroke-width:12.5025;stroke-linecap:square;stroke-linejoin:round;stroke-miterlimit:10;stroke-dasharray:none;stroke-opacity:1"
                   id="path22868" /><path
                   d="M 915,3959.9995 H 3262.5"
                   style="fill:none;stroke:#262626;stroke-width:12.5025;stroke-linecap:square;stroke-linejoin:round;stroke-miterlimit:10;stroke-dasharray:none;stroke-opacity:1"
                   id="path22870" /><path
                   d="m 915,1612.4995 v 23.477"
                   style="fill:none;stroke:#262626;stroke-width:12.5025;stroke-linecap:square;stroke-linejoin:round;stroke-miterlimit:10;stroke-dasharray:none;stroke-opacity:1"
                   id="path22872" /><path
                   d="m 2458.17,1612.4995 v 23.477"
                   style="fill:none;stroke:#262626;stroke-width:12.5025;stroke-linecap:square;stroke-linejoin:round;stroke-miterlimit:10;stroke-dasharray:none;stroke-opacity:1"
                   id="path22874" /><path
                   d="m 915,3959.9995 v -23.48"
                   style="fill:none;stroke:#262626;stroke-width:12.5025;stroke-linecap:square;stroke-linejoin:round;stroke-miterlimit:10;stroke-dasharray:none;stroke-opacity:1"
                   id="path22876" /><path
                   d="m 2458.17,3959.9995 v -23.48"
                   style="fill:none;stroke:#262626;stroke-width:12.5025;stroke-linecap:square;stroke-linejoin:round;stroke-miterlimit:10;stroke-dasharray:none;stroke-opacity:1"
                   id="path22878" /><path
                   d="m 877.266,1342.8975 v 8.438 c 20,0 30,2.543 30,7.621 v 125.977 c -8.282,-3.985 -18.754,-5.977 -31.407,-5.977 v 8.438 c 19.61,0 34.414,5.117 44.414,15.351 h 3.399 c 0.547,0 1.074,-0.215 1.582,-0.644 0.508,-0.43 0.762,-0.918 0.762,-1.469 v -141.676 c 0,-5.078 10,-7.621 30,-7.621 v -8.438 h -78.75"
                   style="fill:#262626;fill-opacity:1;fill-rule:nonzero;stroke:none"
                   id="path22880" /><path
                   d="m 2410.12,1342.8975 v 6.446 c 0,0.394 0.16,0.824 0.47,1.289 l 37.27,41.25 c 5.62,6.094 10.19,11.211 13.7,15.351 3.52,4.141 7,8.907 10.44,14.297 3.43,5.395 6.15,10.883 8.14,16.469 1.99,5.586 2.99,11.504 2.99,17.754 0,6.559 -1.21,12.828 -3.63,18.809 -2.43,5.976 -6.04,10.761 -10.85,14.355 -4.8,3.594 -10.6,5.391 -17.4,5.391 -6.95,0 -13.2,-2.09 -18.75,-6.27 -5.54,-4.18 -9.45,-9.59 -11.71,-16.23 0.62,0.156 1.48,0.234 2.57,0.234 3.59,0 6.66,-1.211 9.2,-3.637 2.54,-2.422 3.81,-5.547 3.81,-9.375 0,-3.672 -1.27,-6.777 -3.81,-9.316 -2.54,-2.539 -5.61,-3.809 -9.2,-3.809 -3.75,0 -6.89,1.309 -9.43,3.93 -2.54,2.613 -3.81,5.68 -3.81,9.195 0,6.02 1.13,11.664 3.4,16.934 2.27,5.273 5.53,9.961 9.79,14.062 4.25,4.106 9.05,7.25 14.4,9.434 5.36,2.191 11.04,3.285 17.06,3.285 9.14,0 17.66,-1.933 25.54,-5.805 7.89,-3.863 14.14,-9.332 18.75,-16.402 4.62,-7.07 6.92,-15.332 6.92,-24.785 0,-6.957 -1.52,-13.559 -4.57,-19.809 -3.05,-6.25 -6.96,-11.933 -11.72,-17.047 -4.76,-5.121 -10.86,-10.921 -18.28,-17.402 -7.42,-6.484 -12.31,-10.82 -14.65,-13.012 l -27.19,-26.129 h 23.09 c 11.33,0 20.8,0.098 28.42,0.293 7.62,0.196 11.66,0.489 12.13,0.875 1.87,2.032 3.79,9.415 5.74,22.149 h 7.03 l -6.8,-42.774 h -89.06"
                   style="fill:#262626;fill-opacity:1;fill-rule:nonzero;stroke:none"
                   id="path22882" /><path
                   d="m 2067.7,983.84355 c 0.31,2.027 1.53,3.043 3.64,3.043 0.15,0 1.79,-0.84 4.92,-2.52 3.12,-1.679 6.56,-3.203 10.31,-4.566 3.75,-1.367 7.5,-2.047 11.25,-2.047 3.28,0 6.04,1.383 8.26,4.152 2.23,2.778 3.34,5.766 3.34,8.973 0,4.605 -2.46,7.844 -7.38,9.71895 l -44.53,17.347 c -7.74,2.969 -14.11,7.422 -19.11,13.36 -5,5.937 -7.5,12.695 -7.5,20.269 0,6.723 1.8,13.735 5.4,21.039 3.59,7.305 8.22,13.926 13.88,19.86 5.66,5.941 11.7,10.746 18.11,14.414 -5.16,3.051 -9.16,6.996 -12.01,11.836 -2.85,4.843 -4.28,10.156 -4.28,15.937 0,6.176 1.25,11.918 3.75,17.227 2.5,5.316 5.94,10.14 10.31,14.476 4.38,4.336 9.26,8.028 14.65,11.078 5.39,3.043 10.86,5.348 16.4,6.907 -0.86,3.593 -1.29,6.836 -1.29,9.726 0,9.457 1.84,14.184 5.52,14.184 0.93,0 1.73,-0.332 2.39,-0.996 0.67,-0.668 1,-1.465 1,-2.403 0,-0.859 -0.23,-2.754 -0.7,-5.683 -0.47,-2.93 -0.71,-4.707 -0.71,-5.332 0,-3.047 0.39,-5.699 1.18,-7.965 4.53,0.934 8.91,1.402 13.13,1.402 16.01,0 24.02,-2.5 24.02,-7.5 0,-5.859 -8.91,-8.789 -26.72,-8.789 -5.47,0 -9.92,1.836 -13.36,5.512 -5,-2.582 -9.65,-6.215 -13.94,-10.906 -4.31,-4.684 -7.65,-9.918 -10.02,-15.7 -2.39,-5.781 -3.58,-11.601 -3.58,-17.457 0,-8.207 2.35,-14.808 7.03,-19.808 6.25,2.183 12.5,3.277 18.75,3.277 16.02,0 24.03,-2.5 24.03,-7.5 0,-5.855 -8.91,-8.781 -26.73,-8.781 -7.26,0 -14.1,1.09 -20.5,3.277 -7.82,-4.14 -14.97,-10.488 -21.44,-19.043 -6.49,-8.554 -9.73,-16.816 -9.73,-24.789 0,-5.074 1.85,-9.566 5.56,-13.476 3.71,-3.907 8.3,-7.032 13.77,-9.375 l 46.53,-18.043 c 4.06,-1.489 7.34,-3.926 9.84,-7.321 2.5,-3.402 3.75,-7.289 3.75,-11.66395 0,-7.191 -2.76,-13.695 -8.26,-19.515 -5.51,-5.821 -11.86,-8.731 -19.04,-8.731 -2.2,0 -5.81,0.59 -10.85,1.762 -5.03,1.172 -9.47,2.75 -13.29,4.742 -3.84,1.996 -5.75,4.125 -5.75,6.391 z m 21.33,123.86695 c 2.26,-0.859 5.11,-1.289 8.56,-1.289 8.43,0 14.48,0.508 18.16,1.523 -3.29,0.703 -8.68,1.059 -16.18,1.059 -3.04,0 -6.56,-0.43 -10.54,-1.293 z m 20.16,71.605 c 1.48,-1.019 3.59,-1.531 6.32,-1.531 8.36,0 14.42,0.512 18.17,1.531 h -24.49"
                   style="fill:#262626;fill-opacity:1;fill-rule:nonzero;stroke:none"
                   id="path22884" /><path
                   d="m 915,1612.4995 v 2347.5"
                   style="fill:none;stroke:#262626;stroke-width:12.5025;stroke-linecap:square;stroke-linejoin:round;stroke-miterlimit:10;stroke-dasharray:none;stroke-opacity:1"
                   id="path22886" /><path
                   d="m 3262.5,1612.4995 v 2347.5"
                   style="fill:none;stroke:#262626;stroke-width:12.5025;stroke-linecap:square;stroke-linejoin:round;stroke-miterlimit:10;stroke-dasharray:none;stroke-opacity:1"
                   id="path22888" /><path
                   d="m 915,1612.4995 h 23.477"
                   style="fill:none;stroke:#262626;stroke-width:12.5025;stroke-linecap:square;stroke-linejoin:round;stroke-miterlimit:10;stroke-dasharray:none;stroke-opacity:1"
                   id="path22890" /><path
                   d="m 915,2199.3795 h 23.477"
                   style="fill:none;stroke:#262626;stroke-width:12.5025;stroke-linecap:square;stroke-linejoin:round;stroke-miterlimit:10;stroke-dasharray:none;stroke-opacity:1"
                   id="path22892" /><path
                   d="m 915,2786.2495 h 23.477"
                   style="fill:none;stroke:#262626;stroke-width:12.5025;stroke-linecap:square;stroke-linejoin:round;stroke-miterlimit:10;stroke-dasharray:none;stroke-opacity:1"
                   id="path22894" /><path
                   d="m 915,3373.1295 h 23.477"
                   style="fill:none;stroke:#262626;stroke-width:12.5025;stroke-linecap:square;stroke-linejoin:round;stroke-miterlimit:10;stroke-dasharray:none;stroke-opacity:1"
                   id="path22896" /><path
                   d="m 915,3959.9995 h 23.477"
                   style="fill:none;stroke:#262626;stroke-width:12.5025;stroke-linecap:square;stroke-linejoin:round;stroke-miterlimit:10;stroke-dasharray:none;stroke-opacity:1"
                   id="path22898" /><path
                   d="m 3262.5,1612.4995 h -23.48"
                   style="fill:none;stroke:#262626;stroke-width:12.5025;stroke-linecap:square;stroke-linejoin:round;stroke-miterlimit:10;stroke-dasharray:none;stroke-opacity:1"
                   id="path22900" /><path
                   d="m 3262.5,2199.3795 h -23.48"
                   style="fill:none;stroke:#262626;stroke-width:12.5025;stroke-linecap:square;stroke-linejoin:round;stroke-miterlimit:10;stroke-dasharray:none;stroke-opacity:1"
                   id="path22902" /><path
                   d="m 3262.5,2786.2495 h -23.48"
                   style="fill:none;stroke:#262626;stroke-width:12.5025;stroke-linecap:square;stroke-linejoin:round;stroke-miterlimit:10;stroke-dasharray:none;stroke-opacity:1"
                   id="path22904" /><path
                   d="m 3262.5,3373.1295 h -23.48"
                   style="fill:none;stroke:#262626;stroke-width:12.5025;stroke-linecap:square;stroke-linejoin:round;stroke-miterlimit:10;stroke-dasharray:none;stroke-opacity:1"
                   id="path22906" /><path
                   d="m 3262.5,3959.9995 h -23.48"
                   style="fill:none;stroke:#262626;stroke-width:12.5025;stroke-linecap:square;stroke-linejoin:round;stroke-miterlimit:10;stroke-dasharray:none;stroke-opacity:1"
                   id="path22908" /><path
                   d="m 409.699,1599.3155 v 14.879 h 63.508 v -14.879 h -63.508"
                   style="fill:#262626;fill-opacity:1;fill-rule:nonzero;stroke:none"
                   id="path22910" /><path
                   d="m 509.266,1554.8975 v 8.438 c 20,0 30,2.543 30,7.621 v 125.977 c -8.282,-3.985 -18.754,-5.977 -31.407,-5.977 v 8.438 c 19.61,0 34.414,5.117 44.414,15.351 h 3.399 c 0.543,0 1.07,-0.215 1.582,-0.644 0.508,-0.43 0.762,-0.918 0.762,-1.469 v -141.676 c 0,-5.078 10,-7.621 30,-7.621 v -8.438 h -78.75"
                   style="fill:#262626;fill-opacity:1;fill-rule:nonzero;stroke:none"
                   id="path22912" /><path
                   d="m 667,1549.6285 c -19.609,0 -32.949,8.066 -40.02,24.199 -7.07,16.133 -10.605,35.328 -10.605,57.594 0,13.906 1.27,26.992 3.809,39.262 2.543,12.265 7.578,22.675 15.113,31.23 7.539,8.555 18.109,12.832 31.703,12.832 10.547,0 19.176,-2.578 25.898,-7.738 6.719,-5.156 11.836,-11.817 15.352,-19.981 3.516,-8.164 5.918,-16.914 7.207,-26.25 1.289,-9.336 1.934,-19.121 1.934,-29.355 0,-13.75 -1.27,-26.621 -3.809,-38.609 -2.539,-11.997 -7.519,-22.192 -14.941,-30.586 -7.422,-8.399 -17.969,-12.598 -31.641,-12.598 z m 0,6.207 c 8.906,0 15.547,4.57 19.922,13.711 4.375,9.141 7.066,19.258 8.082,30.351 1.016,11.098 1.523,22.895 1.523,35.395 0,12.031 -0.507,23.121 -1.523,33.277 -1.016,10.16 -3.688,19.36 -8.024,27.602 -4.335,8.238 -10.996,12.359 -19.98,12.359 -9.066,0 -15.785,-4.14 -20.16,-12.422 -4.375,-8.281 -7.07,-17.476 -8.086,-27.593 -1.016,-10.118 -1.52,-21.192 -1.52,-33.223 0,-8.906 0.215,-17.305 0.645,-25.199 0.43,-7.891 1.582,-16.035 3.457,-24.43 1.875,-8.398 4.902,-15.469 9.082,-21.211 4.18,-5.742 9.707,-8.617 16.582,-8.617"
                   style="fill:#262626;fill-opacity:1;fill-rule:nonzero;stroke:none"
                   id="path22914" /><path
                   d="m 787,1549.6285 c -19.609,0 -32.949,8.066 -40.02,24.199 -7.07,16.133 -10.605,35.328 -10.605,57.594 0,13.906 1.27,26.992 3.809,39.262 2.543,12.265 7.578,22.675 15.113,31.23 7.539,8.555 18.109,12.832 31.703,12.832 10.547,0 19.176,-2.578 25.898,-7.738 6.719,-5.156 11.836,-11.817 15.352,-19.981 3.516,-8.164 5.918,-16.914 7.207,-26.25 1.289,-9.336 1.934,-19.121 1.934,-29.355 0,-13.75 -1.27,-26.621 -3.809,-38.609 -2.539,-11.997 -7.519,-22.192 -14.941,-30.586 -7.422,-8.399 -17.969,-12.598 -31.641,-12.598 z m 0,6.207 c 8.906,0 15.547,4.57 19.922,13.711 4.375,9.141 7.066,19.258 8.082,30.351 1.016,11.098 1.523,22.895 1.523,35.395 0,12.031 -0.507,23.121 -1.523,33.277 -1.016,10.16 -3.688,19.36 -8.024,27.602 -4.335,8.238 -10.996,12.359 -19.98,12.359 -9.066,0 -15.785,-4.14 -20.16,-12.422 -4.375,-8.281 -7.07,-17.476 -8.086,-27.593 -1.016,-10.118 -1.52,-21.192 -1.52,-33.223 0,-8.906 0.215,-17.305 0.645,-25.199 0.43,-7.891 1.582,-16.035 3.457,-24.43 1.875,-8.398 4.902,-15.469 9.082,-21.211 4.18,-5.742 9.707,-8.617 16.582,-8.617"
                   style="fill:#262626;fill-opacity:1;fill-rule:nonzero;stroke:none"
                   id="path22916" /><path
                   d="m 529.699,2186.1895 v 14.88 h 63.508 v -14.88 h -63.508"
                   style="fill:#262626;fill-opacity:1;fill-rule:nonzero;stroke:none"
                   id="path22918" /><path
                   d="m 627.859,2169.0795 c 1.637,-4.69 4.157,-8.94 7.559,-12.77 3.398,-3.83 7.422,-6.82 12.066,-8.97 4.653,-2.14 9.477,-3.22 14.477,-3.22 11.562,0 19.535,4.49 23.91,13.47 4.375,8.99 6.563,19.89 6.563,32.7 0,5.55 -0.102,10.21 -0.301,14.01 -0.195,3.79 -0.719,7.44 -1.574,10.95 -1.485,5.63 -4.086,10.55 -7.801,14.77 -3.711,4.21 -8.262,6.32 -13.649,6.32 -5.39,0 -10.019,-0.82 -13.882,-2.46 -3.872,-1.64 -7.016,-3.55 -9.438,-5.74 -2.426,-2.19 -4.574,-4.49 -6.449,-6.91 -1.875,-2.43 -3.043,-3.71 -3.512,-3.87 h -2.699 c -0.391,0 -0.875,0.25 -1.461,0.77 -0.586,0.5 -0.879,0.99 -0.879,1.46 v 80.16 c 0,0.39 0.254,0.8 0.758,1.23 0.512,0.43 1.039,0.64 1.582,0.64 h 0.707 c 10.777,-5.16 22.223,-7.74 34.336,-7.74 11.875,0 23.316,2.58 34.332,7.74 h 0.707 c 0.543,0 1.051,-0.19 1.523,-0.59 0.469,-0.39 0.704,-0.82 0.704,-1.28 v -2.23 c 0,-0.79 -0.157,-1.18 -0.473,-1.18 -5.465,-7.26 -12.32,-12.93 -20.567,-16.98 -8.238,-4.07 -16.773,-6.1 -25.601,-6.1 -6.406,0 -12.969,0.9 -19.688,2.7 v -45.35 c 5.313,4.29 10.063,7.35 14.243,9.19 4.179,1.84 9.507,2.76 15.988,2.76 8.832,0 16.738,-2.54 23.73,-7.62 6.996,-5.08 12.368,-11.7 16.118,-19.86 3.75,-8.17 5.625,-16.51 5.625,-25.02 0,-9.61 -2.364,-18.52 -7.086,-26.72 -4.731,-8.21 -11.161,-14.73 -19.286,-19.57 -8.125,-4.84 -16.953,-7.27 -26.48,-7.27 -7.891,0 -15.137,2.03 -21.734,6.09 -6.606,4.07 -11.805,9.54 -15.594,16.41 -3.785,6.88 -5.68,14.18 -5.68,21.92 0,3.59 1.172,6.52 3.512,8.79 2.344,2.26 5.273,3.4 8.789,3.4 3.516,0 6.465,-1.16 8.851,-3.46 2.383,-2.31 3.579,-5.22 3.579,-8.73 0,-3.44 -1.196,-6.35 -3.579,-8.73 -2.386,-2.39 -5.335,-3.58 -8.851,-3.58 -0.543,0 -1.168,0.06 -1.875,0.18 -0.699,0.12 -1.207,0.21 -1.52,0.29"
                   style="fill:#262626;fill-opacity:1;fill-rule:nonzero;stroke:none"
                   id="path22920" /><path
                   d="m 787,2136.4995 c -19.609,0 -32.949,8.07 -40.02,24.2 -7.07,16.14 -10.605,35.33 -10.605,57.6 0,13.9 1.27,26.99 3.809,39.26 2.543,12.26 7.578,22.67 15.113,31.23 7.539,8.55 18.109,12.83 31.703,12.83 10.547,0 19.176,-2.58 25.898,-7.74 6.719,-5.15 11.836,-11.81 15.352,-19.98 3.516,-8.16 5.918,-16.91 7.207,-26.25 1.289,-9.33 1.934,-19.12 1.934,-29.35 0,-13.75 -1.27,-26.62 -3.809,-38.61 -2.539,-12 -7.519,-22.19 -14.941,-30.59 -7.422,-8.4 -17.969,-12.6 -31.641,-12.6 z m 0,6.21 c 8.906,0 15.547,4.57 19.922,13.71 4.375,9.14 7.066,19.26 8.082,30.35 1.016,11.1 1.523,22.9 1.523,35.4 0,12.03 -0.507,23.12 -1.523,33.28 -1.016,10.16 -3.688,19.35 -8.024,27.6 -4.335,8.24 -10.996,12.36 -19.98,12.36 -9.066,0 -15.785,-4.14 -20.16,-12.43 -4.375,-8.28 -7.07,-17.47 -8.086,-27.59 -1.016,-10.12 -1.52,-21.19 -1.52,-33.22 0,-8.91 0.215,-17.31 0.645,-25.2 0.43,-7.89 1.582,-16.04 3.457,-24.43 1.875,-8.4 4.902,-15.47 9.082,-21.21 4.18,-5.74 9.707,-8.62 16.582,-8.62"
                   style="fill:#262626;fill-opacity:1;fill-rule:nonzero;stroke:none"
                   id="path22922" /><path
                   d="m 787,2723.3795 c -19.609,0 -32.949,8.07 -40.02,24.2 -7.07,16.13 -10.605,35.33 -10.605,57.59 0,13.91 1.27,26.99 3.809,39.26 2.543,12.27 7.578,22.68 15.113,31.23 7.539,8.56 18.109,12.84 31.703,12.84 10.547,0 19.176,-2.58 25.898,-7.74 6.719,-5.16 11.836,-11.82 15.352,-19.98 3.516,-8.17 5.918,-16.92 7.207,-26.25 1.289,-9.34 1.934,-19.12 1.934,-29.36 0,-13.75 -1.27,-26.62 -3.809,-38.61 -2.539,-11.99 -7.519,-22.19 -14.941,-30.58 -7.422,-8.4 -17.969,-12.6 -31.641,-12.6 z m 0,6.21 c 8.906,0 15.547,4.57 19.922,13.71 4.375,9.14 7.066,19.25 8.082,30.35 1.016,11.1 1.523,22.89 1.523,35.39 0,12.03 -0.507,23.12 -1.523,33.28 -1.016,10.16 -3.688,19.36 -8.024,27.6 -4.335,8.24 -10.996,12.36 -19.98,12.36 -9.066,0 -15.785,-4.14 -20.16,-12.42 -4.375,-8.28 -7.07,-17.48 -8.086,-27.59 -1.016,-10.12 -1.52,-21.2 -1.52,-33.23 0,-8.9 0.215,-17.3 0.645,-25.2 0.43,-7.89 1.582,-16.03 3.457,-24.43 1.875,-8.39 4.902,-15.46 9.082,-21.21 4.18,-5.74 9.707,-8.61 16.582,-8.61"
                   style="fill:#262626;fill-opacity:1;fill-rule:nonzero;stroke:none"
                   id="path22924" /><path
                   d="m 627.859,3342.8295 c 1.637,-4.69 4.157,-8.94 7.559,-12.77 3.398,-3.83 7.422,-6.82 12.066,-8.97 4.653,-2.14 9.477,-3.22 14.477,-3.22 11.562,0 19.535,4.49 23.91,13.47 4.375,8.99 6.563,19.89 6.563,32.7 0,5.55 -0.102,10.21 -0.301,14.01 -0.195,3.79 -0.719,7.44 -1.574,10.95 -1.485,5.63 -4.086,10.55 -7.801,14.77 -3.711,4.21 -8.262,6.32 -13.649,6.32 -5.39,0 -10.019,-0.82 -13.882,-2.46 -3.872,-1.64 -7.016,-3.55 -9.438,-5.74 -2.426,-2.18 -4.574,-4.49 -6.449,-6.91 -1.875,-2.43 -3.043,-3.71 -3.512,-3.87 h -2.699 c -0.391,0 -0.875,0.25 -1.461,0.77 -0.586,0.5 -0.879,0.99 -0.879,1.46 v 80.16 c 0,0.39 0.254,0.8 0.758,1.23 0.512,0.43 1.039,0.64 1.582,0.64 h 0.707 c 10.777,-5.16 22.223,-7.74 34.336,-7.74 11.875,0 23.316,2.58 34.332,7.74 h 0.707 c 0.543,0 1.051,-0.19 1.523,-0.59 0.469,-0.39 0.704,-0.82 0.704,-1.28 v -2.23 c 0,-0.79 -0.157,-1.18 -0.473,-1.18 -5.465,-7.26 -12.32,-12.93 -20.567,-16.98 -8.238,-4.07 -16.773,-6.1 -25.601,-6.1 -6.406,0 -12.969,0.9 -19.688,2.7 v -45.35 c 5.313,4.29 10.063,7.35 14.243,9.19 4.179,1.84 9.507,2.76 15.988,2.76 8.832,0 16.738,-2.54 23.73,-7.62 6.996,-5.08 12.368,-11.7 16.118,-19.86 3.75,-8.17 5.625,-16.51 5.625,-25.02 0,-9.61 -2.364,-18.52 -7.086,-26.72 -4.731,-8.21 -11.161,-14.73 -19.286,-19.57 -8.125,-4.84 -16.953,-7.27 -26.48,-7.27 -7.891,0 -15.137,2.03 -21.734,6.09 -6.606,4.07 -11.805,9.54 -15.594,16.41 -3.785,6.88 -5.68,14.18 -5.68,21.92 0,3.59 1.172,6.52 3.512,8.79 2.344,2.26 5.273,3.4 8.789,3.4 3.516,0 6.465,-1.16 8.851,-3.46 2.383,-2.31 3.579,-5.22 3.579,-8.73 0,-3.44 -1.196,-6.35 -3.579,-8.73 -2.386,-2.39 -5.335,-3.58 -8.851,-3.58 -0.543,0 -1.168,0.06 -1.875,0.18 -0.699,0.12 -1.207,0.21 -1.52,0.29"
                   style="fill:#262626;fill-opacity:1;fill-rule:nonzero;stroke:none"
                   id="path22926" /><path
                   d="m 787,3310.2495 c -19.609,0 -32.949,8.07 -40.02,24.21 -7.07,16.13 -10.605,35.32 -10.605,57.59 0,13.9 1.27,26.99 3.809,39.26 2.543,12.26 7.578,22.67 15.113,31.23 7.539,8.55 18.109,12.83 31.703,12.83 10.547,0 19.176,-2.58 25.898,-7.74 6.719,-5.15 11.836,-11.81 15.352,-19.98 3.516,-8.16 5.918,-16.91 7.207,-26.25 1.289,-9.33 1.934,-19.12 1.934,-29.35 0,-13.75 -1.27,-26.62 -3.809,-38.61 -2.539,-12 -7.519,-22.19 -14.941,-30.59 -7.422,-8.4 -17.969,-12.6 -31.641,-12.6 z m 0,6.21 c 8.906,0 15.547,4.57 19.922,13.71 4.375,9.14 7.066,19.26 8.082,30.35 1.016,11.1 1.523,22.9 1.523,35.4 0,12.03 -0.507,23.12 -1.523,33.28 -1.016,10.16 -3.688,19.35 -8.024,27.6 -4.335,8.24 -10.996,12.36 -19.98,12.36 -9.066,0 -15.785,-4.14 -20.16,-12.43 -4.375,-8.27 -7.07,-17.47 -8.086,-27.59 -1.016,-10.12 -1.52,-21.19 -1.52,-33.22 0,-8.91 0.215,-17.31 0.645,-25.2 0.43,-7.89 1.582,-16.04 3.457,-24.43 1.875,-8.4 4.902,-15.47 9.082,-21.21 4.18,-5.74 9.707,-8.62 16.582,-8.62"
                   style="fill:#262626;fill-opacity:1;fill-rule:nonzero;stroke:none"
                   id="path22928" /><path
                   d="m 509.266,3902.3995 v 8.44 c 20,0 30,2.54 30,7.62 v 125.97 c -8.282,-3.98 -18.754,-5.97 -31.407,-5.97 v 8.43 c 19.61,0 34.414,5.12 44.414,15.36 h 3.399 c 0.543,0 1.07,-0.22 1.582,-0.65 0.508,-0.43 0.762,-0.92 0.762,-1.47 v -141.67 c 0,-5.08 10,-7.62 30,-7.62 v -8.44 h -78.75"
                   style="fill:#262626;fill-opacity:1;fill-rule:nonzero;stroke:none"
                   id="path22930" /><path
                   d="m 667,3897.1295 c -19.609,0 -32.949,8.07 -40.02,24.2 -7.07,16.13 -10.605,35.33 -10.605,57.59 0,13.91 1.27,26.99 3.809,39.26 2.543,12.27 7.578,22.68 15.113,31.23 7.539,8.56 18.109,12.84 31.703,12.84 10.547,0 19.176,-2.58 25.898,-7.74 6.719,-5.16 11.836,-11.82 15.352,-19.98 3.516,-8.17 5.918,-16.92 7.207,-26.25 1.289,-9.34 1.934,-19.12 1.934,-29.36 0,-13.75 -1.27,-26.62 -3.809,-38.61 -2.539,-11.99 -7.519,-22.19 -14.941,-30.58 -7.422,-8.4 -17.969,-12.6 -31.641,-12.6 z m 0,6.21 c 8.906,0 15.547,4.57 19.922,13.71 4.375,9.14 7.066,19.25 8.082,30.35 1.016,11.1 1.523,22.89 1.523,35.39 0,12.03 -0.507,23.12 -1.523,33.28 -1.016,10.16 -3.688,19.36 -8.024,27.6 -4.335,8.24 -10.996,12.36 -19.98,12.36 -9.066,0 -15.785,-4.14 -20.16,-12.42 -4.375,-8.28 -7.07,-17.48 -8.086,-27.59 -1.016,-10.12 -1.52,-21.2 -1.52,-33.23 0,-8.9 0.215,-17.3 0.645,-25.2 0.43,-7.89 1.582,-16.03 3.457,-24.43 1.875,-8.39 4.902,-15.46 9.082,-21.2 4.18,-5.75 9.707,-8.62 16.582,-8.62"
                   style="fill:#262626;fill-opacity:1;fill-rule:nonzero;stroke:none"
                   id="path22932" /><path
                   d="m 787,3897.1295 c -19.609,0 -32.949,8.07 -40.02,24.2 -7.07,16.13 -10.605,35.33 -10.605,57.59 0,13.91 1.27,26.99 3.809,39.26 2.543,12.27 7.578,22.68 15.113,31.23 7.539,8.56 18.109,12.84 31.703,12.84 10.547,0 19.176,-2.58 25.898,-7.74 6.719,-5.16 11.836,-11.82 15.352,-19.98 3.516,-8.17 5.918,-16.92 7.207,-26.25 1.289,-9.34 1.934,-19.12 1.934,-29.36 0,-13.75 -1.27,-26.62 -3.809,-38.61 -2.539,-11.99 -7.519,-22.19 -14.941,-30.58 -7.422,-8.4 -17.969,-12.6 -31.641,-12.6 z m 0,6.21 c 8.906,0 15.547,4.57 19.922,13.71 4.375,9.14 7.066,19.25 8.082,30.35 1.016,11.1 1.523,22.89 1.523,35.39 0,12.03 -0.507,23.12 -1.523,33.28 -1.016,10.16 -3.688,19.36 -8.024,27.6 -4.335,8.24 -10.996,12.36 -19.98,12.36 -9.066,0 -15.785,-4.14 -20.16,-12.42 -4.375,-8.28 -7.07,-17.48 -8.086,-27.59 -1.016,-10.12 -1.52,-21.2 -1.52,-33.23 0,-8.9 0.215,-17.3 0.645,-25.2 0.43,-7.89 1.582,-16.03 3.457,-24.43 1.875,-8.39 4.902,-15.46 9.082,-21.2 4.18,-5.75 9.707,-8.62 16.582,-8.62"
                   style="fill:#262626;fill-opacity:1;fill-rule:nonzero;stroke:none"
                   id="path22934" /><path
                   d="m 120.82,2786.2795 c -3.824,0 -7.179,1.47 -10.07,4.4 -2.891,2.93 -4.336,6.3 -4.336,10.14 0,2.34 0.625,4.66 1.875,6.96 1.25,2.31 3.027,4.11 5.332,5.4 2.301,1.28 4.699,1.93 7.199,1.93 3.75,0 7.09,-1.41 10.02,-4.22 2.933,-2.81 4.398,-6.17 4.398,-10.07 0,-3.84 -1.465,-7.21 -4.398,-10.14 -2.93,-2.93 -6.27,-4.4 -10.02,-4.4"
                   style="fill:#262626;fill-opacity:1;fill-rule:nonzero;stroke:none"
                   id="path22936" /><path
                   d="m 284.883,2744.0995 c 0,-2.19 -0.68,-4.05 -2.047,-5.57 -1.363,-1.52 -3.141,-2.28 -5.332,-2.28 -1.016,0 -1.793,0.07 -2.34,0.23 l -78.285,19.57 c -4.918,1.33 -9.219,1.99 -12.891,1.99 -7.5,0 -11.25,-2.58 -11.25,-7.73 0,-5.47 3.262,-9.53 9.785,-12.18 6.528,-2.66 14.79,-5.2 24.79,-7.63 0.542,0 0.972,-0.27 1.289,-0.81 0.308,-0.55 0.464,-1.03 0.464,-1.41 v -3.05 c 0,-0.62 -0.332,-1.15 -0.996,-1.58 -0.668,-0.43 -1.23,-0.65 -1.695,-0.65 -7.66,1.88 -14.125,3.7 -19.395,5.46 -5.277,1.75 -10.101,4.48 -14.476,8.19 -4.375,3.72 -6.563,8.35 -6.563,13.89 0,6.49 2.051,12.29 6.149,17.4 4.105,5.12 9.402,7.69 15.887,7.69 -6.801,5.07 -12.172,11.06 -16.118,17.98 -3.945,6.91 -5.918,14.43 -5.918,22.56 0,9.14 2.461,16.46 7.379,21.97 4.926,5.51 11.918,8.26 20.981,8.26 5.234,0 10.039,-0.58 14.414,-1.76 l 121.523,-30.47 c 2.5,-0.54 4.512,-1.83 6.035,-3.86 1.528,-2.03 2.29,-4.33 2.29,-6.92 0,-2.1 -0.645,-3.94 -1.938,-5.5 -1.289,-1.57 -3.066,-2.35 -5.332,-2.35 -1.016,0 -1.68,0.08 -1.992,0.24 l -121.051,30.11 c -7.191,1.8 -13.168,2.7 -17.934,2.7 -4.843,0 -8.984,-1.02 -12.418,-3.05 -3.441,-2.03 -5.16,-5.31 -5.16,-9.84 0,-17.19 10.586,-31.45 31.762,-42.78 l 71.715,-17.81 c 2.344,-0.63 4.375,-1.99 6.098,-4.09 1.714,-2.11 2.57,-4.42 2.57,-6.92"
                   style="fill:#262626;fill-opacity:1;fill-rule:nonzero;stroke:none"
                   id="path22938" /><path
                   d="m 915,2786.2495 0.523,-6.79 2.329,-15.91 7.25,-43.5 20.882,-113.75 56.626,-262.55 138.2,-419.62 238.93,32.98 78.87,1202.44 -208.25,453.79 -139.9,-579.8 26.85,-743.03 194.37,-433.67 178.13,886.65 -158.83,863.39 -164.81,-547.4 40.9,-874.66 221.3,-165.73 61.82,1205.54 -208.71,208.41 -62.55,-896.82 171.71,-582.51 147.31,948.05 -180.5,588.7 -97.01,-841.09 154.68,-647.97 141.41,910.65 -177.23,516.25 -72.5,-893.21 176.97,-448.13 71.45,1067.44 -186.48,83.42 6.64,-964.22 196.73,111.56 -63.86,1006.6 -140.32,-571.74 126.09,-704.69 110.4,885.25 -171.12,226.3 6.76,-939.76 179.94,253.29 -100.5,810.02 -87.81,-772.31 166.41,-291.17 -8.03,982.85 -137.79,-449.52 125.49,-605.39 57.96,913.22 -152.79,-159.9 88.99,-743.03 91.38,794.03 -151.3,13.02 68.7,-779.57 100.27,723.16 -146.27,55.91 66.94,-759.43 90.94,724.87 -141.39,-19.93 81.84,-687.15 64.05,776.1 -131.79,-197.55 107.77,-533.35 18.14,812.85 -107.21,-440.22 132.71,-257.24 -43.04,734.2 -57.5,-663.69 135.43,144.19 -100.55,443.67 17.55,-726.52 91.38,556.12 -119.85,-50.47 95.28,-479.37 -1.72,715.71 -71.11,-536.05 124.52,80.08 -92.78,387.84 32.01,-649.18 58.94,601.1 -98.53,-269.12 113.01,-178.03 -61.35,520.95 2.48,-630.75 73.55,497.79 -97.61,-177.37 104.54,-204.04 -57.45,489.46 9.27,-593.82 58.06,512.5 -84.22,-271.35 104.39,-44.71 -76.14,325.01 45.16,-507.24 12.88,556.75 -46.42,-459.47 87.54,263.29 -87.62,-22.18 87.64,-218.57 -53.18,399.49 27.26,-494.38 19.68,502.57 -42.21,-420.26 76.3,278.58 -77.93,-105.3 87.21,-77.41 -66.94,235.23 56.81,-357.15 -23.83,432.6 7.72,-454.49 26.09,434.93 -37.02,-374.13 62.81,287.79 -63.5,-185.8 78.06,76.18 -68.71,28.14 73.64,-125.41 -57.05,207 56.25,-273.14 -36.09,322.67 33.38,-354.98 -12.7,374.24 10.77,-379.4 8.49,376.17 -8.3,-363.85 25.2,347.48 -22.58,-326.83 37.05,305.42 -32.2,-283.37 44.53,262.64 -37.91,-243.52 48.56,226.98 -40.65,-213.19 50.06,202.56 -41.2,-195.05 49.62,190.77 -40,-189.55 47.57,191.31 -37.19,-195.64 43.85,202.47 -32.62,-211.04 38.24,221.14 -25.96,-231.88 30.33,242.54 -16.84,-252.44 19.89,260.2 -5.14,-265.15 6.98,265.54 8.77,-260.89 -7.6,249.16 23.6,-230.2 -22.06,202.79 36.95,-166.89 -33.5,123.18 45.47,-71.93 -38.34,16.59 45.62,41.64 -33.45,-97.27 35.17,147.43 -17.84,-186.53 15.07,210.04 5.39,-215.03 -9.17,198.21 28.35,-160.55 -28.07,104.42 40.55,-34.8 -31.67,-38.61 34.18,107.34 -15.93,-159.52 10.73,186.12 11.87,-181.81 -16.63,144.71 33.93,-80.57 -28.83,1.33 33.05,78.4 -14.82,-139.66 8.31,167.91 15.26,-155.45 -19.61,103.16 33.75,-23.59 -23.4,-61.04 20.97,127.25 2.41,-153.76 -10.18,130.51 29.11,-64.26 -23.18,-22.84 23.28,100.89 -0.5,-139.85 -8.02,123.53 27.35,-57.68 -20.85,-30.85 19.26,104.8 4.71,-130.26 -12.37,94.4 27.66,-13.6 -15.32,-72.06 8.66,119.06 15.84,-101.83 -17.84,29.05 22.89,58.93 -1.42,-110.39 -7.52,94.16 24.56,-19.82 -12.73,-65.25 5.42,105.58 18.02,-73.58 -15.86,-8.75 14.79,83 9.42,-94.39 -13.74,34.28 19.44,51.03 2.48,-93.42 -9.94,58.5 20.73,24.55 -1.73,-84.17 -6.72,68.22 20.42,8.8 -3.5,-75.45 -4.99,69.02 19.64,4.03 -3.35,-70.89 -4.9,64.14 18.75,8.84 -1.57,-70.23 -6.14,53.94 17.41,21.49 1.79,-70.29 -8.02,36.69 14.88,39.02 6.51,-65.39 -9.23,10.91 10.25,55.42 11.71,-48.83 -8.06,-20.96 3.45,60.64 15.18,-16.93 -2.92,-48.55 -3.74,43.81 14,23.32 5.53,-54.15 -7.27,3.9 6.83,50.35 12.82,-25.33 -3.18,-38.25 -2.65,38.83 12.37,23.32 6.89,-44.82 -5.8,-9.17 2.98,45.51 12.82,-1.92 2.27,-43.29 -5.03,9.85 6.21,39.98 11.55,-14.41 0.29,-36.9 -3.84,16.45 7.02,34.64 10.68,-16.08 0.34,-33.4 -3.37,13.96 6.12,32.92 10.48,-9.86 2,-32.71 -3.32,4.18 3.7,31.99 10.14,3.11 5.03,-29.71 -2.37,-11.12 0.3,24.83 8.04,18.97 8.28,-16.63 1.05,-24.56 -2.05,5.44 3.32,25.72 8.69,7.33 6.35,-20.62 0.1,-18.04 -1.14,9.24 3.92,22.6 8.14,5.49 6.14,-17.7 0.88,-17.29 -0.89,4.38 2.68,19.52 6.97,10.95 7.02,-9.58 3.1,-18.18 -0.21,-6.54 0.56,11.28 4.23,16.41 6.91,4.85 6.05,-10.6 2.79,-15.07 0.32,-5.43 0.79,8.34 3.48,14.01 5.94,7.67 6.22,-4.34 4.3,-12.12 1.84,-10.21 0.72,-1.05 1.53,8.14 3.57,11.13 5.32,6.72 5.75,-1.48 4.74,-8.1 3.05,-9.53 1.68,-5.61 1.32,0.89 2.02,6.35 3.31,8.29 4.51,6.31 5.1,1.82 4.93,-2.97 4.18,-6.09 3.2,-6.69 2.37,-4.87 1.97,-1.69 2.02,1.65 2.46,4.14 3.08,5.19 3.68,4.83 4.14,3.4 4.37,1.43 4.34,-0.55 4.15,-2.12 3.84,-3.11 3.51,-3.46 3.18,-3.26 2.96,-2.65 2.79,-1.86 2.71,-1.01 2.73,-0.25 2.77,0.42 2.85,0.85 2.95,1.14 3.04,1.28 3.13,1.29 3.19,1.22 3.25,1.08 3.29,0.91 3.3,0.74 3.32,0.55 3.32,0.39 3.31,0.21 3.3,0.06 3.29,-0.09 3.28,-0.24 3.28,-0.38 3.28,-0.52 3.29,-0.65 3.31,-0.77 3.35,-0.86 3.39,-0.91 3.44,-0.89 3.52,-0.82 3.57,-0.62 3.64,-0.33 3.68,0.08 3.67,0.6 3.64,1.14 3.53,1.67 3.36,2.05 3.14,2.16 2.9,1.93 2.69,1.26 2.57,0.24 2.59,-0.97 2.78,-2.07 3.12,-2.69 3.52,-2.54 3.87,-1.5 4.02,0.2 3.83,1.98 3.39,3.05 2.8,2.82 2.37,1.18 2.35,-1.22 2.81,-3.07 3.53,-3.19 4.1,-1.25 4.07,1.65 3.4,3.55 2.54,2.81 2.14,-0.21 2.63,-3.2 3.62,-3.43 4.27,-0.41 3.82,3.15 2.7,3.56 2.03,0.09 2.66,-3.61 3.93,-3.07 4.28,1.39 3.17,4.18 2,1.31 2.46,-3.51 3.97,-3.18 4.26,2.05 2.78,4.12 1.88,-0.61 3.17,-4.34 4.43,-0.34 3.34,4.34 1.84,0.78 2.9,-4.33 4.47,-0.61 3.23,4.44 1.77,-0.13 3.36,-4.39 4.41,1.49 2.43,3.85 2.14,-3.17 4.34,-2.18 3.39,4.42 1.74,-0.67 3.83,-3.86 3.92,3.68 1.72,0.71 3.58,-4.23 4.03,3.45 1.69,0.57 3.76,-3.94 3.72,4.04 1.71,-1.09 4.3,-2.46 2.84,4.36 2.3,-3.66 4.48,1.14 1.78,1.78 3.8,-3.78 3.2,4.34 2.24,-3.48 4.39,1.8 1.65,0.16 4.36,-1.87 2.13,3.13 3.64,-3.84 2.91,4.14 2.9,-4.09 3.5,3.91 2.45,-3.65 3.81,3.45 2.28,-3.29 3.85,3.27 2.33,-3.34 3.67,3.52 2.65,-3.67 3.19,3.79 3.27,-3.72 2.45,3.35 4.04,-2.49 1.8,1.19 4.35,0.5 2.03,-2.16 3.45,3.3 3.44,-3.25 1.98,1.8 4.25,0.63 2.39,-2.71 2.68,3.01 4.15,-0.97 2.14,-1.88 0.2,-0.1"
                   style="fill:none;stroke:#0072bd;stroke-width:15;stroke-linecap:butt;stroke-linejoin:round;stroke-miterlimit:10;stroke-dasharray:none;stroke-opacity:1"
                   id="path22940" /><path
                   d="m 1472.06,2749.3895 7.93,0.25 7.82,0.49 7.72,0.47 7.61,0.45 7.53,0.42 7.44,0.41 7.34,0.39 7.27,0.37 7.19,0.36 7.12,0.35 7.04,0.33 6.97,0.31 6.91,0.31 6.83,0.3 6.78,0.29 6.72,0.27 6.65,0.27 6.61,0.26 6.54,0.25 6.5,0.24 6.44,0.23 6.39,0.24 6.34,0.22 6.3,0.21 6.25,0.21 6.2,0.21 6.17,0.2 6.12,0.19 6.07,0.19 6.04,0.19 6,0.18 5.96,0.17 5.93,0.17 5.89,0.17 5.86,0.16 5.81,0.16 5.78,0.16 5.75,0.15 5.73,0.15 5.68,0.15 5.66,0.14 5.62,0.13 5.59,0.15 5.57,0.13 5.54,0.13 5.51,0.13 5.48,0.12 5.45,0.13 5.43,0.12 5.4,0.12 5.38,0.12 5.35,0.12 5.33,0.11 5.3,0.11 5.28,0.11 5.26,0.11 5.23,0.1 5.21,0.11 5.19,0.1 5.17,0.1 5.14,0.1 5.12,0.1 5.11,0.09 5.08,0.1 5.06,0.09 5.04,0.09 5.03,0.09 5,0.09 4.99,0.09 4.96,0.08 4.94,0.09 4.94,0.09 4.9,0.08 4.9,0.08 4.88,0.08 4.86,0.08 4.84,0.08 4.83,0.08 4.8,0.07 4.79,0.07 4.78,0.08 4.77,0.08 4.74,0.06 4.73,0.08 4.71,0.06 4.7,0.08 4.69,0.07 4.67,0.06 4.65,0.07 4.64,0.07 4.63,0.06 4.61,0.07 4.6,0.06 4.59,0.06 4.57,0.06 4.56,0.07 4.54,0.06 4.53,0.06 4.52,0.06 4.51,0.05 4.49,0.07 4.49,0.06 4.47,0.05 4.45,0.06 4.45,0.06 4.43,0.05 4.42,0.05 4.41,0.06 4.4,0.06 4.39,0.05 4.37,0.05 4.36,0.05 4.35,0.05 4.35,0.05 4.33,0.05 4.32,0.06 4.31,0.04 4.29,0.05 4.29,0.05 4.28,0.05 4.27,0.04 4.25,0.05 4.25,0.05 4.24,0.05 4.22,0.04 4.22,0.05 4.21,0.04 4.19,0.05 4.2,0.04 4.17,0.05 4.17,0.04 4.16,0.04 4.15,0.05 4.14,0.04 4.14,0.04 4.12,0.04 4.11,0.04 4.11,0.04 4.09,0.04 4.09,0.05 4.08,0.03 4.08,0.04 4.06,0.04 4.05,0.05 4.05,0.03 4.04,0.04 4.02,0.04 4.02,0.03 4.01,0.04 4.01,0.04 4,0.04 3.99,0.04 3.98,0.02 3.98,0.04 3.95,0.04 3.97,0.04 3.95,0.04 3.94,0.02 3.93,0.04 3.93,0.03 3.92,0.04 6.56,0.03 3.91,0.04 3.91,0.03 3.89,0.04 3.9,0.03 3.88,0.03 3.88,0.03 3.88,0.03 3.86,0.03 3.86,0.04 3.86,0.03 3.85,0.03 3.84,0.03 3.83,0.03 3.82,0.03 3.83,0.04 3.82,0.03 3.8,0.03 3.81,0.03 3.79,0.02 3.79,0.03 3.79,0.03 3.78,0.03 3.77,0.03 3.77,0.03 3.75,0.03 3.76,0.02 3.75,0.03 3.74,0.03 3.74,0.03 3.73,0.02 3.72,0.04 3.72,0.03 3.72,0.02 3.7,0.03 3.71,0.02 3.69,0.03 3.69,0.03 3.69,0.02 3.68,0.03 3.66,0.02 3.68,0.03 3.66,0.03 3.65,0.02 3.65,0.03 3.66,0.02 3.63,0.03 3.64,0.02 3.63,0.03 3.62,0.02 3.62,0.03 3.61,0.02 3.61,0.02 3.61,0.03 3.6,0.02 3.59,0.03 3.59,0.02 3.58,0.03 3.58,0.02 3.57,0.02 3.57,0.02 3.56,0.03 3.56,0.02 3.55,0.02 3.54,0.02 3.54,0.03 3.54,0.02 3.54,0.02 3.52,0.02 3.53,0.03 3.51,0.02 3.51,0.02 3.51,0.02 3.51,0.03 3.49,0.02 3.49,0.02 3.49,0.01 3.48,0.03 3.48,0.02 3.48,0.02 3.47,0.02 3.46,0.02 3.46,0.02 3.46,0.03 3.45,0.01 3.44,0.02 3.44,0.02 3.44,0.03 3.43,0.01 3.43,0.03 3.42,0.02 3.42,0.01 3.41,0.03 3.41,0.01 3.41,0.02 3.41,0.02 3.39,0.02 3.39,0.02 3.38,0.02 3.39,0.02 3.38,0.01 3.38,0.03 3.36,0.01 3.37,0.03 3.36,0.01 3.36,0.02 3.35,0.02 3.36,0.01 3.33,0.03 3.35,0.01 3.33,0.02 3.34,0.02 3.32,0.01 3.33,0.03 3.32,0.01 3.32,0.02 3.3,0.02 3.31,0.01 3.31,0.02 3.3,0.02 3.29,0.01 3.29,0.02 3.29,0.02 3.28,0.02 3.28,0.01 3.28,0.02 3.27,0.02 3.27,0.01 3.26,0.02 3.25,0.02 3.27,0.01 3.25,0.02 3.24,0.02 3.25,0.01 3.24,0.02 3.23,0.01 3.24,0.02 3.23,0.02 3.22,0.01 3.23,0.02 3.21,0.02 3.21,0.01 3.22,0.02 3.21,0.01 3.2,0.01 3.19,0.02 3.2,0.02 3.19,0.01 3.19,0.02 3.18,0.01 3.19,0.01 3.17,0.02 3.17,0.02 3.18,0.01 3.16,0.02 3.16,0.01 3.16,0.01 3.16,0.02 3.15,0.02 3.15,0.01 3.15,0.02 3.14,0.01 3.14,0.01 3.13,0.02 3.13,0.02 3.13,0.01 3.13,0.02 3.11,0.01 3.12,0.01 3.12,0.01 3.11,0.02 3.11,0.01 3.1,0.02 3.1,0.01 3.09,0.02 h 3.1 l 3.09,0.02 3.09,0.01 3.09,0.02 3.08,0.02 h 3.07 l 3.08,0.02 3.06,0.01 3.08,0.02 3.06,0.01 3.06,0.01 3.06,0.02 3.05,0.01 3.06,0.02 h 3.05 l 3.04,0.02 3.04,0.01 3.05,0.02 3.02,0.01 3.04,0.01 3.03,0.02 h 3.02 l 3.03,0.02 3.02,0.01 3.02,0.01 3.01,0.02 3.01,0.01 3.01,0.01 3,0.01 3,0.02 h 3 l 3,0.02 2.99,0.02 h 2.99 l 2.99,0.02 2.98,0.01 2.99,0.01 2.97,0.01 2.97,0.01 2.98,0.02 2.97,0.01 2.96,0.01 2.97,0.02 h 2.96 l 2.95,0.02 h 2.96 l 2.95,0.02 2.95,0.01 2.94,0.01 2.95,0.01 2.94,0.02 2.93,0.01 2.93,0.01 2.93,0.01 2.94,0.01 2.92,0.01 2.93,0.01 2.92,0.02 2.91,0.01 2.91,0.01 2.92,0.01 2.91,0.01 2.9,0.01 2.9,0.01 2.91,0.01 2.89,0.01 2.9,0.02 h 2.89 l 2.89,0.02 2.89,0.01 2.88,0.01 2.89,0.01 2.88,0.01 2.87,0.01 2.87,0.01 2.87,0.01 2.87,0.01 2.87,0.01 2.86,0.01 2.86,0.01 2.86,0.01 2.86,0.01 2.85,0.02 2.85,0.01 h 2.85 l 2.84,0.02 2.84,0.01 h 2.84 l 2.84,0.02 h 2.83 l 2.83,0.02 2.83,0.01 2.83,0.01 2.82,0.01 2.82,0.01 2.82,0.01 2.82,0.01 2.82,0.01 h 2.81 l 2.8,0.02 2.81,0.01 2.8,0.01 h 2.81 l 2.8,0.02 2.8,0.01 h 2.78 l 2.8,0.02 h 2.79 l 2.79,0.01 2.78,0.02 2.78,0.01 h 2.78 l 2.78,0.01 2.77,0.02 h 2.78 l 2.76,0.01 2.77,0.01 2.77,0.01 2.76,0.01 2.77,0.01 2.75,0.01 2.76,0.01 2.75,0.01 2.76,0.01 h 2.74 0.06"
                   style="fill:none;stroke:#ff0000;stroke-width:15;stroke-linecap:butt;stroke-linejoin:bevel;stroke-miterlimit:10;stroke-dasharray:60, 60;stroke-dashoffset:0;stroke-opacity:1"
                   id="path22942" /><path
                   d="m 2292.94,1856.8395 v 1756.5"
                   style="fill:none;stroke:#000000;stroke-width:15;stroke-linecap:butt;stroke-linejoin:bevel;stroke-miterlimit:10;stroke-dasharray:60, 60;stroke-dashoffset:0;stroke-opacity:1"
                   id="path22944" /></g><g
                 inkscape:label=""
                 transform="matrix(28.3464,0,0,-28.3464,2021.5312,6596.2172)"
                 id="g20645"><g
   id="surface1"
   transform="matrix(0.881944,0,0,0.881944,-81.9409,-65.686)">
    <g
   style="fill:#000000;fill-opacity:1"
   id="g23">
      <g
   id="use21"
   transform="translate(91.925003,81.962997)">
        <path
   style="stroke:none"
   d="m 3.296875,2.390625 c 0,-0.03125 0,-0.046875 -0.171875,-0.21875 C 1.890625,0.921875 1.5625,-0.96875 1.5625,-2.5 c 0,-1.734375 0.375,-3.46875 1.609375,-4.703125 0.125,-0.125 0.125,-0.140625 0.125,-0.171875 0,-0.078125 -0.03125,-0.109375 -0.09375,-0.109375 -0.109375,0 -1,0.6875 -1.59375,1.953125 -0.5,1.09375 -0.625,2.203125 -0.625,3.03125 0,0.78125 0.109375,1.984375 0.65625,3.125 C 2.25,1.84375 3.09375,2.5 3.203125,2.5 c 0.0625,0 0.09375,-0.03125 0.09375,-0.109375 z m 0,0"
   id="path38" />
      </g>
    </g>
    <g
   style="fill:#000000;fill-opacity:1"
   id="g27">
      <g
   id="use25"
   transform="translate(95.800003,81.962997)">
        <path
   style="stroke:none"
   d="M 3.71875,-3.765625 C 3.53125,-4.140625 3.25,-4.40625 2.796875,-4.40625 c -1.15625,0 -2.390625,1.46875 -2.390625,2.921875 0,0.9375 0.546875,1.59375 1.3125,1.59375 0.203125,0 0.703125,-0.046875 1.296875,-0.75 0.078125,0.421875 0.4375,0.75 0.90625,0.75 0.359375,0 0.578125,-0.234375 0.75,-0.546875 0.15625,-0.359375 0.296875,-0.96875 0.296875,-0.984375 0,-0.109375 -0.09375,-0.109375 -0.125,-0.109375 -0.09375,0 -0.109375,0.046875 -0.140625,0.1875 -0.171875,0.640625 -0.34375,1.234375 -0.75,1.234375 -0.28125,0 -0.296875,-0.265625 -0.296875,-0.453125 0,-0.21875 0.015625,-0.3125 0.125,-0.75 C 3.890625,-1.71875 3.90625,-1.828125 4,-2.203125 L 4.359375,-3.59375 c 0.0625,-0.28125 0.0625,-0.296875 0.0625,-0.34375 0,-0.171875 -0.109375,-0.265625 -0.28125,-0.265625 -0.25,0 -0.390625,0.21875 -0.421875,0.4375 z M 3.078125,-1.1875 C 3.015625,-1 3.015625,-0.984375 2.875,-0.8125 2.4375,-0.265625 2.03125,-0.109375 1.75,-0.109375 c -0.5,0 -0.640625,-0.546875 -0.640625,-0.9375 0,-0.5 0.3125,-1.71875 0.546875,-2.1875 0.3125,-0.578125 0.75,-0.953125 1.15625,-0.953125 0.640625,0 0.78125,0.8125 0.78125,0.875 0,0.0625 -0.015625,0.125 -0.03125,0.171875 z m 0,0"
   id="path42" />
      </g>
    </g>
    <g
   style="fill:#000000;fill-opacity:1"
   id="g31">
      <g
   id="use29"
   transform="translate(101.066,81.962997)">
        <path
   style="stroke:none"
   d="m 2.875,-2.5 c 0,-0.765625 -0.109375,-1.96875 -0.65625,-3.109375 -0.59375,-1.21875 -1.453125,-1.875 -1.546875,-1.875 -0.0625,0 -0.109375,0.046875 -0.109375,0.109375 0,0.03125 0,0.046875 0.1875,0.234375 0.984375,0.984375 1.546875,2.5625 1.546875,4.640625 0,1.71875 -0.359375,3.46875 -1.59375,4.71875 C 0.5625,2.34375 0.5625,2.359375 0.5625,2.390625 0.5625,2.453125 0.609375,2.5 0.671875,2.5 0.765625,2.5 1.671875,1.8125 2.25,0.546875 2.765625,-0.546875 2.875,-1.65625 2.875,-2.5 Z m 0,0"
   id="path46" />
      </g>
    </g>
  </g>
</g><g
                 inkscape:label=""
                 transform="matrix(28.3464,0,0,-28.3464,4674.1283,6587.4323)"
                 id="g21154"><g
   id="g21152"
   transform="matrix(0.881944,0,0,0.881944,-81.9409,-65.686)">
    <g
   style="fill:#000000;fill-opacity:1"
   id="g21138">
      <g
   id="g21136"
   transform="translate(91.925003,81.962997)">
        <path
   style="stroke:none"
   d="m 3.296875,2.390625 c 0,-0.03125 0,-0.046875 -0.171875,-0.21875 C 1.890625,0.921875 1.5625,-0.96875 1.5625,-2.5 c 0,-1.734375 0.375,-3.46875 1.609375,-4.703125 0.125,-0.125 0.125,-0.140625 0.125,-0.171875 0,-0.078125 -0.03125,-0.109375 -0.09375,-0.109375 -0.109375,0 -1,0.6875 -1.59375,1.953125 -0.5,1.09375 -0.625,2.203125 -0.625,3.03125 0,0.78125 0.109375,1.984375 0.65625,3.125 C 2.25,1.84375 3.09375,2.5 3.203125,2.5 c 0.0625,0 0.09375,-0.03125 0.09375,-0.109375 z m 0,0"
   id="path21134" />
      </g>
    </g>
    <g
   style="fill:#000000;fill-opacity:1"
   id="g21144">
      <g
   id="g21142"
   transform="translate(95.800003,81.962997)">
        <path
   style="stroke:none"
   d="m 2.375,-6.8125 c 0,0 0,-0.109375 -0.125,-0.109375 -0.21875,0 -0.953125,0.078125 -1.21875,0.109375 -0.078125,0 -0.1875,0.015625 -0.1875,0.1875 0,0.125 0.09375,0.125 0.25,0.125 0.46875,0 0.484375,0.0625 0.484375,0.171875 0,0.0625 -0.078125,0.40625 -0.125,0.609375 l -0.828125,3.25 c -0.109375,0.5 -0.15625,0.671875 -0.15625,1.015625 0,0.9375 0.53125,1.5625 1.265625,1.5625 1.171875,0 2.40625,-1.484375 2.40625,-2.921875 0,-0.90625 -0.53125,-1.59375 -1.328125,-1.59375 -0.453125,0 -0.875,0.296875 -1.171875,0.59375 z M 1.453125,-3.046875 C 1.5,-3.265625 1.5,-3.28125 1.59375,-3.390625 2.078125,-4.03125 2.53125,-4.1875 2.796875,-4.1875 c 0.359375,0 0.625,0.296875 0.625,0.9375 0,0.59375 -0.328125,1.734375 -0.515625,2.109375 -0.328125,0.671875 -0.78125,1.03125 -1.171875,1.03125 -0.34375,0 -0.671875,-0.265625 -0.671875,-1 0,-0.203125 0,-0.390625 0.15625,-1.015625 z m 0,0"
   id="path21140" />
      </g>
    </g>
    <g
   style="fill:#000000;fill-opacity:1"
   id="g21150">
      <g
   id="g21148"
   transform="translate(100.075,81.962997)">
        <path
   style="stroke:none"
   d="m 2.875,-2.5 c 0,-0.765625 -0.109375,-1.96875 -0.65625,-3.109375 -0.59375,-1.21875 -1.453125,-1.875 -1.546875,-1.875 -0.0625,0 -0.109375,0.046875 -0.109375,0.109375 0,0.03125 0,0.046875 0.1875,0.234375 0.984375,0.984375 1.546875,2.5625 1.546875,4.640625 0,1.71875 -0.359375,3.46875 -1.59375,4.71875 C 0.5625,2.34375 0.5625,2.359375 0.5625,2.390625 0.5625,2.453125 0.609375,2.5 0.671875,2.5 0.765625,2.5 1.671875,1.8125 2.25,0.546875 2.765625,-0.546875 2.875,-1.65625 2.875,-2.5 Z m 0,0"
   id="path21146" />
      </g>
    </g>
  </g>
</g><g
                 inkscape:label=""
                 transform="matrix(28.3464,0,0,-28.3464,2029.8256,3944.8952)"
                 id="g21557"><g
   id="g21555"
   transform="matrix(0.881944,0,0,0.881944,-81.9409,-65.686)">
    <g
   style="fill:#000000;fill-opacity:1"
   id="g21541">
      <g
   id="g21539"
   transform="translate(91.925003,81.962997)">
        <path
   style="stroke:none"
   d="m 3.296875,2.390625 c 0,-0.03125 0,-0.046875 -0.171875,-0.21875 C 1.890625,0.921875 1.5625,-0.96875 1.5625,-2.5 c 0,-1.734375 0.375,-3.46875 1.609375,-4.703125 0.125,-0.125 0.125,-0.140625 0.125,-0.171875 0,-0.078125 -0.03125,-0.109375 -0.09375,-0.109375 -0.109375,0 -1,0.6875 -1.59375,1.953125 -0.5,1.09375 -0.625,2.203125 -0.625,3.03125 0,0.78125 0.109375,1.984375 0.65625,3.125 C 2.25,1.84375 3.09375,2.5 3.203125,2.5 c 0.0625,0 0.09375,-0.03125 0.09375,-0.109375 z m 0,0"
   id="path21537" />
      </g>
    </g>
    <g
   style="fill:#000000;fill-opacity:1"
   id="g21547">
      <g
   id="g21545"
   transform="translate(95.800003,81.962997)">
        <path
   style="stroke:none"
   d="m 3.953125,-3.78125 c -0.171875,0 -0.296875,0 -0.4375,0.125 -0.171875,0.15625 -0.1875,0.328125 -0.1875,0.390625 0,0.25 0.1875,0.359375 0.375,0.359375 0.28125,0 0.546875,-0.25 0.546875,-0.640625 0,-0.484375 -0.46875,-0.859375 -1.171875,-0.859375 -1.34375,0 -2.671875,1.421875 -2.671875,2.828125 0,0.90625 0.578125,1.6875 1.625,1.6875 1.421875,0 2.25,-1.0625 2.25,-1.171875 0,-0.0625 -0.046875,-0.140625 -0.109375,-0.140625 -0.0625,0 -0.078125,0.03125 -0.140625,0.109375 -0.78125,0.984375 -1.875,0.984375 -1.984375,0.984375 -0.625,0 -0.90625,-0.484375 -0.90625,-1.09375 0,-0.40625 0.203125,-1.375 0.546875,-1.984375 0.3125,-0.578125 0.859375,-1 1.40625,-1 0.328125,0 0.71875,0.125 0.859375,0.40625 z m 0,0"
   id="path21543" />
      </g>
    </g>
    <g
   style="fill:#000000;fill-opacity:1"
   id="g21553">
      <g
   id="g21551"
   transform="translate(100.111,81.962997)">
        <path
   style="stroke:none"
   d="m 2.875,-2.5 c 0,-0.765625 -0.109375,-1.96875 -0.65625,-3.109375 -0.59375,-1.21875 -1.453125,-1.875 -1.546875,-1.875 -0.0625,0 -0.109375,0.046875 -0.109375,0.109375 0,0.03125 0,0.046875 0.1875,0.234375 0.984375,0.984375 1.546875,2.5625 1.546875,4.640625 0,1.71875 -0.359375,3.46875 -1.59375,4.71875 C 0.5625,2.34375 0.5625,2.359375 0.5625,2.390625 0.5625,2.453125 0.609375,2.5 0.671875,2.5 0.765625,2.5 1.671875,1.8125 2.25,0.546875 2.765625,-0.546875 2.875,-1.65625 2.875,-2.5 Z m 0,0"
   id="path21549" />
      </g>
    </g>
  </g>
</g></g></g></g></g></g></g></svg>
