<?xml version="1.0" encoding="UTF-8" standalone="no"?>
<!-- Created with Inkscape (http://www.inkscape.org/) -->

<svg
   width="204.13416mm"
   height="202.98146mm"
   viewBox="0 0 204.13415 202.98146"
   version="1.1"
   id="svg5"
   xml:space="preserve"
   sodipodi:docname="Lambda20_delta0p2_maxWt_PP.svg"
   inkscape:version="1.2.2 (1:1.2.2+202212051550+b0a8486541)"
   xmlns:inkscape="http://www.inkscape.org/namespaces/inkscape"
   xmlns:sodipodi="http://sodipodi.sourceforge.net/DTD/sodipodi-0.dtd"
   xmlns="http://www.w3.org/2000/svg"
   xmlns:svg="http://www.w3.org/2000/svg"><sodipodi:namedview
     id="namedview7"
     pagecolor="#ffffff"
     bordercolor="#666666"
     borderopacity="1.0"
     inkscape:showpageshadow="2"
     inkscape:pageopacity="0.0"
     inkscape:pagecheckerboard="0"
     inkscape:deskcolor="#d1d1d1"
     inkscape:document-units="mm"
     showgrid="false"
     inkscape:zoom="0.53543895"
     inkscape:cx="632.19159"
     inkscape:cy="395.00302"
     inkscape:window-width="1872"
     inkscape:window-height="1016"
     inkscape:window-x="48"
     inkscape:window-y="27"
     inkscape:window-maximized="1"
     inkscape:current-layer="g15604" /><defs
     id="defs2"><clipPath
       clipPathUnits="userSpaceOnUse"
       id="clipPath198"><path
         d="M 0,7207.5 H 14040 V 0 H 0 Z"
         id="path196" /></clipPath><clipPath
       clipPathUnits="userSpaceOnUse"
       id="clipPath668"><path
         d="m 12495,1380 h 165 v 4732.5 h -165 z"
         id="path666" /></clipPath><clipPath
       clipPathUnits="userSpaceOnUse"
       id="clipPath3937"><path
         d="m 11581,880 v 4730 h 166 V 880 Z"
         id="path3935" /></clipPath><clipPath
       clipPathUnits="userSpaceOnUse"
       id="clipPath4545"><path
         d="M 0,7207.5 H 14040 V 0 H 0 Z"
         id="path4543" /></clipPath><clipPath
       clipPathUnits="userSpaceOnUse"
       id="clipPath5015"><path
         d="m 12495,1380 h 165 v 4732.5 h -165 z"
         id="path5013" /></clipPath><clipPath
       clipPathUnits="userSpaceOnUse"
       id="clipPath5617"><path
         d="M 0,7207.5 H 14040 V 0 H 0 Z"
         id="path5615" /></clipPath><clipPath
       clipPathUnits="userSpaceOnUse"
       id="clipPath6087"><path
         d="m 12420,1410 h 165 v 4657.5 h -165 z"
         id="path6085" /></clipPath><clipPath
       clipPathUnits="userSpaceOnUse"
       id="clipPath7319"><path
         d="M 0,7207.5 H 14040 V 0 H 0 Z"
         id="path7317" /></clipPath><clipPath
       clipPathUnits="userSpaceOnUse"
       id="clipPath8133"><path
         d="m 6090,1800 h 165 v 3870 h -165 z"
         id="path8131" /></clipPath><clipPath
       clipPathUnits="userSpaceOnUse"
       id="clipPath9263"><path
         d="m 12270,1800 h 165 v 3862.5 h -165 z"
         id="path9261" /></clipPath><clipPath
       clipPathUnits="userSpaceOnUse"
       id="clipPath13437"><path
         d="M 0,7207.5 H 7020 V 0 H 0 Z"
         id="path13435" /></clipPath><clipPath
       clipPathUnits="userSpaceOnUse"
       id="clipPath14019"><path
         d="M 0,7207.5 H 7020 V 0 H 0 Z"
         id="path14017" /></clipPath><clipPath
       clipPathUnits="userSpaceOnUse"
       id="clipPath15612"><path
         d="M 0,7207.5 H 7020 V 0 H 0 Z"
         id="path15610" /></clipPath></defs><g
     inkscape:label="Layer 1"
     inkscape:groupmode="layer"
     id="layer1"
     transform="translate(236.59682,157.26464)"><g
       id="g190"
       transform="matrix(0.0352778,0,0,-0.0352778,-192.792,222.522)"><g
         id="g15604"
         transform="translate(-1468.1246,4040.8488)"><path
           d="M 915,4275 H 3262.5 V 6622.5 H 915 Z"
           style="fill:#ffffff;fill-opacity:1;fill-rule:nonzero;stroke:none"
           id="path15618" /><path
           d="M 915,4275 H 3262.5"
           style="fill:none;stroke:#262626;stroke-width:12.5025;stroke-linecap:square;stroke-linejoin:round;stroke-miterlimit:10;stroke-dasharray:none;stroke-opacity:1"
           id="path15620" /><path
           d="M 915,6622.5 H 3262.5"
           style="fill:none;stroke:#262626;stroke-width:12.5025;stroke-linecap:square;stroke-linejoin:round;stroke-miterlimit:10;stroke-dasharray:none;stroke-opacity:1"
           id="path15622" /><path
           d="m 915,4275 v 23.48"
           style="fill:none;stroke:#262626;stroke-width:12.5025;stroke-linecap:square;stroke-linejoin:round;stroke-miterlimit:10;stroke-dasharray:none;stroke-opacity:1"
           id="path15624" /><path
           d="m 2088.75,4275 v 23.48"
           style="fill:none;stroke:#262626;stroke-width:12.5025;stroke-linecap:square;stroke-linejoin:round;stroke-miterlimit:10;stroke-dasharray:none;stroke-opacity:1"
           id="path15626" /><path
           d="m 3262.5,4275 v 23.48"
           style="fill:none;stroke:#262626;stroke-width:12.5025;stroke-linecap:square;stroke-linejoin:round;stroke-miterlimit:10;stroke-dasharray:none;stroke-opacity:1"
           id="path15628" /><path
           d="m 915,6622.5 v -23.48"
           style="fill:none;stroke:#262626;stroke-width:12.5025;stroke-linecap:square;stroke-linejoin:round;stroke-miterlimit:10;stroke-dasharray:none;stroke-opacity:1"
           id="path15630" /><path
           d="m 2088.75,6622.5 v -23.48"
           style="fill:none;stroke:#262626;stroke-width:12.5025;stroke-linecap:square;stroke-linejoin:round;stroke-miterlimit:10;stroke-dasharray:none;stroke-opacity:1"
           id="path15632" /><path
           d="m 3262.5,6622.5 v -23.48"
           style="fill:none;stroke:#262626;stroke-width:12.5025;stroke-linecap:square;stroke-linejoin:round;stroke-miterlimit:10;stroke-dasharray:none;stroke-opacity:1"
           id="path15634" /><path
           d="M 915,4275 V 6622.5"
           style="fill:none;stroke:#262626;stroke-width:12.5025;stroke-linecap:square;stroke-linejoin:round;stroke-miterlimit:10;stroke-dasharray:none;stroke-opacity:1"
           id="path15642" /><path
           d="M 3262.5,4275 V 6622.5"
           style="fill:none;stroke:#262626;stroke-width:12.5025;stroke-linecap:square;stroke-linejoin:round;stroke-miterlimit:10;stroke-dasharray:none;stroke-opacity:1"
           id="path15644" /><path
           d="m 915,4275 h 23.477"
           style="fill:none;stroke:#262626;stroke-width:12.5025;stroke-linecap:square;stroke-linejoin:round;stroke-miterlimit:10;stroke-dasharray:none;stroke-opacity:1"
           id="path15646" /><path
           d="m 915,5448.75 h 23.477"
           style="fill:none;stroke:#262626;stroke-width:12.5025;stroke-linecap:square;stroke-linejoin:round;stroke-miterlimit:10;stroke-dasharray:none;stroke-opacity:1"
           id="path15648" /><path
           d="m 915,6622.5 h 23.477"
           style="fill:none;stroke:#262626;stroke-width:12.5025;stroke-linecap:square;stroke-linejoin:round;stroke-miterlimit:10;stroke-dasharray:none;stroke-opacity:1"
           id="path15650" /><path
           d="m 3262.5,4275 h -23.48"
           style="fill:none;stroke:#262626;stroke-width:12.5025;stroke-linecap:square;stroke-linejoin:round;stroke-miterlimit:10;stroke-dasharray:none;stroke-opacity:1"
           id="path15652" /><path
           d="m 3262.5,5448.75 h -23.48"
           style="fill:none;stroke:#262626;stroke-width:12.5025;stroke-linecap:square;stroke-linejoin:round;stroke-miterlimit:10;stroke-dasharray:none;stroke-opacity:1"
           id="path15654" /><path
           d="m 3262.5,6622.5 h -23.48"
           style="fill:none;stroke:#262626;stroke-width:12.5025;stroke-linecap:square;stroke-linejoin:round;stroke-miterlimit:10;stroke-dasharray:none;stroke-opacity:1"
           id="path15656" /><path
           d="m 787,4212.13 c -19.609,0 -32.949,8.07 -40.02,24.2 -7.07,16.13 -10.605,35.33 -10.605,57.59 0,13.91 1.27,26.99 3.809,39.26 2.543,12.27 7.578,22.68 15.113,31.23 7.539,8.56 18.109,12.84 31.703,12.84 10.547,0 19.176,-2.58 25.898,-7.74 6.719,-5.16 11.836,-11.82 15.352,-19.98 3.516,-8.17 5.918,-16.92 7.207,-26.25 1.289,-9.34 1.934,-19.12 1.934,-29.36 0,-13.75 -1.27,-26.62 -3.809,-38.61 -2.539,-11.99 -7.519,-22.19 -14.941,-30.58 -7.422,-8.4 -17.969,-12.6 -31.641,-12.6 z m 0,6.21 c 8.906,0 15.547,4.57 19.922,13.71 4.375,9.14 7.066,19.25 8.082,30.35 1.016,11.1 1.523,22.89 1.523,35.39 0,12.03 -0.507,23.12 -1.523,33.28 -1.016,10.16 -3.688,19.36 -8.024,27.6 -4.335,8.24 -10.996,12.36 -19.98,12.36 -9.066,0 -15.785,-4.14 -20.16,-12.42 -4.375,-8.28 -7.07,-17.48 -8.086,-27.59 -1.016,-10.12 -1.52,-21.2 -1.52,-33.23 0,-8.9 0.215,-17.3 0.645,-25.2 0.43,-7.89 1.582,-16.03 3.457,-24.43 1.875,-8.39 4.902,-15.46 9.082,-21.2 4.18,-5.75 9.707,-8.62 16.582,-8.62"
           style="fill:#262626;fill-opacity:1;fill-rule:nonzero;stroke:none"
           id="path15658" /><path
           d="m 600.332,5385.88 c -19.609,0 -32.949,8.07 -40.019,24.2 -7.071,16.13 -10.606,35.33 -10.606,57.59 0,13.91 1.27,26.99 3.809,39.26 2.543,12.27 7.578,22.68 15.113,31.23 7.543,8.56 18.109,12.84 31.703,12.84 10.547,0 19.18,-2.58 25.898,-7.74 6.719,-5.16 11.836,-11.82 15.352,-19.98 3.516,-8.17 5.918,-16.92 7.207,-26.25 1.289,-9.34 1.938,-19.12 1.938,-29.36 0,-13.75 -1.274,-26.62 -3.813,-38.61 -2.539,-11.99 -7.519,-22.19 -14.937,-30.58 -7.426,-8.4 -17.973,-12.6 -31.645,-12.6 z m 0,6.21 c 8.906,0 15.547,4.57 19.922,13.71 4.375,9.14 7.07,19.25 8.082,30.35 1.016,11.1 1.523,22.89 1.523,35.39 0,12.03 -0.507,23.12 -1.523,33.28 -1.012,10.16 -3.688,19.36 -8.023,27.6 -4.336,8.24 -10.997,12.36 -19.981,12.36 -9.066,0 -15.785,-4.14 -20.16,-12.42 -4.375,-8.28 -7.07,-17.48 -8.086,-27.59 -1.012,-10.12 -1.52,-21.2 -1.52,-33.23 0,-8.9 0.215,-17.3 0.645,-25.2 0.43,-7.89 1.582,-16.03 3.457,-24.43 1.875,-8.39 4.902,-15.46 9.082,-21.2 4.18,-5.75 9.707,-8.62 16.582,-8.62"
           style="fill:#262626;fill-opacity:1;fill-rule:nonzero;stroke:none"
           id="path15660" /><path
           d="m 680.492,5404.39 c 0,3.59 1.328,6.68 3.985,9.26 2.652,2.58 5.738,3.87 9.253,3.87 2.192,0 4.34,-0.59 6.45,-1.76 2.105,-1.17 3.746,-2.81 4.922,-4.92 1.168,-2.11 1.753,-4.26 1.753,-6.45 0,-3.51 -1.289,-6.6 -3.863,-9.26 -2.578,-2.65 -5.668,-3.98 -9.262,-3.98 -3.515,0 -6.601,1.33 -9.253,3.98 -2.657,2.66 -3.985,5.75 -3.985,9.26"
           style="fill:#262626;fill-opacity:1;fill-rule:nonzero;stroke:none"
           id="path15662" /><path
           d="m 747.859,5418.46 c 1.637,-4.69 4.157,-8.95 7.559,-12.78 3.398,-3.82 7.422,-6.81 12.066,-8.97 4.653,-2.14 9.477,-3.21 14.477,-3.21 11.562,0 19.535,4.49 23.91,13.47 4.375,8.98 6.563,19.88 6.563,32.7 0,5.54 -0.098,10.21 -0.293,14 -0.2,3.79 -0.727,7.44 -1.582,10.96 -1.485,5.62 -4.082,10.55 -7.793,14.76 -3.715,4.22 -8.27,6.33 -13.657,6.33 -5.39,0 -10.019,-0.82 -13.882,-2.46 -3.872,-1.64 -7.016,-3.55 -9.438,-5.74 -2.426,-2.19 -4.574,-4.5 -6.449,-6.91 -1.875,-2.43 -3.043,-3.72 -3.512,-3.88 h -2.699 c -0.391,0 -0.875,0.26 -1.461,0.77 -0.586,0.5 -0.879,0.99 -0.879,1.46 v 80.16 c 0,0.39 0.254,0.8 0.758,1.23 0.512,0.43 1.039,0.65 1.582,0.65 h 0.707 c 10.777,-5.16 22.223,-7.74 34.336,-7.74 11.875,0 23.316,2.58 34.332,7.74 h 0.707 c 0.543,0 1.051,-0.2 1.523,-0.59 0.469,-0.39 0.704,-0.82 0.704,-1.29 v -2.23 c 0,-0.78 -0.157,-1.17 -0.473,-1.17 -5.465,-7.27 -12.32,-12.93 -20.567,-16.99 -8.238,-4.07 -16.773,-6.1 -25.601,-6.1 -6.406,0 -12.969,0.9 -19.688,2.7 v -45.35 c 5.313,4.29 10.063,7.36 14.243,9.2 4.179,1.84 9.507,2.75 15.988,2.75 8.832,0 16.742,-2.54 23.738,-7.61 6.988,-5.09 12.36,-11.7 16.11,-19.86 3.75,-8.17 5.625,-16.51 5.625,-25.03 0,-9.61 -2.364,-18.51 -7.086,-26.72 -4.731,-8.2 -11.161,-14.73 -19.286,-19.57 -8.125,-4.84 -16.953,-7.26 -26.48,-7.26 -7.891,0 -15.137,2.03 -21.734,6.09 -6.606,4.06 -11.801,9.53 -15.586,16.41 -3.789,6.87 -5.688,14.18 -5.688,21.91 0,3.6 1.172,6.53 3.512,8.79 2.344,2.27 5.273,3.4 8.789,3.4 3.516,0 6.465,-1.15 8.851,-3.46 2.383,-2.3 3.579,-5.21 3.579,-8.73 0,-3.44 -1.196,-6.35 -3.579,-8.73 -2.386,-2.38 -5.335,-3.58 -8.851,-3.58 -0.543,0 -1.168,0.07 -1.875,0.18 -0.699,0.12 -1.207,0.22 -1.52,0.3"
           style="fill:#262626;fill-opacity:1;fill-rule:nonzero;stroke:none"
           id="path15664" /><path
           d="m 749.266,6564.9 v 8.44 c 20,0 30,2.54 30,7.62 v 125.97 c -8.282,-3.98 -18.754,-5.97 -31.407,-5.97 v 8.43 c 19.61,0 34.414,5.12 44.414,15.36 h 3.399 c 0.547,0 1.074,-0.22 1.582,-0.65 0.508,-0.43 0.762,-0.92 0.762,-1.47 v -141.67 c 0,-5.08 10,-7.62 30,-7.62 v -8.44 h -78.75"
           style="fill:#262626;fill-opacity:1;fill-rule:nonzero;stroke:none"
           id="path15666" /><path
           d="m 418.219,5406.6 c 0,-2.19 -0.684,-4.05 -2.047,-5.57 -1.367,-1.52 -3.145,-2.28 -5.336,-2.28 -1.012,0 -1.793,0.07 -2.34,0.23 l -78.285,19.57 c -4.918,1.33 -9.215,1.99 -12.891,1.99 -7.5,0 -11.25,-2.58 -11.25,-7.73 0,-5.47 3.262,-9.53 9.789,-12.18 6.524,-2.66 14.786,-5.2 24.786,-7.63 0.546,0 0.976,-0.27 1.289,-0.81 0.312,-0.55 0.464,-1.03 0.464,-1.41 v -3.05 c 0,-0.62 -0.332,-1.15 -0.996,-1.58 -0.664,-0.43 -1.23,-0.65 -1.695,-0.65 -7.66,1.88 -14.125,3.7 -19.394,5.46 -5.274,1.75 -10.102,4.49 -14.477,8.19 -4.375,3.72 -6.563,8.35 -6.563,13.89 0,6.49 2.051,12.29 6.153,17.41 4.105,5.11 9.398,7.68 15.883,7.68 -6.797,5.07 -12.172,11.07 -16.118,17.98 -3.945,6.91 -5.918,14.43 -5.918,22.56 0,9.14 2.461,16.46 7.383,21.97 4.922,5.51 11.918,8.26 20.977,8.26 5.234,0 10.039,-0.58 14.414,-1.76 l 121.523,-30.47 c 2.5,-0.54 4.512,-1.83 6.039,-3.86 1.524,-2.03 2.286,-4.33 2.286,-6.92 0,-2.1 -0.645,-3.94 -1.934,-5.5 -1.289,-1.57 -3.07,-2.35 -5.332,-2.35 -1.016,0 -1.68,0.08 -1.996,0.24 l -121.051,30.11 c -7.191,1.8 -13.168,2.7 -17.934,2.7 -4.843,0 -8.984,-1.02 -12.418,-3.05 -3.441,-2.03 -5.16,-5.31 -5.16,-9.84 0,-17.19 10.586,-31.45 31.762,-42.78 l 71.715,-17.81 c 2.344,-0.63 4.379,-1.99 6.098,-4.09 1.714,-2.11 2.574,-4.42 2.574,-6.92"
           style="fill:#262626;fill-opacity:1;fill-rule:nonzero;stroke:none"
           id="path15668" /><path
           d="m 915,6622.5 0.008,-0.02 0.023,-0.04 0.028,-0.08 0.062,-0.12 0.09,-0.18 0.125,-0.26 0.18,-0.34 0.265,-0.48 0.36,-0.64 0.496,-0.86 0.679,-1.15 0.922,-1.52 1.239,-2.01 1.664,-2.64 2.214,-3.45 2.926,-4.5 3.84,-5.81 5.055,-7.51 6.621,-9.66 8.656,-12.38 11.203,-15.73 14.508,-19.91 18.832,-25.07 24.434,-31.39 31.61,-38.95 40.75,-47.73 52.39,-57.62 66.91,-68.33 84.93,-79.05 105.76,-88.29 126.27,-93.64 141.51,-92.35 140.89,-81.35 111.92,-58.76 49.81,-25.98 -28.93,10.95 -96.02,44.47 -131.35,67.88 -135.34,78.83 -120.34,78.87 -95.83,70.1 -71.09,56.32 -47.71,39.61 -25.42,21.13 -4.02,1.77 17.43,-17.93 40.03,-37.43 64.87,-56.16 92.38,-73.02 121.5,-85.72 146.44,-90.95 156.26,-85.12 134.46,-65.54 69.82,-32.74 -21.89,6.75 -103.15,43.28 -144.8,68.22 -146.58,78.28 -124.7,75.07 -91.91,61.47 -59.72,42.16 -27.55,19.23 4.02,-5.32 36.26,-29.99 70.32,-53.18 105.95,-72.6 140.28,-85.17 163.08,-86.61 155.95,-73.15 101,-43.9 3.57,-3.89 -94.03,35.63 -150.01,64.13 -156.25,75.93 -131.52,72.14 -93.23,56.41 -53.01,33.42 -12.67,6.57 27.71,-21.36 69.57,-47.86 112.32,-69.75 151.03,-82.86 172.22,-82.5 151.86,-64.67 74.27,-30.45 -38.85,11.85 -130.76,48.79 -165.72,70.17 -151.82,73.09 -112.67,60.52 -65.24,37.39 -18.14,9.07 30.15,-21.08 79.11,-49.14 127.8,-71.06 166.8,-81.41 175.98,-75.11 127.36,-49.44 19.59,-9.39 -97.8,32.43 -163.88,61.74 -166.57,71.58 -130.24,62.91 -78.72,40.91 -24.05,11.51 31.38,-20.29 87.15,-49.57 140.8,-71.26 178.61,-79.03 172.89,-67.38 98.25,-35.91 -29.2,7.16 -138.25,45.75 -177.45,66.88 -155.92,66.8 -104.41,49.3 -43.43,20.74 17.98,-11.95 80.5,-43.33 139.86,-67.08 182.24,-76.4 176.37,-65.1 94.48,-32.95 -41.55,10.59 -150.66,47.99 -181.7,66.09 -150.74,62.06 -90.42,40.5 -23.3,9.24 45.48,-24.65 113.01,-54.11 170.47,-71.86 190.91,-70.19 136.55,-45.65 6.04,-4.32 -127.26,37.05 -184.93,61.51 -165.02,62.45 -104.94,43.54 -31.57,12.39 43.04,-22.18 116.52,-52.47 176.73,-69.97 192.75,-66.63 124.02,-39.49 -19.82,3.11 -148.7,42.37 -189.41,61.75 -154.38,56.88 -82.87,32.74 -3.69,-0.85 78.12,-35.38 152.2,-61.07 197.01,-68.95 167.7,-52.27 42.69,-14.31 -111.16,28.66 -189.55,56.24 -173.6,58.66 -105.38,38.89 -20.43,6.07 66.85,-29.31 147.7,-57.03 198.79,-67.02 172.77,-51.74 43.86,-14.17 -115.57,28.59 -193.59,55.18 -172.11,55.79 -96.36,33.77 -5.75,-0.24 87.86,-35.39 168.46,-59.82 204.32,-63.27 141.76,-40.02 -16.96,1.71 -161.02,40.4 -197.2,56.72 -144.28,46.44 -53.65,17.12 46.04,-19.19 139.74,-49.94 202.38,-63.12 179.53,-49.7 40.74,-12.49 -128.92,29.63 -201.53,53.42 -165.2,49.49 -73.67,23.05 29.89,-12.93 131.86,-45.57 201.94,-61.04 186.11,-49.77 46.31,-13.47 -129.62,28.54 -204.2,51.97 -163.6,46.92 -65.63,19.3 44.19,-17.08 148.66,-48.08 210.1,-59.3 166.27,-42.15 -0.52,-2.48 -165.04,36.43 -203.89,51.68 -136.9,38.33 -25.49,5.85 89.7,-30.16 186.27,-54.44 208.64,-53.37 95.53,-23.65 -97.41,18.81 -205.2,46.89 -176.16,45.6 -73.74,19.45 48.73,-17.1 161.4,-47.3 217.03,-55.39 142.33,-33.4 -51.02,8.09 -196.14,41.67 -193.28,46.86 -95.48,24.44 32.77,-11.79 153.1,-43.61 218.52,-54.23 151.11,-34.25 -45.57,6.6 -197.48,40.29 -194.09,45.16 -90.56,21.97 43.24,-14.36 166.55,-44.87 221.59,-51.97 126.23,-27.77 -83.99,13.85 -211.89,42.78 -178.48,40.67 -56.35,12.43 83.53,-24.11 198.21,-49.03 209.72,-45.63 52.27,-12.48 -155.17,27.48 -216.52,44.43 -131.66,29.42 9.92,-5.01 149.96,-38.27 226,-50.07 143.43,-29.39 -76.82,11.39 -216.42,40.4 -177.76,37.34 -41.71,7.75 109.18,-28.2 217.78,-48.4 186.23,-37.05 -19.92,0.87 -202.62,35.21 -198.7,39.34 -70.1,13.71 88.43,-22.65 211.63,-46.12 200.02,-38.7 -0.61,-2.52 -198.3,32.87 -203.72,38.59 -72.62,13.55 91.86,-22.6 217.21,-45.33 193.7,-36.09 -22.31,1.01 -210.8,34.21 -194.04,35.71 -47.62,7.73 121.94,-27.75 230.71,-45.12 158.2,-28.45 -84.76,10.86 -228.04,37.06 -160.17,28.78 7.4,-4.05 173.85,-36.05 233.47,-42.08 72.73,-13.83 -171.79,24.47 -222.33,36.72 -90.31,15.04 93.97,-20.74 228.88,-42.47 178.29,-30 -73.29,8.23 -232.93,35.02 -159.36,26.38 23.73,-7.02 196.23,-37.02 226.19,-37.41 13.58,-4.59 -213.75,29.59 -199.2,31.28 -25.54,2.12 165.79,-31.28 242.08,-39.51 65.88,-11.78 -192.99,25.01 -217.41,32.43 -50,6.18 151.9,-28.11 246.75,-39.24 81.09,-13.54 -189.43,23.49 -221.1,31.68 -48.11,5.52 160.18,-28.4 247.68,-37.82 58.81,-10.26 -207.93,25.31 -210.11,29.23 -17.59,0.3 190.5,-31.66 237.18,-34.38 -5.48,-1.97 -237.66,28.98 -174.78,23.56 44.32,-9.41 233.36,-35.71 189.98,-26.36 -109.8,10.68 -249.7,30.84 -100.62,12.34 135.02,-22.27 258.17,-35.98 70.29,-10.88 -218.94,23.93 -204.86,25.41 19.75,-5.39 231.56,-33.34 197.95,-25.76 -117.91,10.73 -253.05,29.15 -78.44,8.29 170.44,-25.32 253.74,-32.39 -8.75,-1.72 -254.49,27.06 -148.36,16.77 111.3,-17.19 266.69,-33.8 71.54,-10.23 -235.36,23.25 -190.02,20.91 70.67,-11.57 265.12,-33.1 113.84,-14.35 -220.18,20.5 -208.4,22.02 56.2,-9.43 265.61,-32.19 119.87,-14.58 -223.18,20.03 -205.62,20.86 69.84,-10.82 273,-31.66 89.24,-11.18 -245.56,21.69 -180.16,17.42 115,-15.48 277.62,-30.44 13.59,-3.92 -271.35,23.94 -119.73,10.44 185.23,-22.25 252.34,-26.18 -106.38,6.79 -268.14,23.67 -16.12,-0.87 261.64,-28.25 150.3,-15.71 -234.86,18.06 -195.58,16.73 128.98,-15.47 281.58,-27.61 -53.11,1.71 -281.94,22.75 -33.77,0.72 267.2,-26.91 140.16,-13.98 -256.27,18.52 -167.93,12.92 181.79,-19.2 256.28,-23.25 -157.25,9.52 -252.77,19.17 85.37,-10.21 297.09,-26.45 -46.76,0.79 -289.62,20.75 5.56,-3.07 298.51,-26.26 36.27,-5.28 -298.86,20.17 -44.78,1.16 291.05,-25.12 78.68,-8.13 -300.25,19.25 -62.22,2.4 291.79,-24.36 78.69,-7.94 -305.15,18.83 -44.77,0.85 304.94,-24.28 33.18,-4.82 -309.88,18.61 12.2,-3.49 318.27,-23.91 -63.03,1.2 -292.16,17.05 110.84,-10.36 296.76,-21.15 -197.8,9.19 -216.54,11.8 236.62,-18.12 162.87,-10.9"
           style="fill:none;stroke:#0072bd;stroke-width:15;stroke-linecap:butt;stroke-linejoin:round;stroke-miterlimit:10;stroke-dasharray:none;stroke-opacity:1"
           id="path15670" /><path
           d="m 1846.3,5677.17 5.08,-5.16 5.07,-5.14 5.03,-5.11 5.01,-5.09 4.99,-5.06 4.95,-5.03 4.93,-5.01 4.91,-4.98 4.89,-4.96 4.86,-4.93 4.83,-4.92 4.82,-4.89 4.79,-4.86 4.77,-4.84 4.75,-4.82 4.73,-4.8 4.7,-4.78 4.69,-4.77 4.67,-4.73 4.64,-4.72 4.63,-4.7 4.62,-4.68 4.59,-4.65 4.56,-4.65 5.42,-4.62 4.16,-4.6 4.13,-4.58 4.13,-4.57 4.11,-4.56 4.09,-4.53 4.09,-4.51 4.06,-4.5 4.06,-4.49 4.05,-4.46 4.04,-4.45 4.02,-4.43 4,-4.42 4,-4.4 3.98,-4.39 3.98,-4.38 3.96,-4.35 3.95,-4.35 3.94,-4.32 3.92,-4.32 3.92,-4.3 3.9,-4.29 3.89,-4.27 3.89,-4.26 3.87,-4.24 3.86,-4.24 3.84,-4.22 3.84,-4.2 3.84,-4.19 3.81,-4.19 3.8,-4.16 3.8,-4.16 3.79,-4.14 3.78,-4.14 3.76,-4.11 3.75,-4.12 3.75,-4.09 3.74,-4.08 3.73,-4.08 3.71,-4.06 3.71,-4.05 3.7,-4.04 3.68,-4.03 3.68,-4.01 3.67,-4.01 3.66,-4 3.65,-3.98 3.64,-3.98 3.63,-3.97 3.63,-3.95 3.61,-3.94 3.61,-3.93 3.6,-3.93 3.58,-3.91 3.58,-3.91 3.58,-3.89 3.55,-3.89 3.55,-3.87 3.55,-3.87 3.54,-3.86 3.53,-3.85 3.52,-3.84 3.51,-3.83 3.51,-3.81 3.49,-3.82 3.49,-3.81 3.48,-3.79 3.47,-3.79 3.47,-3.77 3.45,-3.77 3.45,-3.76 3.45,-3.76 3.42,-3.74 3.43,-3.73 3.42,-3.73 3.41,-3.72 3.4,-3.71 3.4,-3.71 3.39,-3.69 3.38,-3.69 3.38,-3.68 3.36,-3.67 3.35,-3.67 3.36,-3.66 3.34,-3.64 3.35,-3.65 3.33,-3.63 3.32,-3.63 3.32,-3.62 3.31,-3.61 3.3,-3.61 3.3,-3.6 3.29,-3.59 3.28,-3.58 3.28,-3.58 3.27,-3.58 3.26,-3.56 3.26,-3.56 3.25,-3.55 3.25,-3.54 3.23,-3.54 3.23,-3.53 3.23,-3.52 3.22,-3.52 3.21,-3.51 3.21,-3.51 3.2,-3.49 3.19,-3.5 3.19,-3.49 3.18,-3.48 3.18,-3.47 3.16,-3.46 3.17,-3.47 3.16,-3.45 3.15,-3.45 3.15,-3.44 3.14,-3.44 3.13,-3.43 3.13,-3.43 3.12,-3.42 3.12,-3.41 3.11,-3.4 3.11,-3.41 3.1,-3.4 3.09,-3.39 3.09,-3.38 3.08,-3.38 3.08,-3.38 3.07,-3.37 3.07,-3.36 3.06,-3.35 3.06,-3.36 3.05,-3.35 3.05,-3.34 3.03,-3.33 3.04,-3.34 3.03,-3.32 3.02,-3.32 3.02,-3.32 3.02,-3.31 3.01,-3.31 3,-3.3 3,-3.29 2.99,-3.29 2.99,-3.29 2.98,-3.27 2.99,-3.28 2.97,-3.27 2.96,-3.27 2.97,-3.26 2.96,-3.26 2.95,-3.25 2.95,-3.25 2.94,-3.23 2.94,-3.25 2.93,-3.23 2.94,-3.22 2.92,-3.23 2.93,-3.21 2.91,-3.22 2.91,-3.21 2.91,-3.2 2.9,-3.21 2.89,-3.19 2.9,-3.19 2.89,-3.19 2.89,-3.18 2.87,-3.18 2.88,-3.18 2.86,-3.16 2.87,-3.17 2.86,-3.16 2.86,-3.16 2.85,-3.15 2.85,-3.15 2.84,-3.14 2.85,-3.14 2.83,-3.14 2.83,-3.13 2.82,-3.12 2.83,-3.13 2.81,-3.12 2.82,-3.11 2.81,-3.12 2.8,-3.1 2.81,-3.11 2.8,-3.1 2.79,-3.09 2.79,-3.09 2.78,-3.09 2.78,-3.08 2.78,-3.09 2.77,-3.07 2.77,-3.07 2.77,-3.07 2.76,-3.06 2.76,-3.06 2.75,-3.07 2.75,-3.05 2.74,-3.04 2.74,-3.05 2.74,-3.04 2.73,-3.04 2.73,-3.04 2.73,-3.03 2.73,-3.03 2.71,-3.02 2.72,-3.02 2.71,-3.02 2.71,-3.01 2.7,-3.01 2.7,-3.01 2.69,-3 2.69,-3 2.69,-2.99 2.69,-2.99 2.68,-3 2.67,-2.98 2.68,-2.98 2.67,-2.98 2.67,-2.97 2.67,-2.98 2.65,-2.96 2.66,-2.97 2.65,-2.97 2.65,-2.95 2.64,-2.96 2.65,-2.95 2.64,-2.95 2.64,-2.94 2.63,-2.94 2.62,-2.95 2.63,-2.93 2.62,-2.93 2.62,-2.93 2.61,-2.93 2.62,-2.92 2.6,-2.92 2.61,-2.92 2.6,-2.91 2.6,-2.91 2.59,-2.91 2.59,-2.9 2.6,-2.9 2.57,-2.9 2.59,-2.9 2.57,-2.89 2.59,-2.89 2.57,-2.88 2.56,-2.89 2.57,-2.88 2.56,-2.88 2.56,-2.87 2.56,-2.87 2.55,-2.87 2.55,-2.86 2.55,-2.87 2.54,-2.86 2.54,-2.86 2.54,-2.85 2.53,-2.85 2.54,-2.85 2.53,-2.84 2.52,-2.85 2.52,-2.84 2.52,-2.83 2.51,-2.84 2.52,-2.83 2.51,-2.83 2.51,-2.82 2.5,-2.83 2.51,-2.82 2.49,-2.81 2.5,-2.82 2.49,-2.81 2.49,-2.81 2.48,-2.81 2.49,-2.8 2.48,-2.81 2.48,-2.79 2.48,-2.8 2.47,-2.79 2.47,-2.8 2.47,-2.78 2.46,-2.79 2.45,-2.78 2.46,-2.79 2.47,-2.77 2.45,-2.77 2.44,-2.78 2.45,-2.77 2.45,-2.77 2.44,-2.76 2.43,-2.76 2.44,-2.76 2.44,-2.76 2.43,-2.75 2.42,-2.76 2.43,-2.75 2.43,-2.74 2.42,-2.75 2.41,-2.74 2.42,-2.74 2.41,-2.74 2.41,-2.74 2.41,-2.73 2.4,-2.73 2.4,-2.73 2.4,-2.73 2.4,-2.72 2.39,-2.72 2.39,-2.72 2.39,-2.71 2.38,-2.72 2.39,-2.71 2.38,-2.71 2.38,-2.71 2.38,-2.7 2.37,-2.7 2.37,-2.71 2.37,-2.7 2.36,-2.69 2.36,-2.69 2.37,-2.69 2.36,-2.69 2.35,-2.69 2.36,-2.68 2.35,-2.68 2.34,-2.68 2.35,-2.68 2.34,-2.67 2.35,-2.67 2.33,-2.67 2.34,-2.67 2.33,-2.68 2.34,-2.66 2.33,-2.66 2.32,-2.65 2.33,-2.67 2.32,-2.65 2.32,-2.66 2.32,-2.64 2.31,-2.65 2.32,-2.65 2.3,-2.65 2.31,-2.64 2.31,-2.64 2.3,-2.64 2.3,-2.63 2.3,-2.64 2.3,-2.63 2.29,-2.63 2.29,-2.63 2.3,-2.63 2.29,-2.62 2.28,-2.62 2.28,-2.62 2.28,-2.61 2.28,-2.62 2.27,-2.62 2.28,-2.61 2.27,-2.61 2.27,-2.6 2.27,-2.61 2.26,-2.6 2.27,-2.6 2.26,-2.6 2.26,-2.6 2.26,-2.6 2.25,-2.59 2.26,-2.59 2.25,-2.59 2.24,-2.59 2.25,-2.58 2.24,-2.59 2.24,-2.58 2.24,-2.58 2.24,-2.58 2.23,-2.57 2.24,-2.57 2.23,-2.58 2.22,-2.57 2.23,-2.57 2.23,-2.57 2.22,-2.56 2.22,-2.57 2.22,-2.55 2.22,-2.56 2.21,-2.56 2.22,-2.56 2.21,-2.55 2.2,-2.55 2.21,-2.56 2.2,-2.54 2.21,-2.55 2.2,-2.54 2.19,-2.54 2.2,-2.54 1.14,-1.32"
           style="fill:none;stroke:#ff0000;stroke-width:15;stroke-linecap:butt;stroke-linejoin:bevel;stroke-miterlimit:10;stroke-dasharray:60, 60;stroke-dashoffset:0;stroke-opacity:1"
           id="path15672" /><path
           d="M 1963.07,4285.04 V 6622.5"
           style="fill:none;stroke:#000000;stroke-width:15;stroke-linecap:butt;stroke-linejoin:bevel;stroke-miterlimit:10;stroke-dasharray:60, 60;stroke-dashoffset:0;stroke-opacity:1"
           id="path15674" /><path
           d="m 3555.0003,4275 h 2347.5 v 2347.5 h -2347.5 z"
           style="fill:#ffffff;fill-opacity:1;fill-rule:nonzero;stroke:none"
           id="path15676" /><path
           d="m 3555.0003,4275 h 2347.5"
           style="fill:none;stroke:#262626;stroke-width:12.5025;stroke-linecap:square;stroke-linejoin:round;stroke-miterlimit:10;stroke-dasharray:none;stroke-opacity:1"
           id="path15678" /><path
           d="m 3555.0003,6622.5 h 2347.5"
           style="fill:none;stroke:#262626;stroke-width:12.5025;stroke-linecap:square;stroke-linejoin:round;stroke-miterlimit:10;stroke-dasharray:none;stroke-opacity:1"
           id="path15680" /><path
           d="m 3555.0003,4275 v 23.48"
           style="fill:none;stroke:#262626;stroke-width:12.5025;stroke-linecap:square;stroke-linejoin:round;stroke-miterlimit:10;stroke-dasharray:none;stroke-opacity:1"
           id="path15682" /><path
           d="m 4728.7503,4275 v 23.48"
           style="fill:none;stroke:#262626;stroke-width:12.5025;stroke-linecap:square;stroke-linejoin:round;stroke-miterlimit:10;stroke-dasharray:none;stroke-opacity:1"
           id="path15684" /><path
           d="m 5902.5003,4275 v 23.48"
           style="fill:none;stroke:#262626;stroke-width:12.5025;stroke-linecap:square;stroke-linejoin:round;stroke-miterlimit:10;stroke-dasharray:none;stroke-opacity:1"
           id="path15686" /><path
           d="m 3555.0003,6622.5 v -23.48"
           style="fill:none;stroke:#262626;stroke-width:12.5025;stroke-linecap:square;stroke-linejoin:round;stroke-miterlimit:10;stroke-dasharray:none;stroke-opacity:1"
           id="path15688" /><path
           d="m 4728.7503,6622.5 v -23.48"
           style="fill:none;stroke:#262626;stroke-width:12.5025;stroke-linecap:square;stroke-linejoin:round;stroke-miterlimit:10;stroke-dasharray:none;stroke-opacity:1"
           id="path15690" /><path
           d="m 5902.5003,6622.5 v -23.48"
           style="fill:none;stroke:#262626;stroke-width:12.5025;stroke-linecap:square;stroke-linejoin:round;stroke-miterlimit:10;stroke-dasharray:none;stroke-opacity:1"
           id="path15692" /><path
           d="m 3397.7003,4049.82 v 14.88 h 63.51 v -14.88 h -63.51"
           style="fill:#262626;fill-opacity:1;fill-rule:nonzero;stroke:none"
           id="path15694" /><path
           d="m 3495.8603,4032.71 c 1.64,-4.69 4.16,-8.95 7.55,-12.78 3.41,-3.82 7.43,-6.82 12.08,-8.97 4.65,-2.14 9.47,-3.21 14.47,-3.21 11.56,0 19.53,4.49 23.91,13.47 4.37,8.98 6.56,19.88 6.56,32.7 0,5.54 -0.1,10.21 -0.29,14 -0.2,3.79 -0.73,7.44 -1.59,10.96 -1.48,5.62 -4.08,10.55 -7.79,14.76 -3.71,4.22 -8.26,6.33 -13.65,6.33 -5.39,0 -10.02,-0.82 -13.89,-2.46 -3.86,-1.64 -7.01,-3.55 -9.43,-5.74 -2.42,-2.19 -4.57,-4.5 -6.45,-6.91 -1.87,-2.43 -3.04,-3.72 -3.51,-3.88 h -2.69 c -0.39,0 -0.89,0.26 -1.48,0.77 -0.58,0.5 -0.87,0.99 -0.87,1.46 v 80.16 c 0,0.39 0.25,0.8 0.76,1.23 0.51,0.43 1.04,0.65 1.59,0.65 h 0.69 c 10.79,-5.16 22.24,-7.74 34.35,-7.74 11.87,0 23.32,2.58 34.33,7.74 h 0.7 c 0.55,0 1.06,-0.2 1.53,-0.59 0.46,-0.39 0.69,-0.82 0.69,-1.29 v -2.23 c 0,-0.78 -0.15,-1.17 -0.46,-1.17 -5.47,-7.27 -12.33,-12.93 -20.56,-16.99 -8.25,-4.07 -16.78,-6.1 -25.61,-6.1 -6.41,0 -12.97,0.9 -19.69,2.7 v -45.35 c 5.31,4.29 10.06,7.36 14.24,9.2 4.18,1.84 9.51,2.75 15.99,2.75 8.83,0 16.74,-2.54 23.73,-7.61 7,-5.09 12.36,-11.71 16.11,-19.86 3.75,-8.17 5.63,-16.51 5.63,-25.03 0,-9.61 -2.36,-18.51 -7.09,-26.72 -4.72,-8.2 -11.15,-14.73 -19.27,-19.57 -8.13,-4.84 -16.96,-7.26 -26.49,-7.26 -7.89,0 -15.14,2.03 -21.74,6.09 -6.6,4.06 -11.79,9.53 -15.58,16.41 -3.79,6.87 -5.69,14.18 -5.69,21.91 0,3.6 1.18,6.53 3.52,8.79 2.35,2.27 5.28,3.4 8.79,3.4 3.51,0 6.46,-1.15 8.84,-3.46 2.39,-2.3 3.58,-5.21 3.58,-8.73 0,-3.44 -1.19,-6.35 -3.58,-8.73 -2.38,-2.38 -5.33,-3.58 -8.84,-3.58 -0.55,0 -1.17,0.07 -1.87,0.18 -0.71,0.12 -1.22,0.22 -1.53,0.3"
           style="fill:#262626;fill-opacity:1;fill-rule:nonzero;stroke:none"
           id="path15696" /><path
           d="m 3655.0003,4000.13 c -19.61,0 -32.95,8.07 -40.02,24.2 -7.07,16.13 -10.61,35.33 -10.61,57.59 0,13.91 1.27,26.99 3.81,39.26 2.54,12.27 7.58,22.68 15.12,31.23 7.54,8.56 18.11,12.84 31.7,12.84 10.55,0 19.18,-2.58 25.89,-7.74 6.73,-5.16 11.84,-11.82 15.36,-19.98 3.51,-8.17 5.91,-16.92 7.21,-26.25 1.29,-9.34 1.93,-19.12 1.93,-29.36 0,-13.75 -1.27,-26.62 -3.81,-38.61 -2.54,-11.99 -7.52,-22.19 -14.94,-30.58 -7.42,-8.4 -17.97,-12.6 -31.64,-12.6 z m 0,6.21 c 8.91,0 15.55,4.57 19.93,13.71 4.37,9.14 7.07,19.25 8.08,30.35 1.01,11.1 1.52,22.89 1.52,35.39 0,12.03 -0.51,23.12 -1.52,33.28 -1.01,10.16 -3.69,19.36 -8.03,27.6 -4.34,8.24 -11,12.36 -19.98,12.36 -9.06,0 -15.78,-4.14 -20.16,-12.42 -4.37,-8.28 -7.07,-17.48 -8.08,-27.59 -1.01,-10.12 -1.52,-21.2 -1.52,-33.23 0,-8.9 0.21,-17.3 0.64,-25.2 0.43,-7.89 1.58,-16.03 3.45,-24.43 1.88,-8.39 4.9,-15.46 9.08,-21.2 4.18,-5.75 9.71,-8.62 16.59,-8.62"
           style="fill:#262626;fill-opacity:1;fill-rule:nonzero;stroke:none"
           id="path15698" /><path
           d="m 4728.7503,4000.13 c -19.61,0 -32.95,8.07 -40.02,24.2 -7.07,16.13 -10.6,35.33 -10.6,57.59 0,13.91 1.26,26.99 3.8,39.26 2.55,12.27 7.58,22.68 15.12,31.23 7.54,8.56 18.11,12.84 31.7,12.84 10.55,0 19.18,-2.58 25.9,-7.74 6.72,-5.16 11.83,-11.82 15.35,-19.98 3.52,-8.17 5.92,-16.92 7.21,-26.25 1.29,-9.34 1.93,-19.12 1.93,-29.36 0,-13.75 -1.27,-26.62 -3.81,-38.61 -2.54,-11.99 -7.52,-22.19 -14.94,-30.58 -7.42,-8.4 -17.97,-12.6 -31.64,-12.6 z m 0,6.21 c 8.91,0 15.55,4.57 19.92,13.71 4.38,9.14 7.07,19.25 8.08,30.35 1.02,11.1 1.53,22.89 1.53,35.39 0,12.03 -0.51,23.12 -1.53,33.28 -1.01,10.16 -3.68,19.36 -8.02,27.6 -4.34,8.24 -11,12.36 -19.98,12.36 -9.07,0 -15.79,-4.14 -20.16,-12.42 -4.38,-8.28 -7.07,-17.48 -8.09,-27.59 -1.01,-10.12 -1.52,-21.2 -1.52,-33.23 0,-8.9 0.22,-17.3 0.65,-25.2 0.43,-7.89 1.58,-16.03 3.46,-24.43 1.87,-8.39 4.9,-15.46 9.08,-21.2 4.18,-5.75 9.71,-8.62 16.58,-8.62"
           style="fill:#262626;fill-opacity:1;fill-rule:nonzero;stroke:none"
           id="path15700" /><path
           d="m 5803.3603,4032.71 c 1.64,-4.69 4.16,-8.95 7.56,-12.78 3.4,-3.82 7.42,-6.82 12.06,-8.97 4.66,-2.14 9.48,-3.21 14.48,-3.21 11.56,0 19.54,4.49 23.91,13.47 4.38,8.98 6.56,19.88 6.56,32.7 0,5.54 -0.09,10.21 -0.29,14 -0.2,3.79 -0.73,7.44 -1.58,10.96 -1.49,5.62 -4.08,10.55 -7.79,14.76 -3.72,4.22 -8.27,6.33 -13.66,6.33 -5.39,0 -10.02,-0.82 -13.88,-2.46 -3.87,-1.64 -7.02,-3.55 -9.44,-5.74 -2.42,-2.19 -4.58,-4.5 -6.45,-6.91 -1.88,-2.43 -3.04,-3.72 -3.51,-3.88 h -2.7 c -0.39,0 -0.88,0.26 -1.46,0.77 -0.59,0.5 -0.88,0.99 -0.88,1.46 v 80.16 c 0,0.39 0.25,0.8 0.76,1.23 0.51,0.43 1.04,0.65 1.58,0.65 h 0.71 c 10.77,-5.16 22.22,-7.74 34.33,-7.74 11.88,0 23.32,2.58 34.33,7.74 h 0.71 c 0.54,0 1.05,-0.2 1.52,-0.59 0.47,-0.39 0.71,-0.82 0.71,-1.29 v -2.23 c 0,-0.78 -0.16,-1.17 -0.48,-1.17 -5.46,-7.27 -12.32,-12.93 -20.56,-16.99 -8.24,-4.07 -16.77,-6.1 -25.6,-6.1 -6.41,0 -12.97,0.9 -19.69,2.7 v -45.35 c 5.31,4.29 10.06,7.36 14.24,9.2 4.18,1.84 9.51,2.75 15.99,2.75 8.83,0 16.74,-2.54 23.74,-7.61 6.99,-5.09 12.36,-11.71 16.11,-19.86 3.75,-8.17 5.62,-16.51 5.62,-25.03 0,-9.61 -2.36,-18.51 -7.08,-26.72 -4.73,-8.2 -11.16,-14.73 -19.29,-19.57 -8.12,-4.84 -16.95,-7.26 -26.48,-7.26 -7.89,0 -15.14,2.03 -21.73,6.09 -6.61,4.06 -11.8,9.53 -15.59,16.41 -3.79,6.87 -5.68,14.18 -5.68,21.91 0,3.6 1.17,6.53 3.5,8.79 2.35,2.27 5.28,3.4 8.79,3.4 3.52,0 6.47,-1.15 8.86,-3.46 2.38,-2.3 3.57,-5.21 3.57,-8.73 0,-3.44 -1.19,-6.35 -3.57,-8.73 -2.39,-2.38 -5.34,-3.58 -8.86,-3.58 -0.54,0 -1.16,0.07 -1.87,0.18 -0.7,0.12 -1.21,0.22 -1.52,0.3"
           style="fill:#262626;fill-opacity:1;fill-rule:nonzero;stroke:none"
           id="path15702" /><path
           d="m 5962.5003,4000.13 c -19.61,0 -32.95,8.07 -40.02,24.2 -7.07,16.13 -10.6,35.33 -10.6,57.59 0,13.91 1.26,26.99 3.8,39.26 2.55,12.27 7.58,22.68 15.12,31.23 7.54,8.56 18.11,12.84 31.7,12.84 10.55,0 19.18,-2.58 25.9,-7.74 6.72,-5.16 11.83,-11.82 15.35,-19.98 3.52,-8.17 5.92,-16.92 7.21,-26.25 1.29,-9.34 1.93,-19.12 1.93,-29.36 0,-13.75 -1.27,-26.62 -3.81,-38.61 -2.54,-11.99 -7.52,-22.19 -14.94,-30.58 -7.42,-8.4 -17.97,-12.6 -31.64,-12.6 z m 0,6.21 c 8.91,0 15.55,4.57 19.92,13.71 4.38,9.14 7.07,19.25 8.08,30.35 1.02,11.1 1.54,22.89 1.54,35.39 0,12.03 -0.52,23.12 -1.54,33.28 -1.01,10.16 -3.68,19.36 -8.02,27.6 -4.34,8.24 -11,12.36 -19.98,12.36 -9.06,0 -15.78,-4.14 -20.15,-12.42 -4.38,-8.28 -7.08,-17.48 -8.1,-27.59 -1.01,-10.12 -1.52,-21.2 -1.52,-33.23 0,-8.9 0.22,-17.3 0.65,-25.2 0.43,-7.89 1.58,-16.03 3.46,-24.43 1.87,-8.39 4.9,-15.46 9.08,-21.2 4.18,-5.75 9.71,-8.62 16.58,-8.62"
           style="fill:#262626;fill-opacity:1;fill-rule:nonzero;stroke:none"
           id="path15704" /><path
           d="m 4728.7803,3848.38 c 0,3.82 1.47,7.18 4.4,10.07 2.93,2.89 6.3,4.34 10.14,4.34 2.34,0 4.66,-0.63 6.97,-1.88 2.3,-1.25 4.1,-3.03 5.39,-5.33 1.28,-2.3 1.93,-4.7 1.93,-7.2 0,-3.75 -1.41,-7.09 -4.22,-10.02 -2.81,-2.93 -6.17,-4.4 -10.07,-4.4 -3.84,0 -7.21,1.47 -10.14,4.4 -2.93,2.93 -4.4,6.27 -4.4,10.02"
           style="fill:#262626;fill-opacity:1;fill-rule:nonzero;stroke:none"
           id="path15706" /><path
           d="m 4686.6003,3684.32 c -2.19,0 -4.05,0.68 -5.57,2.04 -1.52,1.37 -2.28,3.14 -2.28,5.34 0,1.01 0.07,1.79 0.23,2.34 l 19.57,78.28 c 1.33,4.92 1.99,9.22 1.99,12.89 0,7.5 -2.58,11.25 -7.73,11.25 -5.47,0 -9.53,-3.26 -12.18,-9.78 -2.66,-6.53 -5.2,-14.79 -7.63,-24.79 0,-0.55 -0.27,-0.98 -0.81,-1.29 -0.55,-0.31 -1.03,-0.47 -1.41,-0.47 h -3.05 c -0.62,0 -1.15,0.33 -1.58,1 -0.43,0.67 -0.65,1.23 -0.65,1.69 1.88,7.66 3.7,14.13 5.46,19.4 1.75,5.28 4.48,10.1 8.19,14.48 3.72,4.37 8.35,6.56 13.89,6.56 6.49,0 12.29,-2.05 17.4,-6.15 5.12,-4.11 7.69,-9.4 7.69,-15.89 5.07,6.8 11.06,12.17 17.98,16.12 6.91,3.95 14.43,5.92 22.56,5.92 9.14,0 16.46,-2.46 21.97,-7.38 5.51,-4.93 8.26,-11.92 8.26,-20.98 0,-5.24 -0.58,-10.04 -1.76,-14.42 l -30.47,-121.52 c -0.54,-2.5 -1.83,-4.51 -3.86,-6.03 -2.03,-1.53 -4.33,-2.29 -6.92,-2.29 -2.1,0 -3.94,0.64 -5.5,1.93 -1.57,1.29 -2.35,3.07 -2.35,5.34 0,1.01 0.08,1.68 0.24,1.99 l 30.11,121.05 c 1.8,7.19 2.7,13.17 2.7,17.93 0,4.85 -1.02,8.99 -3.05,12.42 -2.03,3.44 -5.31,5.16 -9.84,5.16 -17.19,0 -31.45,-10.58 -42.78,-31.76 l -17.81,-71.72 c -0.63,-2.34 -1.99,-4.37 -4.09,-6.09 -2.11,-1.72 -4.42,-2.57 -6.92,-2.57"
           style="fill:#262626;fill-opacity:1;fill-rule:nonzero;stroke:none"
           id="path15708" /><path
           d="M 3555.0003,4275 V 6622.5"
           style="fill:none;stroke:#262626;stroke-width:12.5025;stroke-linecap:square;stroke-linejoin:round;stroke-miterlimit:10;stroke-dasharray:none;stroke-opacity:1"
           id="path15710" /><path
           d="M 5902.5003,4275 V 6622.5"
           style="fill:none;stroke:#262626;stroke-width:12.5025;stroke-linecap:square;stroke-linejoin:round;stroke-miterlimit:10;stroke-dasharray:none;stroke-opacity:1"
           id="path15712" /><path
           d="m 3555.0003,4275 h 23.48"
           style="fill:none;stroke:#262626;stroke-width:12.5025;stroke-linecap:square;stroke-linejoin:round;stroke-miterlimit:10;stroke-dasharray:none;stroke-opacity:1"
           id="path15714" /><path
           d="m 3555.0003,5448.75 h 23.48"
           style="fill:none;stroke:#262626;stroke-width:12.5025;stroke-linecap:square;stroke-linejoin:round;stroke-miterlimit:10;stroke-dasharray:none;stroke-opacity:1"
           id="path15716" /><path
           d="m 3555.0003,6622.5 h 23.48"
           style="fill:none;stroke:#262626;stroke-width:12.5025;stroke-linecap:square;stroke-linejoin:round;stroke-miterlimit:10;stroke-dasharray:none;stroke-opacity:1"
           id="path15718" /><path
           d="m 5902.5003,4275 h -23.48"
           style="fill:none;stroke:#262626;stroke-width:12.5025;stroke-linecap:square;stroke-linejoin:round;stroke-miterlimit:10;stroke-dasharray:none;stroke-opacity:1"
           id="path15720" /><path
           d="m 5902.5003,5448.75 h -23.48"
           style="fill:none;stroke:#262626;stroke-width:12.5025;stroke-linecap:square;stroke-linejoin:round;stroke-miterlimit:10;stroke-dasharray:none;stroke-opacity:1"
           id="path15722" /><path
           d="m 5902.5003,6622.5 h -23.48"
           style="fill:none;stroke:#262626;stroke-width:12.5025;stroke-linecap:square;stroke-linejoin:round;stroke-miterlimit:10;stroke-dasharray:none;stroke-opacity:1"
           id="path15724" /><path
           d="m 4728.7503,6622.5 -0.3,-0.02 -0.33,-0.04 -0.4,-0.08 -0.49,-0.12 -0.65,-0.18 -0.85,-0.26 -1.13,-0.34 -1.48,-0.48 -1.96,-0.64 -2.57,-0.86 -3.35,-1.15 -4.36,-1.52 -5.65,-2.01 -7.3,-2.64 -9.37,-3.45 -12,-4.5 -15.32,-5.81 -19.45,-7.51 -24.54,-9.66 -30.8,-12.38 -38.56,-15.73 -47.8,-19.91 -58.5,-25.07 -70.52,-31.39 -83.45,-38.95 -96.42,-47.73 -106.79,-57.62 -111.28,-68.33 -104.59,-79.05 -79.25,-88.29 -26.8,-93.64 58.35,-92.35 171.64,-81.35 288.98,-58.76 369.48,-25.98 374.25,10.95 298.6,44.47 176.82,67.88 51.23,78.83 -49.79,78.87 -118.5,70.1 -159.55,56.32 -182.48,39.61 -194.38,21.13 -199.89,1.77 -202.08,-17.93 -198.44,-37.43 -184.83,-56.16 -155.15,-73.02 -97.52,-85.72 -3.53,-90.95 127.8,-85.12 273.64,-65.54 384.69,-32.74 406.81,6.75 324.84,43.28 180.25,68.22 29.04,78.28 -91.67,75.07 -173.16,61.47 -220.76,42.16 -245.91,19.23 -254.21,-5.32 -247.97,-29.99 -222.74,-53.18 -170.22,-72.6 -79.1,-85.17 56.17,-86.61 222.16,-73.15 368.72,-43.9 427.9,-3.89 363.37,35.63 209.05,64.13 35.72,75.93 -107.45,72.14 -204.62,56.41 -260.42,33.42 -285,6.57 -283.15,-21.36 -253.51,-47.86 -187.04,-69.75 -73.64,-82.86 89.28,-82.5 274,-64.67 412.22,-30.45 428.27,11.85 310.14,48.79 122.53,70.17 -57.71,73.09 -190.52,60.52 -270.45,37.39 -306.09,9.07 -304.37,-21.08 -263.76,-49.14 -174.5,-71.06 -28.94,-81.41 164.2,-75.11 352.25,-49.44 445.23,-9.39 383.93,32.43 204.59,61.74 -1.07,71.58 -166.93,62.91 -272.32,40.91 -321.36,11.51 -321.25,-20.29 -270.85,-49.57 -160.85,-71.26 12.49,-79.03 226.86,-67.38 404.39,-35.91 445.77,7.16 321.01,45.75 105.75,66.88 -100.51,66.8 -246.43,49.3 -323.51,20.74 -338.56,-11.95 -293.41,-43.33 -180.92,-67.08 2.62,-76.4 229.62,-65.1 412.91,-32.95 444.03,10.59 298.52,47.99 67.69,66.09 -142.52,62.06 -282.72,40.5 -345.29,9.24 -336.73,-24.65 -255.04,-54.11 -93.03,-71.86 133.95,-70.19 358.43,-45.65 456.45,-4.32 359.02,37.05 130.59,61.51 -103.9,62.45 -270.08,43.54 -349.93,12.39 -346.42,-22.18 -259.27,-52.47 -83.61,-69.97 158.36,-66.63 382.7,-39.49 454.34,3.11 319.28,42.37 70.33,61.75 -161.67,56.88 -311.5,32.74 -364.46,-0.85 -324.04,-35.38 -187.13,-61.07 39.41,-68.95 296.91,-52.27 450.89,-14.31 390.21,28.66 157.33,56.24 -101.6,58.66 -286.26,38.89 -366.29,6.07 -341.03,-29.31 -209.8,-57.03 20.78,-67.02 287.72,-51.74 449.91,-14.17 385.36,28.59 142.1,55.18 -123.44,55.79 -306.03,33.77 -373.15,-0.24 -324.27,-35.39 -159.16,-59.82 101.11,-63.27 360.52,-40.02 453.35,1.71 303.23,40.4 24.58,56.72 -221.39,46.44 -356.65,17.12 -364.63,-19.19 -244.76,-49.94 -7.39,-63.12 278.13,-49.7 449.08,-12.49 369.27,29.63 101.78,53.42 -172.75,49.49 -342.6,23.05 -374.31,-12.93 -267.5,-45.57 -32.27,-61.04 261.76,-49.77 445.62,-13.47 368.48,28.54 94.04,51.97 -186.13,46.92 -352.59,19.3 -369.73,-17.08 -237.76,-48.08 23.99,-59.3 318.15,-42.15 450.15,-2.48 303.33,36.43 1.55,51.68 -257.63,38.33 -377.58,5.85 -334.85,-30.16 -136.9,-54.44 166.46,-53.37 413.38,-23.65 404.06,18.81 144.13,46.89 -160.49,45.6 -349.01,19.45 -370.25,-17.1 -219.62,-47.3 69.82,-55.39 362.64,-33.4 434.4,8.09 215.16,41.67 -105.62,46.86 -329.15,24.44 -378.66,-11.79 -243.13,-43.61 43.97,-54.23 348.66,-34.25 434.01,6.6 215.33,40.29 -111.89,45.16 -335.81,21.97 -374.57,-14.36 -218.41,-44.87 89.15,-51.97 382.03,-27.77 412.11,13.85 146.55,42.78 -178.94,40.67 -366.15,12.43 -348.03,-24.11 -130.45,-49.03 204.93,-45.63 430.67,-12.48 330.06,27.48 2.16,44.43 -284.96,29.42 -383.28,-5.01 -261.7,-38.27 42.1,-50.07 359.96,-29.39 413.25,11.39 143.22,40.4 -193.81,37.34 -374.26,7.75 -323.36,-28.2 -60.36,-48.4 286.25,-37.05 431.85,0.87 220.5,35.21 -132.6,39.34 -357.03,13.71 -345.04,-22.65 -102.15,-46.12 253.02,-38.7 430.77,-2.52 238.42,32.87 -120.88,38.59 -354.71,13.55 -342.3,-22.6 -87.94,-45.33 272.17,-36.09 426.04,1.01 200.29,34.21 -162.78,35.71 -369.49,7.73 -310.96,-27.75 -13.55,-45.12 335.78,-28.45 398.43,10.86 98.71,37.06 -247.24,28.78 -379.04,-4.05 -230.37,-36.05 125.12,-42.08 408.06,-13.83 304.55,24.47 -65.49,36.72 -340.79,15.04 -341.18,-20.74 -64.85,-42.47 307.04,-30 402.04,8.23 101.38,35.02 -255.9,26.38 -376.17,-7.02 -189.72,-37.02 191.64,-37.41 418.7,-4.59 214.51,29.59 -173.39,31.28 -374.14,2.12 -255.95,-31.28 111.07,-39.51 405.45,-11.78 270.87,25.01 -123.4,32.43 -365.55,6.18 -279.82,-28.11 80.94,-39.24 397.21,-13.54 280.07,23.49 -119.28,31.68 -365.7,5.52 -269.97,-28.4 104.45,-37.82 404.07,-10.26 244.48,25.31 -162.9,29.23 -373.08,0.3 -221.25,-31.66 180.75,-34.38 410.17,-1.97 154.37,28.98 -244.57,23.56 -367.01,-9.41 -115.66,-35.71 295.63,-26.36 371.66,10.68 0.66,30.84 -333.96,12.34 -306.29,-22.27 63.28,-35.98 394.52,-10.88 230.36,23.93 -193.89,25.41 -370.31,-5.39 -139.14,-33.34 286.1,-25.76 363.82,10.73 -25.98,29.15 -348.31,8.29 -265.65,-25.32 147.01,-32.39 400.89,-1.72 113.2,27.06 -289.5,16.77 -328.53,-17.19 35.81,-33.8 388.04,-10.23 202.23,23.25 -234.12,20.91 -352.45,-11.57 -28.85,-33.1 367.22,-14.35 242.09,20.5 -205.5,22.02 -357.49,-9.43 -44.87,-32.19 361.94,-14.58 238.69,20.03 -213.88,20.86 -350.84,-10.82 -13.04,-31.66 375.87,-11.18 192.01,21.69 -257.1,17.42 -325.86,-15.48 70.48,-30.44 389.9,-3.92 91.35,23.94 -318.6,10.44 -257.88,-22.25 200.1,-26.18 361.07,6.79 -64.4,23.67 -359.66,-0.87 -114.4,-28.25 337.57,-15.71 230.45,18.06 -242.93,16.73 -315.36,-15.47 115.95,-27.61 377.21,1.71 -17.87,22.75 -354.51,0.72 -116.65,-26.91 342.54,-13.98 194.88,18.52 -279.06,12.92 -269.36,-19.2 211.89,-23.25 325.15,9.52 -156.08,19.17 -338.28,-10.21 74.02,-26.45 372.38,0.79 -40.2,20.75 -353.22,-3.07 -27.88,-26.26 373.27,-5.28 39.96,20.17 -347.1,1.16 -83.01,-25.12 362.85,-8.13 74.47,19.25 -341.47,2.4 -92.77,-24.36 360.82,-7.94 61.7,18.83 -344.24,0.85 -57.08,-24.28 367.14,-4.82 0.39,18.61 -347.12,-3.49 29.08,-23.91 359.09,1.2 -108.02,17.05 -322.11,-10.36 163.8,-21.15 291.81,9.19 -241.49,11.8 -224.07,-18.12 114.29,-10.9"
           style="fill:none;stroke:#0072bd;stroke-width:15;stroke-linecap:butt;stroke-linejoin:round;stroke-miterlimit:10;stroke-dasharray:none;stroke-opacity:1"
           id="path15736" /><path
           d="m 4675.8703,5677.17 0.14,-5.16 0.29,-5.14 0.27,-5.11 0.27,-5.09 0.27,-5.06 0.26,-5.03 0.25,-5.01 0.25,-4.98 0.25,-4.96 0.24,-4.93 0.24,-4.92 0.23,-4.89 0.23,-4.86 0.23,-4.84 0.22,-4.82 0.22,-4.8 0.21,-4.78 0.21,-4.77 0.21,-4.73 0.2,-4.72 0.21,-4.7 0.2,-4.68 0.19,-4.65 0.19,-4.65 0.19,-4.62 0.19,-4.6 0.18,-4.58 0.18,-4.57 0.18,-4.56 0.18,-4.53 0.17,-4.51 0.17,-4.5 0.17,-4.49 0.16,-4.46 0.17,-4.45 0.15,-4.43 0.17,-4.42 0.16,-4.4 0.14,-4.39 0.16,-4.38 0.15,-4.35 0.15,-4.35 0.15,-4.32 0.14,-4.32 0.15,-4.3 0.14,-4.29 0.14,-4.27 0.14,-4.26 0.13,-4.24 0.14,-4.24 0.13,-4.22 0.14,-4.2 0.12,-4.19 0.13,-4.19 0.13,-4.16 0.13,-4.16 0.13,-4.14 0.11,-4.14 0.12,-4.11 0.13,-4.12 0.12,-4.09 0.11,-4.08 0.13,-4.08 0.11,-4.06 0.11,-4.05 0.11,-4.04 0.11,-4.03 0.12,-4.01 0.1,-4.01 0.12,-4 0.1,-3.98 0.1,-3.98 0.11,-3.97 0.1,-3.95 0.11,-3.94 0.11,-3.93 0.09,-3.93 0.11,-3.91 0.1,-3.91 0.09,-3.89 0.1,-3.89 0.1,-3.87 0.09,-3.87 0.1,-3.86 0.09,-3.85 0.09,-3.84 0.09,-3.83 0.09,-3.81 0.1,-3.82 0.08,-3.81 0.09,-3.79 0.09,-3.79 0.09,-3.77 0.08,-3.77 0.09,-3.76 0.09,-3.76 0.08,-3.74 0.08,-3.73 0.09,-3.73 0.09,-3.72 0.07,-3.71 0.08,-3.71 0.08,-3.69 0.08,-3.69 0.08,-3.68 0.08,-3.67 0.08,-3.67 0.08,-3.66 0.07,-3.64 0.07,-3.65 0.08,-3.63 0.08,-3.63 0.07,-3.62 0.07,-3.61 0.08,-3.61 0.08,-3.6 0.06,-3.59 0.08,-3.58 0.06,-3.58 0.07,-3.58 0.08,-3.56 0.07,-3.56 0.06,-3.55 0.07,-3.54 0.07,-3.54 0.06,-3.53 0.07,-3.52 0.07,-3.52 0.07,-3.51 0.06,-3.51 0.07,-3.49 0.06,-3.5 0.06,-3.49 0.07,-3.48 0.06,-3.47 0.06,-3.46 0.07,-3.47 0.06,-3.45 0.06,-3.45 0.06,-3.44 0.06,-3.44 0.06,-3.43 0.06,-3.43 0.06,-3.42 0.06,-3.41 0.06,-3.4 0.06,-3.41 0.06,-3.4 0.05,-3.39 0.06,-3.38 0.05,-3.38 0.06,-3.38 0.06,-3.37 0.06,-3.36 0.05,-3.35 0.06,-3.36 0.05,-3.35 0.05,-3.34 0.06,-3.33 0.05,-3.34 0.06,-3.32 0.05,-3.32 0.05,-3.32 0.05,-3.31 0.06,-3.31 0.04,-3.3 0.06,-3.29 0.05,-3.29 0.05,-3.29 0.05,-3.27 0.05,-3.28 0.05,-3.27 0.05,-3.27 0.05,-3.26 0.05,-3.26 0.05,-3.25 0.05,-3.25 0.04,-3.23 0.05,-3.25 0.05,-3.23 0.04,-3.22 0.06,-3.23 0.04,-3.21 0.05,-3.22 0.04,-3.21 0.05,-3.2 0.04,-3.21 0.06,-3.19 0.04,-3.19 0.05,-3.19 0.04,-3.18 0.05,-3.18 0.04,-3.18 0.04,-3.16 0.04,-3.17 0.05,-3.16 0.04,-3.16 0.05,-3.15 0.04,-3.15 0.04,-3.14 0.05,-3.14 0.04,-3.14 0.04,-3.13 0.04,-3.12 0.04,-3.13 0.04,-3.12 0.04,-3.11 0.05,-3.12 0.03,-3.1 0.05,-3.11 0.04,-3.1 0.04,-3.09 0.04,-3.09 0.04,-3.09 0.04,-3.08 0.04,-3.09 0.04,-3.07 0.03,-3.07 0.04,-3.07 0.05,-3.06 0.04,-3.06 0.03,-3.07 0.04,-3.05 0.04,-3.04 0.03,-3.05 0.04,-3.04 0.04,-3.04 0.04,-3.04 0.04,-3.03 0.03,-3.03 0.04,-3.02 0.04,-3.02 0.03,-3.02 0.04,-3.01 0.03,-3.01 0.04,-3.01 0.04,-3 0.03,-3 0.04,-2.99 0.03,-2.99 0.04,-3 0.03,-2.98 0.04,-2.98 0.04,-2.98 0.03,-2.97 0.03,-2.98 0.03,-2.96 0.04,-2.97 0.03,-2.97 0.04,-2.95 0.03,-2.96 0.03,-2.95 0.04,-2.95 0.03,-2.94 0.03,-2.94 0.03,-2.95 0.04,-2.93 0.03,-2.93 0.04,-2.93 0.03,-2.93 0.03,-2.92 0.03,-2.92 0.03,-2.92 0.04,-2.91 0.03,-2.91 0.02,-2.91 0.04,-2.9 0.03,-2.9 0.03,-2.9 0.03,-2.9 0.03,-2.89 0.03,-2.89 0.03,-2.88 0.03,-2.89 0.03,-2.88 0.03,-2.88 0.03,-2.87 0.03,-2.87 0.03,-2.87 0.03,-2.86 0.03,-2.87 0.03,-2.86 0.03,-2.86 0.03,-2.85 0.03,-2.85 0.03,-2.85 0.03,-2.84 0.03,-2.85 0.03,-2.84 0.03,-2.83 0.02,-2.84 0.04,-2.83 0.03,-2.83 0.02,-2.82 0.03,-2.83 0.03,-2.82 0.03,-2.81 0.02,-2.82 0.03,-2.81 0.03,-2.81 0.02,-2.81 0.03,-2.8 0.03,-2.81 0.03,-2.79 0.02,-2.8 0.04,-2.79 0.02,-2.8 0.03,-2.78 0.02,-2.79 0.03,-2.78 0.02,-2.79 0.03,-2.77 0.03,-2.77 0.03,-2.78 0.02,-2.77 0.03,-2.77 0.02,-2.76 0.03,-2.76 0.02,-2.76 0.03,-2.76 0.03,-2.75 0.02,-2.76 0.03,-2.75 0.02,-2.74 0.02,-2.75 0.03,-2.74 0.02,-2.74 0.03,-2.74 0.03,-2.74 0.02,-2.73 0.02,-2.73 0.03,-2.73 0.02,-2.73 0.03,-2.72 0.02,-2.72 0.03,-2.72 0.02,-2.71 0.02,-2.72 0.03,-2.71 0.02,-2.71 0.03,-2.71 0.02,-2.7 0.03,-2.7 0.02,-2.71 0.02,-2.7 0.02,-2.69 0.03,-2.69 0.02,-2.69 0.03,-2.69 0.02,-2.69 0.02,-2.68 0.03,-2.68 0.02,-2.68 0.02,-2.68 0.02,-2.67 0.03,-2.67 0.02,-2.67 0.02,-2.67 0.02,-2.68 0.03,-2.66 0.02,-2.66 0.02,-2.65 0.02,-2.67 0.03,-2.65 0.02,-2.66 0.02,-2.64 0.02,-2.65 0.02,-2.65 0.02,-2.65 0.02,-2.64 0.02,-2.64 0.03,-2.64 0.02,-2.63 0.02,-2.64 0.02,-2.63 0.02,-2.63 0.02,-2.63 0.03,-2.63 0.02,-2.62 0.02,-2.62 0.02,-2.62 0.02,-2.61 0.02,-2.62 0.02,-2.62 0.03,-2.61 0.01,-2.61 0.02,-2.6 0.02,-2.61 0.02,-2.6 0.02,-2.6 0.03,-2.6 0.02,-2.6 0.01,-2.6 0.02,-2.59 0.03,-2.59 0.01,-2.59 0.02,-2.59 0.03,-2.58 0.01,-2.59 0.03,-2.58 0.02,-2.58 0.01,-2.58 0.02,-2.57 0.02,-2.57 0.02,-2.58 0.03,-2.57 0.01,-2.57 0.02,-2.57 0.02,-2.56 0.02,-2.57 0.02,-2.55 0.02,-2.56 0.01,-2.56 0.03,-2.56 0.02,-2.55 0.01,-2.55 0.02,-2.56 0.02,-2.54 0.02,-2.55 0.02,-2.54 0.02,-2.54 0.01,-2.54 0.01,-1.32"
           style="fill:none;stroke:#ff0000;stroke-width:15;stroke-linecap:butt;stroke-linejoin:bevel;stroke-miterlimit:10;stroke-dasharray:60, 60;stroke-dashoffset:0;stroke-opacity:1"
           id="path15738" /><path
           d="m 915,1612.4995 h 2347.5 v 2347.5 H 915 Z"
           style="fill:#ffffff;fill-opacity:1;fill-rule:nonzero;stroke:none"
           id="path15740" /><path
           d="M 915,1612.4995 H 3262.5"
           style="fill:none;stroke:#262626;stroke-width:12.5025;stroke-linecap:square;stroke-linejoin:round;stroke-miterlimit:10;stroke-dasharray:none;stroke-opacity:1"
           id="path15742" /><path
           d="M 915,3959.9995 H 3262.5"
           style="fill:none;stroke:#262626;stroke-width:12.5025;stroke-linecap:square;stroke-linejoin:round;stroke-miterlimit:10;stroke-dasharray:none;stroke-opacity:1"
           id="path15744" /><path
           d="m 915,1612.4995 v 23.477"
           style="fill:none;stroke:#262626;stroke-width:12.5025;stroke-linecap:square;stroke-linejoin:round;stroke-miterlimit:10;stroke-dasharray:none;stroke-opacity:1"
           id="path15746" /><path
           d="m 2088.75,1612.4995 v 23.477"
           style="fill:none;stroke:#262626;stroke-width:12.5025;stroke-linecap:square;stroke-linejoin:round;stroke-miterlimit:10;stroke-dasharray:none;stroke-opacity:1"
           id="path15748" /><path
           d="m 3262.5,1612.4995 v 23.477"
           style="fill:none;stroke:#262626;stroke-width:12.5025;stroke-linecap:square;stroke-linejoin:round;stroke-miterlimit:10;stroke-dasharray:none;stroke-opacity:1"
           id="path15750" /><path
           d="m 915,3959.9995 v -23.48"
           style="fill:none;stroke:#262626;stroke-width:12.5025;stroke-linecap:square;stroke-linejoin:round;stroke-miterlimit:10;stroke-dasharray:none;stroke-opacity:1"
           id="path15752" /><path
           d="m 2088.75,3959.9995 v -23.48"
           style="fill:none;stroke:#262626;stroke-width:12.5025;stroke-linecap:square;stroke-linejoin:round;stroke-miterlimit:10;stroke-dasharray:none;stroke-opacity:1"
           id="path15754" /><path
           d="m 3262.5,3959.9995 v -23.48"
           style="fill:none;stroke:#262626;stroke-width:12.5025;stroke-linecap:square;stroke-linejoin:round;stroke-miterlimit:10;stroke-dasharray:none;stroke-opacity:1"
           id="path15756" /><path
           d="m 877.266,1342.8975 v 8.438 c 20,0 30,2.543 30,7.621 v 125.977 c -8.282,-3.985 -18.754,-5.977 -31.407,-5.977 v 8.438 c 19.61,0 34.414,5.117 44.414,15.351 h 3.399 c 0.547,0 1.074,-0.215 1.582,-0.644 0.508,-0.43 0.762,-0.918 0.762,-1.469 v -141.676 c 0,-5.078 10,-7.621 30,-7.621 v -8.438 h -78.75"
           style="fill:#262626;fill-opacity:1;fill-rule:nonzero;stroke:none"
           id="path15758" /><path
           d="m 2040.7,1342.8975 v 6.446 c 0,0.394 0.16,0.824 0.47,1.289 l 37.27,41.25 c 5.62,6.094 10.19,11.211 13.71,15.351 3.51,4.141 6.99,8.907 10.43,14.297 3.44,5.395 6.15,10.883 8.15,16.469 1.98,5.586 2.98,11.504 2.98,17.754 0,6.559 -1.21,12.828 -3.63,18.809 -2.42,5.976 -6.04,10.761 -10.85,14.355 -4.8,3.594 -10.6,5.391 -17.39,5.391 -6.96,0 -13.21,-2.09 -18.75,-6.27 -5.55,-4.18 -9.45,-9.59 -11.72,-16.23 0.63,0.156 1.48,0.234 2.57,0.234 3.6,0 6.67,-1.211 9.2,-3.637 2.54,-2.422 3.82,-5.547 3.82,-9.375 0,-3.672 -1.28,-6.777 -3.82,-9.316 -2.53,-2.539 -5.6,-3.809 -9.2,-3.809 -3.75,0 -6.89,1.309 -9.42,3.93 -2.54,2.613 -3.82,5.68 -3.82,9.195 0,6.02 1.14,11.664 3.4,16.934 2.27,5.273 5.53,9.961 9.79,14.062 4.25,4.106 9.06,7.25 14.41,9.434 5.35,2.191 11.04,3.285 17.05,3.285 9.14,0 17.66,-1.933 25.55,-5.805 7.89,-3.863 14.14,-9.332 18.75,-16.402 4.61,-7.07 6.91,-15.332 6.91,-24.785 0,-6.957 -1.52,-13.559 -4.56,-19.809 -3.05,-6.25 -6.96,-11.933 -11.73,-17.047 -4.76,-5.121 -10.86,-10.921 -18.27,-17.402 -7.43,-6.484 -12.32,-10.82 -14.66,-13.012 l -27.19,-26.129 h 23.1 c 11.32,0 20.79,0.098 28.41,0.293 7.62,0.196 11.66,0.489 12.13,0.875 1.87,2.032 3.79,9.415 5.74,22.149 h 7.03 l -6.79,-42.774 h -89.07"
           style="fill:#262626;fill-opacity:1;fill-rule:nonzero;stroke:none"
           id="path15760" /><path
           d="m 3225.35,1361.4175 c 3.75,-5.469 8.79,-9.531 15.11,-12.188 6.34,-2.656 13.13,-3.984 20.4,-3.984 9.3,0 15.9,3.965 19.8,11.899 3.91,7.921 5.86,16.925 5.86,27.003 0,4.532 -0.41,9.063 -1.23,13.598 -0.82,4.531 -2.2,8.75 -4.16,12.652 -1.95,3.907 -4.63,7.032 -8.02,9.375 -3.4,2.348 -7.56,3.52 -12.48,3.52 h -15.94 c -1.41,0 -2.11,0.742 -2.11,2.227 v 2.109 c 0,1.25 0.7,1.875 2.11,1.875 l 13.24,1.055 c 5.63,0 10.3,2.109 14,6.324 3.71,4.219 6.43,9.355 8.15,15.414 1.72,6.055 2.57,11.816 2.57,17.285 0,7.656 -1.79,13.941 -5.38,18.863 -3.6,4.926 -9.07,7.387 -16.41,7.387 -6.1,0 -11.92,-1.152 -17.46,-3.457 -5.55,-2.305 -9.96,-5.801 -13.25,-10.492 0.32,0.078 0.59,0.14 0.83,0.18 0.23,0.039 0.5,0.058 0.82,0.058 3.59,0 6.6,-1.25 9.02,-3.75 2.42,-2.5 3.64,-5.508 3.64,-9.027 0,-3.438 -1.22,-6.403 -3.64,-8.903 -2.42,-2.5 -5.43,-3.75 -9.02,-3.75 -3.52,0 -6.53,1.25 -9.03,3.75 -2.5,2.5 -3.75,5.465 -3.75,8.903 0,6.875 2.07,12.851 6.21,17.929 4.14,5.082 9.48,8.93 16,11.543 6.52,2.622 13.07,3.93 19.63,3.93 4.84,0 9.96,-0.723 15.35,-2.164 5.39,-1.453 10.27,-3.523 14.65,-6.219 4.37,-2.695 7.95,-6.152 10.72,-10.367 2.78,-4.219 4.17,-9.023 4.17,-14.414 0,-6.719 -1.51,-12.934 -4.52,-18.637 -3.01,-5.699 -7.13,-10.621 -12.36,-14.761 -5.23,-4.145 -10.98,-7.231 -17.23,-9.262 6.95,-1.324 13.55,-3.942 19.8,-7.852 6.25,-3.906 11.27,-8.906 15.06,-15 3.79,-6.09 5.69,-12.652 5.69,-19.687 0,-8.824 -2.42,-16.813 -7.27,-23.961 -4.85,-7.152 -11.21,-12.738 -19.1,-16.758 -7.89,-4.023 -16.21,-6.035 -24.96,-6.035 -7.5,0 -15.02,1.422 -22.56,4.273 -7.54,2.856 -13.71,7.133 -18.51,12.832 -4.81,5.707 -7.21,12.543 -7.21,20.512 0,3.981 1.33,7.301 3.98,9.961 2.66,2.656 5.98,3.984 9.96,3.984 2.58,0 4.94,-0.605 7.09,-1.816 2.15,-1.211 3.83,-2.91 5.04,-5.102 1.21,-2.183 1.81,-4.527 1.81,-7.027 0,-3.91 -1.36,-7.191 -4.09,-9.848 -2.73,-2.652 -6.02,-3.98 -9.85,-3.98 h -1.17"
           style="fill:#262626;fill-opacity:1;fill-rule:nonzero;stroke:none"
           id="path15762" /><path
           d="m 2067.7,983.84355 c 0.31,2.027 1.53,3.043 3.64,3.043 0.15,0 1.79,-0.84 4.92,-2.52 3.12,-1.679 6.56,-3.203 10.31,-4.566 3.75,-1.367 7.5,-2.047 11.25,-2.047 3.28,0 6.04,1.383 8.26,4.152 2.23,2.778 3.34,5.766 3.34,8.973 0,4.605 -2.46,7.844 -7.38,9.71895 l -44.53,17.347 c -7.74,2.969 -14.11,7.422 -19.11,13.36 -5,5.937 -7.5,12.695 -7.5,20.269 0,6.723 1.8,13.735 5.4,21.039 3.59,7.305 8.22,13.926 13.88,19.86 5.66,5.941 11.7,10.746 18.11,14.414 -5.16,3.051 -9.16,6.996 -12.01,11.836 -2.85,4.843 -4.28,10.156 -4.28,15.937 0,6.176 1.25,11.918 3.75,17.227 2.5,5.316 5.94,10.14 10.31,14.476 4.38,4.336 9.26,8.028 14.65,11.078 5.39,3.043 10.86,5.348 16.4,6.907 -0.86,3.593 -1.29,6.836 -1.29,9.726 0,9.457 1.84,14.184 5.52,14.184 0.93,0 1.73,-0.332 2.39,-0.996 0.67,-0.668 1,-1.465 1,-2.403 0,-0.859 -0.23,-2.754 -0.7,-5.683 -0.47,-2.93 -0.71,-4.707 -0.71,-5.332 0,-3.047 0.39,-5.699 1.18,-7.965 4.53,0.934 8.91,1.402 13.13,1.402 16.01,0 24.02,-2.5 24.02,-7.5 0,-5.859 -8.91,-8.789 -26.72,-8.789 -5.47,0 -9.92,1.836 -13.36,5.512 -5,-2.582 -9.65,-6.215 -13.94,-10.906 -4.31,-4.684 -7.65,-9.918 -10.02,-15.7 -2.39,-5.781 -3.58,-11.601 -3.58,-17.457 0,-8.207 2.35,-14.808 7.03,-19.808 6.25,2.183 12.5,3.277 18.75,3.277 16.02,0 24.03,-2.5 24.03,-7.5 0,-5.855 -8.91,-8.781 -26.73,-8.781 -7.26,0 -14.1,1.09 -20.5,3.277 -7.82,-4.14 -14.97,-10.488 -21.44,-19.043 -6.49,-8.554 -9.73,-16.816 -9.73,-24.789 0,-5.074 1.85,-9.566 5.56,-13.476 3.71,-3.907 8.3,-7.032 13.77,-9.375 l 46.53,-18.043 c 4.06,-1.489 7.34,-3.926 9.84,-7.321 2.5,-3.402 3.75,-7.289 3.75,-11.66395 0,-7.191 -2.76,-13.695 -8.26,-19.515 -5.51,-5.821 -11.86,-8.731 -19.04,-8.731 -2.2,0 -5.81,0.59 -10.85,1.762 -5.03,1.172 -9.47,2.75 -13.29,4.742 -3.84,1.996 -5.75,4.125 -5.75,6.391 z m 21.33,123.86695 c 2.26,-0.859 5.11,-1.289 8.56,-1.289 8.43,0 14.48,0.508 18.16,1.523 -3.29,0.703 -8.68,1.059 -16.18,1.059 -3.04,0 -6.56,-0.43 -10.54,-1.293 z m 20.16,71.605 c 1.48,-1.019 3.59,-1.531 6.32,-1.531 8.36,0 14.42,0.512 18.17,1.531 h -24.49"
           style="fill:#262626;fill-opacity:1;fill-rule:nonzero;stroke:none"
           id="path15764" /><path
           d="m 915,1612.4995 v 2347.5"
           style="fill:none;stroke:#262626;stroke-width:12.5025;stroke-linecap:square;stroke-linejoin:round;stroke-miterlimit:10;stroke-dasharray:none;stroke-opacity:1"
           id="path15766" /><path
           d="m 3262.5,1612.4995 v 2347.5"
           style="fill:none;stroke:#262626;stroke-width:12.5025;stroke-linecap:square;stroke-linejoin:round;stroke-miterlimit:10;stroke-dasharray:none;stroke-opacity:1"
           id="path15768" /><path
           d="m 915,1612.4995 h 23.477"
           style="fill:none;stroke:#262626;stroke-width:12.5025;stroke-linecap:square;stroke-linejoin:round;stroke-miterlimit:10;stroke-dasharray:none;stroke-opacity:1"
           id="path15770" /><path
           d="m 915,2786.2495 h 23.477"
           style="fill:none;stroke:#262626;stroke-width:12.5025;stroke-linecap:square;stroke-linejoin:round;stroke-miterlimit:10;stroke-dasharray:none;stroke-opacity:1"
           id="path15772" /><path
           d="m 915,3959.9995 h 23.477"
           style="fill:none;stroke:#262626;stroke-width:12.5025;stroke-linecap:square;stroke-linejoin:round;stroke-miterlimit:10;stroke-dasharray:none;stroke-opacity:1"
           id="path15774" /><path
           d="m 3262.5,1612.4995 h -23.48"
           style="fill:none;stroke:#262626;stroke-width:12.5025;stroke-linecap:square;stroke-linejoin:round;stroke-miterlimit:10;stroke-dasharray:none;stroke-opacity:1"
           id="path15776" /><path
           d="m 3262.5,2786.2495 h -23.48"
           style="fill:none;stroke:#262626;stroke-width:12.5025;stroke-linecap:square;stroke-linejoin:round;stroke-miterlimit:10;stroke-dasharray:none;stroke-opacity:1"
           id="path15778" /><path
           d="m 3262.5,3959.9995 h -23.48"
           style="fill:none;stroke:#262626;stroke-width:12.5025;stroke-linecap:square;stroke-linejoin:round;stroke-miterlimit:10;stroke-dasharray:none;stroke-opacity:1"
           id="path15780" /><path
           d="m 529.699,1599.3155 v 14.879 h 63.508 v -14.879 h -63.508"
           style="fill:#262626;fill-opacity:1;fill-rule:nonzero;stroke:none"
           id="path15782" /><path
           d="m 627.859,1582.2065 c 1.637,-4.691 4.157,-8.945 7.559,-12.773 3.398,-3.829 7.422,-6.821 12.066,-8.969 4.653,-2.145 9.477,-3.219 14.477,-3.219 11.562,0 19.535,4.492 23.91,13.473 4.375,8.984 6.563,19.883 6.563,32.699 0,5.543 -0.102,10.211 -0.301,14.004 -0.195,3.789 -0.719,7.441 -1.574,10.957 -1.485,5.625 -4.086,10.547 -7.801,14.766 -3.711,4.214 -8.262,6.324 -13.649,6.324 -5.39,0 -10.019,-0.821 -13.882,-2.461 -3.872,-1.641 -7.016,-3.555 -9.438,-5.738 -2.426,-2.192 -4.574,-4.497 -6.449,-6.915 -1.875,-2.425 -3.043,-3.714 -3.512,-3.871 h -2.699 c -0.391,0 -0.875,0.254 -1.461,0.766 -0.586,0.504 -0.879,0.992 -0.879,1.461 v 80.16 c 0,0.391 0.254,0.801 0.758,1.231 0.512,0.429 1.039,0.644 1.582,0.644 h 0.707 c 10.777,-5.16 22.223,-7.738 34.336,-7.738 11.875,0 23.316,2.578 34.332,7.738 h 0.707 c 0.543,0 1.051,-0.195 1.523,-0.59 0.469,-0.39 0.704,-0.82 0.704,-1.285 v -2.226 c 0,-0.786 -0.157,-1.176 -0.473,-1.176 -5.465,-7.266 -12.32,-12.93 -20.567,-16.989 -8.238,-4.066 -16.773,-6.097 -25.601,-6.097 -6.406,0 -12.969,0.898 -19.688,2.699 v -45.352 c 5.313,4.293 10.063,7.36 14.243,9.196 4.179,1.84 9.507,2.758 15.988,2.758 8.832,0 16.738,-2.539 23.73,-7.618 6.996,-5.082 12.368,-11.703 16.118,-19.863 3.75,-8.164 5.625,-16.504 5.625,-25.019 0,-9.61 -2.364,-18.516 -7.086,-26.723 -4.731,-8.203 -11.161,-14.727 -19.286,-19.566 -8.125,-4.844 -16.953,-7.266 -26.48,-7.266 -7.891,0 -15.137,2.027 -21.734,6.09 -6.606,4.062 -11.805,9.535 -15.594,16.41 -3.785,6.875 -5.68,14.18 -5.68,21.914 0,3.594 1.172,6.523 3.512,8.789 2.344,2.266 5.273,3.398 8.789,3.398 3.516,0 6.465,-1.152 8.851,-3.457 2.383,-2.304 3.579,-5.214 3.579,-8.73 0,-3.441 -1.196,-6.352 -3.579,-8.73 -2.386,-2.387 -5.335,-3.579 -8.851,-3.579 -0.543,0 -1.168,0.063 -1.875,0.18 -0.699,0.117 -1.207,0.215 -1.52,0.293"
           style="fill:#262626;fill-opacity:1;fill-rule:nonzero;stroke:none"
           id="path15784" /><path
           d="m 787,1549.6285 c -19.609,0 -32.949,8.066 -40.02,24.199 -7.07,16.133 -10.605,35.328 -10.605,57.594 0,13.906 1.27,26.992 3.809,39.262 2.543,12.265 7.578,22.675 15.113,31.23 7.539,8.555 18.109,12.832 31.703,12.832 10.547,0 19.176,-2.578 25.898,-7.738 6.719,-5.156 11.836,-11.817 15.352,-19.981 3.516,-8.164 5.918,-16.914 7.207,-26.25 1.289,-9.336 1.934,-19.121 1.934,-29.355 0,-13.75 -1.27,-26.621 -3.809,-38.609 -2.539,-11.997 -7.519,-22.192 -14.941,-30.586 -7.422,-8.399 -17.969,-12.598 -31.641,-12.598 z m 0,6.207 c 8.906,0 15.547,4.57 19.922,13.711 4.375,9.141 7.066,19.258 8.082,30.351 1.016,11.098 1.523,22.895 1.523,35.395 0,12.031 -0.507,23.121 -1.523,33.277 -1.016,10.16 -3.688,19.36 -8.024,27.602 -4.335,8.238 -10.996,12.359 -19.98,12.359 -9.066,0 -15.785,-4.14 -20.16,-12.422 -4.375,-8.281 -7.07,-17.476 -8.086,-27.593 -1.016,-10.118 -1.52,-21.192 -1.52,-33.223 0,-8.906 0.215,-17.305 0.645,-25.199 0.43,-7.891 1.582,-16.035 3.457,-24.43 1.875,-8.398 4.902,-15.469 9.082,-21.211 4.18,-5.742 9.707,-8.617 16.582,-8.617"
           style="fill:#262626;fill-opacity:1;fill-rule:nonzero;stroke:none"
           id="path15786" /><path
           d="m 787,2723.3795 c -19.609,0 -32.949,8.07 -40.02,24.2 -7.07,16.13 -10.605,35.33 -10.605,57.59 0,13.91 1.27,26.99 3.809,39.26 2.543,12.27 7.578,22.68 15.113,31.23 7.539,8.56 18.109,12.84 31.703,12.84 10.547,0 19.176,-2.58 25.898,-7.74 6.719,-5.16 11.836,-11.82 15.352,-19.98 3.516,-8.17 5.918,-16.92 7.207,-26.25 1.289,-9.34 1.934,-19.12 1.934,-29.36 0,-13.75 -1.27,-26.62 -3.809,-38.61 -2.539,-11.99 -7.519,-22.19 -14.941,-30.58 -7.422,-8.4 -17.969,-12.6 -31.641,-12.6 z m 0,6.21 c 8.906,0 15.547,4.57 19.922,13.71 4.375,9.14 7.066,19.25 8.082,30.35 1.016,11.1 1.523,22.89 1.523,35.39 0,12.03 -0.507,23.12 -1.523,33.28 -1.016,10.16 -3.688,19.36 -8.024,27.6 -4.335,8.24 -10.996,12.36 -19.98,12.36 -9.066,0 -15.785,-4.14 -20.16,-12.42 -4.375,-8.28 -7.07,-17.48 -8.086,-27.59 -1.016,-10.12 -1.52,-21.2 -1.52,-33.23 0,-8.9 0.215,-17.3 0.645,-25.2 0.43,-7.89 1.582,-16.03 3.457,-24.43 1.875,-8.39 4.902,-15.46 9.082,-21.21 4.18,-5.74 9.707,-8.61 16.582,-8.61"
           style="fill:#262626;fill-opacity:1;fill-rule:nonzero;stroke:none"
           id="path15788" /><path
           d="m 627.859,3929.7095 c 1.637,-4.69 4.157,-8.95 7.559,-12.78 3.398,-3.82 7.422,-6.82 12.066,-8.97 4.653,-2.14 9.477,-3.21 14.477,-3.21 11.562,0 19.535,4.49 23.91,13.47 4.375,8.98 6.563,19.88 6.563,32.7 0,5.54 -0.102,10.21 -0.301,14 -0.195,3.79 -0.719,7.44 -1.574,10.96 -1.485,5.62 -4.086,10.55 -7.801,14.76 -3.711,4.22 -8.262,6.33 -13.649,6.33 -5.39,0 -10.019,-0.82 -13.882,-2.46 -3.872,-1.64 -7.016,-3.55 -9.438,-5.74 -2.426,-2.19 -4.574,-4.5 -6.449,-6.91 -1.875,-2.43 -3.043,-3.72 -3.512,-3.88 h -2.699 c -0.391,0 -0.875,0.26 -1.461,0.77 -0.586,0.5 -0.879,0.99 -0.879,1.46 v 80.16 c 0,0.39 0.254,0.8 0.758,1.23 0.512,0.43 1.039,0.65 1.582,0.65 h 0.707 c 10.777,-5.16 22.223,-7.74 34.336,-7.74 11.875,0 23.316,2.58 34.332,7.74 h 0.707 c 0.543,0 1.051,-0.2 1.523,-0.59 0.469,-0.39 0.704,-0.82 0.704,-1.29 v -2.23 c 0,-0.78 -0.157,-1.17 -0.473,-1.17 -5.465,-7.27 -12.32,-12.93 -20.567,-16.99 -8.238,-4.07 -16.773,-6.1 -25.601,-6.1 -6.406,0 -12.969,0.9 -19.688,2.7 v -45.35 c 5.313,4.29 10.063,7.36 14.243,9.2 4.179,1.84 9.507,2.75 15.988,2.75 8.832,0 16.738,-2.54 23.73,-7.61 6.996,-5.09 12.368,-11.71 16.118,-19.86 3.75,-8.17 5.625,-16.51 5.625,-25.03 0,-9.61 -2.364,-18.51 -7.086,-26.72 -4.731,-8.2 -11.161,-14.73 -19.286,-19.57 -8.125,-4.84 -16.953,-7.26 -26.48,-7.26 -7.891,0 -15.137,2.03 -21.734,6.09 -6.606,4.06 -11.805,9.53 -15.594,16.41 -3.785,6.87 -5.68,14.18 -5.68,21.91 0,3.6 1.172,6.53 3.512,8.79 2.344,2.27 5.273,3.4 8.789,3.4 3.516,0 6.465,-1.15 8.851,-3.46 2.383,-2.3 3.579,-5.21 3.579,-8.73 0,-3.44 -1.196,-6.35 -3.579,-8.73 -2.386,-2.38 -5.335,-3.58 -8.851,-3.58 -0.543,0 -1.168,0.07 -1.875,0.18 -0.699,0.12 -1.207,0.22 -1.52,0.3"
           style="fill:#262626;fill-opacity:1;fill-rule:nonzero;stroke:none"
           id="path15790" /><path
           d="m 787,3897.1295 c -19.609,0 -32.949,8.07 -40.02,24.2 -7.07,16.13 -10.605,35.33 -10.605,57.59 0,13.91 1.27,26.99 3.809,39.26 2.543,12.27 7.578,22.68 15.113,31.23 7.539,8.56 18.109,12.84 31.703,12.84 10.547,0 19.176,-2.58 25.898,-7.74 6.719,-5.16 11.836,-11.82 15.352,-19.98 3.516,-8.17 5.918,-16.92 7.207,-26.25 1.289,-9.34 1.934,-19.12 1.934,-29.36 0,-13.75 -1.27,-26.62 -3.809,-38.61 -2.539,-11.99 -7.519,-22.19 -14.941,-30.58 -7.422,-8.4 -17.969,-12.6 -31.641,-12.6 z m 0,6.21 c 8.906,0 15.547,4.57 19.922,13.71 4.375,9.14 7.066,19.25 8.082,30.35 1.016,11.1 1.523,22.89 1.523,35.39 0,12.03 -0.507,23.12 -1.523,33.28 -1.016,10.16 -3.688,19.36 -8.024,27.6 -4.335,8.24 -10.996,12.36 -19.98,12.36 -9.066,0 -15.785,-4.14 -20.16,-12.42 -4.375,-8.28 -7.07,-17.48 -8.086,-27.59 -1.016,-10.12 -1.52,-21.2 -1.52,-33.23 0,-8.9 0.215,-17.3 0.645,-25.2 0.43,-7.89 1.582,-16.03 3.457,-24.43 1.875,-8.39 4.902,-15.46 9.082,-21.2 4.18,-5.75 9.707,-8.62 16.582,-8.62"
           style="fill:#262626;fill-opacity:1;fill-rule:nonzero;stroke:none"
           id="path15792" /><path
           d="m 240.82,2786.2795 c -3.824,0 -7.179,1.47 -10.07,4.4 -2.891,2.93 -4.336,6.3 -4.336,10.14 0,2.34 0.625,4.66 1.875,6.96 1.25,2.31 3.027,4.11 5.332,5.4 2.301,1.28 4.699,1.93 7.199,1.93 3.75,0 7.09,-1.41 10.024,-4.22 2.929,-2.81 4.394,-6.17 4.394,-10.07 0,-3.84 -1.465,-7.21 -4.394,-10.14 -2.934,-2.93 -6.274,-4.4 -10.024,-4.4"
           style="fill:#262626;fill-opacity:1;fill-rule:nonzero;stroke:none"
           id="path15794" /><path
           d="m 404.883,2744.0995 c 0,-2.19 -0.68,-4.05 -2.047,-5.57 -1.363,-1.52 -3.141,-2.28 -5.332,-2.28 -1.016,0 -1.793,0.07 -2.34,0.23 l -78.285,19.57 c -4.918,1.33 -9.219,1.99 -12.891,1.99 -7.5,0 -11.25,-2.58 -11.25,-7.73 0,-5.47 3.262,-9.53 9.785,-12.18 6.528,-2.66 14.79,-5.2 24.79,-7.63 0.542,0 0.972,-0.27 1.289,-0.81 0.308,-0.55 0.464,-1.03 0.464,-1.41 v -3.05 c 0,-0.62 -0.332,-1.15 -0.996,-1.58 -0.664,-0.43 -1.23,-0.65 -1.695,-0.65 -7.66,1.88 -14.125,3.7 -19.395,5.46 -5.277,1.75 -10.101,4.48 -14.476,8.19 -4.375,3.72 -6.563,8.35 -6.563,13.89 0,6.49 2.051,12.29 6.153,17.4 4.101,5.12 9.398,7.69 15.883,7.69 -6.801,5.07 -12.172,11.06 -16.118,17.98 -3.945,6.91 -5.918,14.43 -5.918,22.56 0,9.14 2.461,16.46 7.379,21.97 4.926,5.51 11.918,8.26 20.981,8.26 5.234,0 10.039,-0.58 14.414,-1.76 l 121.523,-30.47 c 2.5,-0.54 4.512,-1.83 6.035,-3.86 1.528,-2.03 2.29,-4.33 2.29,-6.92 0,-2.1 -0.645,-3.94 -1.938,-5.5 -1.289,-1.57 -3.066,-2.35 -5.332,-2.35 -1.012,0 -1.68,0.08 -1.992,0.24 l -121.051,30.11 c -7.191,1.8 -13.168,2.7 -17.934,2.7 -4.843,0 -8.984,-1.02 -12.418,-3.05 -3.441,-2.03 -5.16,-5.31 -5.16,-9.84 0,-17.19 10.586,-31.45 31.762,-42.78 l 71.715,-17.81 c 2.344,-0.63 4.379,-1.99 6.098,-4.09 1.714,-2.11 2.57,-4.42 2.57,-6.92"
           style="fill:#262626;fill-opacity:1;fill-rule:nonzero;stroke:none"
           id="path15796" /><path
           d="m 915,2786.2495 0.008,-0.3 0.023,-0.33 0.028,-0.4 0.062,-0.49 0.09,-0.65 0.125,-0.85 0.18,-1.13 0.265,-1.48 0.36,-1.96 0.496,-2.57 0.679,-3.35 0.922,-4.36 1.239,-5.65 1.664,-7.3 2.214,-9.37 2.926,-12 3.84,-15.32 5.055,-19.45 6.621,-24.54 8.656,-30.8 11.203,-38.56 14.508,-47.8 18.832,-58.5 24.434,-70.52 31.61,-83.45 40.75,-96.42 52.39,-106.79 66.91,-111.28 84.93,-104.59 105.76,-79.25 126.27,-26.8 141.51,58.35 140.89,171.64 111.92,288.98 49.81,369.48 -28.93,374.25 -96.02,298.6 -131.35,176.82 -135.34,51.23 -120.34,-49.79 -95.83,-118.5 -71.09,-159.55 -47.71,-182.48 -25.42,-194.38 -4.02,-199.89 17.43,-202.08 40.03,-198.44 64.87,-184.83 92.38,-155.15 121.5,-97.52 146.44,-3.53 156.26,127.8 134.46,273.64 69.82,384.69 -21.89,406.81 -103.15,324.84 -144.8,180.25 -146.58,29.04 -124.7,-91.67 -91.91,-173.16 -59.72,-220.76 -27.55,-245.91 4.02,-254.21 36.26,-247.97 70.32,-222.74 105.95,-170.22 140.28,-79.1 163.08,56.17 155.95,222.16 101,368.72 3.57,427.9 -94.03,363.37 -150.01,209.05 -156.25,35.72 -131.52,-107.45 -93.23,-204.62 -53.01,-260.42 -12.67,-285 27.71,-283.15 69.57,-253.51 112.32,-187.04 151.03,-73.64 172.22,89.28 151.86,274 74.27,412.22 -38.85,428.27 -130.76,310.14 -165.72,122.53 -151.82,-57.71 -112.67,-190.52 -65.24,-270.45 -18.14,-306.09 30.15,-304.37 79.11,-263.76 127.8,-174.5 166.8,-28.94 175.98,164.2 127.36,352.25 19.59,445.23 -97.8,383.93 -163.88,204.59 -166.57,-1.07 -130.24,-166.93 -78.72,-272.32 -24.05,-321.36 31.38,-321.25 87.15,-270.85 140.8,-160.85 178.61,12.49 172.89,226.86 98.25,404.39 -29.2,445.77 -138.25,321.01 -177.45,105.75 -155.92,-100.51 -104.41,-246.43 -43.43,-323.51 17.98,-338.56 80.5,-293.41 139.86,-180.92 182.24,2.62 176.37,229.62 94.48,412.91 -41.55,444.03 -150.66,298.52 -181.7,67.69 -150.74,-142.52 -90.42,-282.72 -23.3,-345.29 45.48,-336.73 113.01,-255.04 170.47,-93.03 190.91,133.95 136.55,358.43 6.04,456.45 -127.26,359.02 -184.93,130.59 -165.02,-103.9 -104.94,-270.08 -31.57,-349.93 43.04,-346.42 116.52,-259.27 176.73,-83.61 192.75,158.36 124.02,382.7 -19.82,454.34 -148.7,319.28 -189.41,70.33 -154.38,-161.67 -82.87,-311.5 -3.69,-364.46 78.12,-324.04 152.2,-187.13 197.01,39.41 167.7,296.91 42.69,450.89 -111.16,390.21 -189.55,157.33 -173.6,-101.6 -105.38,-286.26 -20.43,-366.29 66.85,-341.03 147.7,-209.81 198.79,20.79 172.77,287.72 43.86,449.91 -115.57,385.36 -193.59,142.1 -172.11,-123.44 -96.36,-306.03 -5.75,-373.15 87.86,-324.27 168.46,-159.16 204.32,101.11 141.76,360.52 -16.96,453.35 -161.02,303.23 -197.2,24.58 -144.28,-221.39 -53.65,-356.65 46.04,-364.63 139.74,-244.76 202.38,-7.39 179.53,278.13 40.74,449.08 -128.92,369.27 -201.53,101.78 -165.2,-172.75 -73.67,-342.6 29.89,-374.31 131.86,-267.5 201.94,-32.27 186.11,261.76 46.31,445.62 -129.62,368.48 -204.2,94.04 -163.6,-186.13 -65.63,-352.59 44.19,-369.73 148.66,-237.76 210.1,23.99 166.27,318.15 -0.52,450.15 -165.04,303.33 -203.89,1.55 -136.9,-257.63 -25.49,-377.58 89.7,-334.85 186.27,-136.9 208.64,166.46 95.53,413.38 -97.41,404.06 -205.2,144.13 -176.16,-160.49 -73.74,-349.01 48.73,-370.25 161.4,-219.62 217.03,69.82 142.33,362.64 -51.02,434.4 -196.14,215.16 -193.28,-105.62 -95.48,-329.15 32.77,-378.66 153.1,-243.13 218.52,43.97 151.11,348.66 -45.57,434.01 -197.48,215.33 -194.09,-111.89 -90.56,-335.81 43.24,-374.57 166.55,-218.41 221.59,89.15 126.23,382.03 -83.99,412.11 -211.89,146.55 -178.48,-178.94 -56.35,-366.15 83.53,-348.03 198.21,-130.45 209.72,204.93 52.27,430.67 -155.17,330.06 -216.52,2.16 -131.66,-284.96 9.92,-383.28 149.96,-261.7 226,42.1 143.43,359.96 -76.82,413.25 -216.42,143.22 -177.76,-193.81 -41.71,-374.26 109.18,-323.36 217.78,-60.36 186.23,286.25 -19.92,431.85 -202.62,220.5 -198.7,-132.6 -70.1,-357.03 88.43,-345.04 211.63,-102.15 200.02,253.02 -0.61,430.77 -198.3,238.42 -203.72,-120.88 -72.62,-354.71 91.86,-342.3 217.21,-87.94 193.7,272.17 -22.31,426.04 -210.8,200.29 -194.04,-162.78 -47.62,-369.49 121.94,-310.96 230.71,-13.55 158.2,335.78 -84.76,398.43 -228.04,98.71 -160.17,-247.24 7.4,-379.04 173.85,-230.37 233.47,125.12 72.73,408.06 -171.79,304.55 -222.33,-65.49 -90.31,-340.79 93.97,-341.18 228.88,-64.85 178.29,307.04 -73.29,402.04 -232.93,101.38 -159.36,-255.9 23.73,-376.17 196.23,-189.72 226.19,191.64 13.58,418.7 -213.75,214.51 -199.2,-173.39 -25.54,-374.14 165.79,-255.95 242.08,111.07 65.88,405.45 -192.99,270.87 -217.41,-123.4 -50,-365.55 151.9,-279.82 246.75,80.94 81.09,397.21 -189.43,280.07 -221.1,-119.28 -48.11,-365.7 160.18,-269.97 247.68,104.45 58.81,404.07 -207.93,244.48 -210.11,-162.9 -17.59,-373.08 190.5,-221.25 237.18,180.75 -5.48,410.17 -237.66,154.37 -174.78,-244.57 44.32,-367.01 233.36,-115.66 189.98,295.63 -109.8,371.66 -249.7,0.66 -100.62,-333.96 135.02,-306.29 258.17,63.28 70.29,394.52 -218.94,230.36 -204.86,-193.89 19.75,-370.31 231.56,-139.14 197.95,286.1 -117.91,363.82 -253.05,-25.98 -78.44,-348.31 170.44,-265.65 253.74,147.01 -8.75,400.89 -254.49,113.2 -148.36,-289.5 111.3,-328.53 266.69,35.81 71.54,388.04 -235.36,202.23 -190.02,-234.12 70.67,-352.45 265.12,-28.85 113.84,367.22 -220.18,242.09 -208.4,-205.5 56.2,-357.49 265.61,-44.87 119.87,361.94 -223.18,238.69 -205.62,-213.88 69.84,-350.84 273,-13.04 89.24,375.87 -245.56,192.01 -180.16,-257.1 115,-325.86 277.62,70.48 13.59,389.9 -271.35,91.35 -119.73,-318.6 185.23,-257.88 252.34,200.1 -106.38,361.07 -268.14,-64.4 -16.12,-359.66 261.64,-114.4 150.3,337.57 -234.86,230.45 -195.58,-242.93 128.98,-315.36 281.58,115.95 -53.11,377.21 -281.94,-17.87 -33.77,-354.51 267.2,-116.65 140.16,342.54 -256.27,194.88 -167.93,-279.06 181.79,-269.36 256.28,211.89 -157.25,325.15 -252.77,-156.08 85.37,-338.28 297.09,74.02 -46.76,372.38 -289.62,-40.2 5.56,-353.22 298.51,-27.88 36.27,373.27 -298.86,39.96 -44.78,-347.1 291.05,-83.01 78.68,362.85 -300.25,74.47 -62.22,-341.47 291.79,-92.77 78.69,360.82 -305.15,61.7 -44.77,-344.24 304.94,-57.08 33.18,367.14 -309.88,0.39 12.2,-347.12 318.27,29.08 -63.03,359.09 -292.16,-108.02 110.84,-322.11 296.76,163.8 -197.8,291.81 -216.54,-241.49 236.62,-224.07 162.87,114.29"
           style="fill:none;stroke:#0072bd;stroke-width:15;stroke-linecap:butt;stroke-linejoin:round;stroke-miterlimit:10;stroke-dasharray:none;stroke-opacity:1"
           id="path15798" /><path
           d="m 1846.3,2733.3695 5.08,0.14 5.07,0.29 5.03,0.27 5.01,0.27 4.99,0.27 4.95,0.26 4.93,0.25 4.91,0.25 4.89,0.25 4.86,0.24 4.83,0.24 4.82,0.23 4.79,0.23 4.77,0.23 4.75,0.22 4.73,0.22 4.7,0.21 4.69,0.21 4.67,0.21 4.64,0.2 4.63,0.21 4.62,0.2 4.59,0.19 4.56,0.19 5.42,0.19 4.16,0.19 4.13,0.18 4.13,0.18 4.11,0.18 4.09,0.18 4.09,0.17 4.06,0.17 4.06,0.17 4.05,0.16 4.04,0.17 4.02,0.15 4,0.17 4,0.16 3.98,0.14 3.98,0.16 3.96,0.15 3.95,0.15 3.94,0.15 3.92,0.14 3.92,0.15 3.9,0.14 3.89,0.14 3.89,0.14 3.87,0.13 3.86,0.14 3.84,0.13 3.84,0.14 3.84,0.12 3.81,0.13 3.8,0.13 3.8,0.13 3.79,0.13 3.78,0.11 3.76,0.12 3.75,0.13 3.75,0.12 3.74,0.11 3.73,0.13 3.71,0.11 3.71,0.11 3.7,0.11 3.68,0.11 3.68,0.12 3.67,0.1 3.66,0.12 3.65,0.1 3.64,0.1 3.63,0.11 3.63,0.1 3.61,0.11 3.61,0.11 3.6,0.09 3.58,0.11 3.58,0.1 3.58,0.09 3.55,0.1 3.55,0.1 3.55,0.09 3.54,0.1 3.53,0.09 3.52,0.09 3.51,0.09 3.51,0.09 3.49,0.1 3.49,0.08 3.48,0.09 3.47,0.09 3.47,0.09 3.45,0.08 3.45,0.09 3.45,0.09 3.42,0.08 3.43,0.08 3.42,0.09 3.41,0.09 3.4,0.07 3.4,0.08 3.39,0.08 3.38,0.08 3.38,0.08 3.36,0.08 3.35,0.08 3.36,0.08 3.34,0.07 3.35,0.07 3.33,0.08 3.32,0.08 3.32,0.07 3.31,0.07 3.3,0.08 3.3,0.08 3.29,0.06 3.28,0.08 3.28,0.06 3.27,0.07 3.26,0.08 3.26,0.07 3.25,0.06 3.25,0.07 3.23,0.07 3.23,0.06 3.23,0.07 3.22,0.07 3.21,0.07 3.21,0.06 3.2,0.07 3.19,0.06 3.19,0.06 3.18,0.07 3.18,0.06 3.16,0.06 3.17,0.07 3.16,0.06 3.15,0.06 3.15,0.06 3.14,0.06 3.13,0.06 3.13,0.06 3.12,0.06 3.12,0.06 3.11,0.06 3.11,0.06 3.1,0.06 3.09,0.05 3.09,0.06 3.08,0.05 3.08,0.06 3.07,0.06 3.07,0.06 3.06,0.05 3.06,0.06 3.05,0.05 3.05,0.05 3.03,0.06 3.04,0.05 3.03,0.06 3.02,0.05 3.02,0.05 3.02,0.05 3.01,0.06 3,0.04 3,0.06 2.99,0.05 2.99,0.05 2.98,0.05 2.99,0.05 2.97,0.05 2.96,0.05 2.97,0.05 2.96,0.05 2.95,0.05 2.95,0.05 2.94,0.04 2.94,0.05 2.93,0.05 2.94,0.04 2.92,0.06 2.93,0.04 2.91,0.05 2.91,0.04 2.91,0.05 2.9,0.04 2.89,0.06 2.9,0.04 2.89,0.05 2.89,0.04 2.87,0.05 2.88,0.04 2.86,0.04 2.87,0.04 2.86,0.05 2.86,0.04 2.85,0.05 2.85,0.04 2.84,0.04 2.85,0.05 2.83,0.04 2.83,0.04 2.82,0.04 2.83,0.04 2.81,0.04 2.82,0.04 2.81,0.05 2.8,0.03 2.81,0.05 2.8,0.04 2.79,0.04 2.79,0.04 2.78,0.04 2.78,0.04 2.78,0.04 2.77,0.04 2.77,0.03 2.77,0.04 2.76,0.05 2.76,0.04 2.75,0.03 2.75,0.04 2.74,0.04 2.74,0.03 2.74,0.04 2.73,0.04 2.73,0.04 2.73,0.04 2.73,0.03 2.71,0.04 2.72,0.04 2.71,0.03 2.71,0.04 2.7,0.03 2.7,0.04 2.69,0.04 2.69,0.03 2.69,0.04 2.69,0.03 2.68,0.04 2.67,0.03 2.68,0.04 2.67,0.04 2.67,0.03 2.67,0.03 2.65,0.03 2.66,0.04 2.65,0.03 2.65,0.04 2.64,0.03 2.65,0.03 2.64,0.04 2.64,0.03 2.63,0.03 2.62,0.03 2.63,0.04 2.62,0.03 2.62,0.04 2.61,0.03 2.62,0.03 2.6,0.03 2.61,0.03 2.6,0.04 2.6,0.03 2.59,0.02 2.59,0.04 2.6,0.03 2.57,0.03 2.59,0.03 2.57,0.03 2.59,0.03 2.57,0.03 2.56,0.03 2.57,0.03 2.56,0.03 2.56,0.03 2.56,0.03 2.55,0.03 2.55,0.03 2.55,0.03 2.54,0.03 2.54,0.03 2.54,0.03 2.53,0.03 2.54,0.03 2.53,0.03 2.52,0.03 2.52,0.03 2.52,0.03 2.51,0.02 2.52,0.04 2.51,0.03 2.51,0.02 2.5,0.03 2.51,0.03 2.49,0.03 2.5,0.02 2.49,0.03 2.49,0.03 2.48,0.02 2.49,0.03 2.48,0.03 2.48,0.03 2.48,0.02 2.47,0.04 2.47,0.02 2.47,0.03 2.46,0.02 2.45,0.03 2.46,0.02 2.47,0.03 2.45,0.03 2.44,0.03 2.45,0.02 2.45,0.03 2.44,0.02 2.43,0.03 2.44,0.02 2.44,0.03 2.43,0.03 2.42,0.02 2.43,0.03 2.43,0.02 2.42,0.02 2.41,0.03 2.42,0.02 2.41,0.03 2.41,0.03 2.41,0.02 2.4,0.02 2.4,0.03 2.4,0.02 2.4,0.03 2.39,0.02 2.39,0.03 2.39,0.02 2.38,0.02 2.39,0.03 2.38,0.02 2.38,0.03 2.38,0.02 2.37,0.03 2.37,0.02 2.37,0.02 2.36,0.02 2.36,0.03 2.37,0.02 2.36,0.03 2.35,0.02 2.36,0.02 2.35,0.03 2.34,0.02 2.35,0.02 2.34,0.02 2.35,0.03 2.33,0.02 2.34,0.02 2.33,0.02 2.34,0.03 2.33,0.02 2.32,0.02 2.33,0.02 2.32,0.03 2.32,0.02 2.32,0.02 2.31,0.02 2.32,0.02 2.3,0.02 2.31,0.02 2.31,0.02 2.3,0.03 2.3,0.02 2.3,0.02 2.3,0.02 2.29,0.02 2.29,0.02 2.3,0.03 2.29,0.02 2.28,0.02 2.28,0.02 2.28,0.02 2.28,0.02 2.27,0.02 2.28,0.02 2.27,0.02 2.27,0.02 2.27,0.02 2.26,0.02 2.27,0.02 2.26,0.03 2.26,0.02 2.26,0.01 2.25,0.02 2.26,0.03 2.25,0.01 2.24,0.02 2.25,0.03 2.24,0.01 2.24,0.03 2.24,0.02 2.24,0.01 2.23,0.02 2.24,0.02 2.23,0.02 2.22,0.03 2.23,0.01 2.23,0.02 2.22,0.02 2.22,0.02 2.22,0.02 2.22,0.02 2.21,0.01 2.22,0.03 2.21,0.02 2.2,0.01 2.21,0.02 2.2,0.02 2.21,0.02 2.2,0.02 2.19,0.02 2.2,0.01 1.14,0.01"
           style="fill:none;stroke:#ff0000;stroke-width:15;stroke-linecap:butt;stroke-linejoin:bevel;stroke-miterlimit:10;stroke-dasharray:60, 60;stroke-dashoffset:0;stroke-opacity:1"
           id="path15800" /><path
           d="m 1963.07,1819.9895 v 1789.35"
           style="fill:none;stroke:#000000;stroke-width:15;stroke-linecap:butt;stroke-linejoin:bevel;stroke-miterlimit:10;stroke-dasharray:60, 60;stroke-dashoffset:0;stroke-opacity:1"
           id="path15802" /></g><g
         inkscape:label=""
         transform="matrix(32.191159,0,0,-32.191159,1403.4525,7922.0275)"
         id="g14984"><g
   id="g14982"
   transform="matrix(0.881944,0,0,0.881944,-81.9409,-65.686)">
    <g
   style="fill:#000000;fill-opacity:1"
   id="g14968">
      <g
   id="g14966"
   transform="translate(91.925003,81.962997)">
        <path
   style="stroke:none"
   d="m 3.296875,2.390625 c 0,-0.03125 0,-0.046875 -0.171875,-0.21875 C 1.890625,0.921875 1.5625,-0.96875 1.5625,-2.5 c 0,-1.734375 0.375,-3.46875 1.609375,-4.703125 0.125,-0.125 0.125,-0.140625 0.125,-0.171875 0,-0.078125 -0.03125,-0.109375 -0.09375,-0.109375 -0.109375,0 -1,0.6875 -1.59375,1.953125 -0.5,1.09375 -0.625,2.203125 -0.625,3.03125 0,0.78125 0.109375,1.984375 0.65625,3.125 C 2.25,1.84375 3.09375,2.5 3.203125,2.5 c 0.0625,0 0.09375,-0.03125 0.09375,-0.109375 z m 0,0"
   id="path14964" />
      </g>
    </g>
    <g
   style="fill:#000000;fill-opacity:1"
   id="g14974">
      <g
   id="g14972"
   transform="translate(95.800003,81.962997)">
        <path
   style="stroke:none"
   d="m 3.953125,-3.78125 c -0.171875,0 -0.296875,0 -0.4375,0.125 -0.171875,0.15625 -0.1875,0.328125 -0.1875,0.390625 0,0.25 0.1875,0.359375 0.375,0.359375 0.28125,0 0.546875,-0.25 0.546875,-0.640625 0,-0.484375 -0.46875,-0.859375 -1.171875,-0.859375 -1.34375,0 -2.671875,1.421875 -2.671875,2.828125 0,0.90625 0.578125,1.6875 1.625,1.6875 1.421875,0 2.25,-1.0625 2.25,-1.171875 0,-0.0625 -0.046875,-0.140625 -0.109375,-0.140625 -0.0625,0 -0.078125,0.03125 -0.140625,0.109375 -0.78125,0.984375 -1.875,0.984375 -1.984375,0.984375 -0.625,0 -0.90625,-0.484375 -0.90625,-1.09375 0,-0.40625 0.203125,-1.375 0.546875,-1.984375 0.3125,-0.578125 0.859375,-1 1.40625,-1 0.328125,0 0.71875,0.125 0.859375,0.40625 z m 0,0"
   id="path14970" />
      </g>
    </g>
    <g
   style="fill:#000000;fill-opacity:1"
   id="g14980">
      <g
   id="g14978"
   transform="translate(100.111,81.962997)">
        <path
   style="stroke:none"
   d="m 2.875,-2.5 c 0,-0.765625 -0.109375,-1.96875 -0.65625,-3.109375 -0.59375,-1.21875 -1.453125,-1.875 -1.546875,-1.875 -0.0625,0 -0.109375,0.046875 -0.109375,0.109375 0,0.03125 0,0.046875 0.1875,0.234375 0.984375,0.984375 1.546875,2.5625 1.546875,4.640625 0,1.71875 -0.359375,3.46875 -1.59375,4.71875 C 0.5625,2.34375 0.5625,2.359375 0.5625,2.390625 0.5625,2.453125 0.609375,2.5 0.671875,2.5 0.765625,2.5 1.671875,1.8125 2.25,0.546875 2.765625,-0.546875 2.875,-1.65625 2.875,-2.5 Z m 0,0"
   id="path14976" />
      </g>
    </g>
  </g>
</g><g
         inkscape:label=""
         transform="matrix(32.191159,0,0,-32.191159,1403.4525,10577.026)"
         id="g1903"><g
   id="surface1"
   transform="matrix(0.881944,0,0,0.881944,-81.9409,-65.686)">
    <g
   style="fill:#000000;fill-opacity:1"
   id="g23">
      <g
   id="use21"
   transform="translate(91.925003,81.962997)">
        <path
   style="stroke:none"
   d="m 3.296875,2.390625 c 0,-0.03125 0,-0.046875 -0.171875,-0.21875 C 1.890625,0.921875 1.5625,-0.96875 1.5625,-2.5 c 0,-1.734375 0.375,-3.46875 1.609375,-4.703125 0.125,-0.125 0.125,-0.140625 0.125,-0.171875 0,-0.078125 -0.03125,-0.109375 -0.09375,-0.109375 -0.109375,0 -1,0.6875 -1.59375,1.953125 -0.5,1.09375 -0.625,2.203125 -0.625,3.03125 0,0.78125 0.109375,1.984375 0.65625,3.125 C 2.25,1.84375 3.09375,2.5 3.203125,2.5 c 0.0625,0 0.09375,-0.03125 0.09375,-0.109375 z m 0,0"
   id="path38" />
      </g>
    </g>
    <g
   style="fill:#000000;fill-opacity:1"
   id="g27">
      <g
   id="use25"
   transform="translate(95.800003,81.962997)">
        <path
   style="stroke:none"
   d="M 3.71875,-3.765625 C 3.53125,-4.140625 3.25,-4.40625 2.796875,-4.40625 c -1.15625,0 -2.390625,1.46875 -2.390625,2.921875 0,0.9375 0.546875,1.59375 1.3125,1.59375 0.203125,0 0.703125,-0.046875 1.296875,-0.75 0.078125,0.421875 0.4375,0.75 0.90625,0.75 0.359375,0 0.578125,-0.234375 0.75,-0.546875 0.15625,-0.359375 0.296875,-0.96875 0.296875,-0.984375 0,-0.109375 -0.09375,-0.109375 -0.125,-0.109375 -0.09375,0 -0.109375,0.046875 -0.140625,0.1875 -0.171875,0.640625 -0.34375,1.234375 -0.75,1.234375 -0.28125,0 -0.296875,-0.265625 -0.296875,-0.453125 0,-0.21875 0.015625,-0.3125 0.125,-0.75 C 3.890625,-1.71875 3.90625,-1.828125 4,-2.203125 L 4.359375,-3.59375 c 0.0625,-0.28125 0.0625,-0.296875 0.0625,-0.34375 0,-0.171875 -0.109375,-0.265625 -0.28125,-0.265625 -0.25,0 -0.390625,0.21875 -0.421875,0.4375 z M 3.078125,-1.1875 C 3.015625,-1 3.015625,-0.984375 2.875,-0.8125 2.4375,-0.265625 2.03125,-0.109375 1.75,-0.109375 c -0.5,0 -0.640625,-0.546875 -0.640625,-0.9375 0,-0.5 0.3125,-1.71875 0.546875,-2.1875 0.3125,-0.578125 0.75,-0.953125 1.15625,-0.953125 0.640625,0 0.78125,0.8125 0.78125,0.875 0,0.0625 -0.015625,0.125 -0.03125,0.171875 z m 0,0"
   id="path42" />
      </g>
    </g>
    <g
   style="fill:#000000;fill-opacity:1"
   id="g31">
      <g
   id="use29"
   transform="translate(101.066,81.962997)">
        <path
   style="stroke:none"
   d="m 2.875,-2.5 c 0,-0.765625 -0.109375,-1.96875 -0.65625,-3.109375 -0.59375,-1.21875 -1.453125,-1.875 -1.546875,-1.875 -0.0625,0 -0.109375,0.046875 -0.109375,0.109375 0,0.03125 0,0.046875 0.1875,0.234375 0.984375,0.984375 1.546875,2.5625 1.546875,4.640625 0,1.71875 -0.359375,3.46875 -1.59375,4.71875 C 0.5625,2.34375 0.5625,2.359375 0.5625,2.390625 0.5625,2.453125 0.609375,2.5 0.671875,2.5 0.765625,2.5 1.671875,1.8125 2.25,0.546875 2.765625,-0.546875 2.875,-1.65625 2.875,-2.5 Z m 0,0"
   id="path46" />
      </g>
    </g>
  </g>
</g><g
         inkscape:label=""
         transform="matrix(32.71721,0,0,-32.191159,4058.4508,10577.026)"
         id="g2752"><g
   id="g2750"
   transform="matrix(0.881944,0,0,0.881944,-81.9409,-65.686)">
    <g
   style="fill:#000000;fill-opacity:1"
   id="g2736">
      <g
   id="g2734"
   transform="translate(91.925003,81.962997)">
        <path
   style="stroke:none"
   d="m 3.296875,2.390625 c 0,-0.03125 0,-0.046875 -0.171875,-0.21875 C 1.890625,0.921875 1.5625,-0.96875 1.5625,-2.5 c 0,-1.734375 0.375,-3.46875 1.609375,-4.703125 0.125,-0.125 0.125,-0.140625 0.125,-0.171875 0,-0.078125 -0.03125,-0.109375 -0.09375,-0.109375 -0.109375,0 -1,0.6875 -1.59375,1.953125 -0.5,1.09375 -0.625,2.203125 -0.625,3.03125 0,0.78125 0.109375,1.984375 0.65625,3.125 C 2.25,1.84375 3.09375,2.5 3.203125,2.5 c 0.0625,0 0.09375,-0.03125 0.09375,-0.109375 z m 0,0"
   id="path2732" />
      </g>
    </g>
    <g
   style="fill:#000000;fill-opacity:1"
   id="g2742">
      <g
   id="g2740"
   transform="translate(95.800003,81.962997)">
        <path
   style="stroke:none"
   d="m 2.375,-6.8125 c 0,0 0,-0.109375 -0.125,-0.109375 -0.21875,0 -0.953125,0.078125 -1.21875,0.109375 -0.078125,0 -0.1875,0.015625 -0.1875,0.1875 0,0.125 0.09375,0.125 0.25,0.125 0.46875,0 0.484375,0.0625 0.484375,0.171875 0,0.0625 -0.078125,0.40625 -0.125,0.609375 l -0.828125,3.25 c -0.109375,0.5 -0.15625,0.671875 -0.15625,1.015625 0,0.9375 0.53125,1.5625 1.265625,1.5625 1.171875,0 2.40625,-1.484375 2.40625,-2.921875 0,-0.90625 -0.53125,-1.59375 -1.328125,-1.59375 -0.453125,0 -0.875,0.296875 -1.171875,0.59375 z M 1.453125,-3.046875 C 1.5,-3.265625 1.5,-3.28125 1.59375,-3.390625 2.078125,-4.03125 2.53125,-4.1875 2.796875,-4.1875 c 0.359375,0 0.625,0.296875 0.625,0.9375 0,0.59375 -0.328125,1.734375 -0.515625,2.109375 -0.328125,0.671875 -0.78125,1.03125 -1.171875,1.03125 -0.34375,0 -0.671875,-0.265625 -0.671875,-1 0,-0.203125 0,-0.390625 0.15625,-1.015625 z m 0,0"
   id="path2738" />
      </g>
    </g>
    <g
   style="fill:#000000;fill-opacity:1"
   id="g2748">
      <g
   id="g2746"
   transform="translate(100.075,81.962997)">
        <path
   style="stroke:none"
   d="m 2.875,-2.5 c 0,-0.765625 -0.109375,-1.96875 -0.65625,-3.109375 -0.59375,-1.21875 -1.453125,-1.875 -1.546875,-1.875 -0.0625,0 -0.109375,0.046875 -0.109375,0.109375 0,0.03125 0,0.046875 0.1875,0.234375 0.984375,0.984375 1.546875,2.5625 1.546875,4.640625 0,1.71875 -0.359375,3.46875 -1.59375,4.71875 C 0.5625,2.34375 0.5625,2.359375 0.5625,2.390625 0.5625,2.453125 0.609375,2.5 0.671875,2.5 0.765625,2.5 1.671875,1.8125 2.25,0.546875 2.765625,-0.546875 2.875,-1.65625 2.875,-2.5 Z m 0,0"
   id="path2744" />
      </g>
    </g>
  </g>
</g></g></g></svg>
